<svg id="Layer_1" data-name="Layer 1" xmlns="http://www.w3.org/2000/svg" viewBox="0 0 1000 1000"><defs><style>.cls-1{fill:#e6e6e6;}.cls-2{fill:#333;}.cls-3{fill:#fff;}.cls-4{fill:gray;}.cls-5{fill:#b3b3b3;}.cls-6{fill:#ccc;}</style></defs><title>singlepost</title><rect class="cls-1" x="49.89" y="85.69" width="895.61" height="895.81"/><path d="M945,86.19V981H50.39V86.19H945m1-1H49.39V982H946V85.19Z"/><rect class="cls-2" x="91.96" y="79" width="292.44" height="52.38"/><path class="cls-1" d="M380.4,79h-2v1h2V79Zm-4,0h-2v1h2V79Zm-4,0h-2v1h2V79Zm-4,0h-2v1h2V79Zm-4,0h-2v1h2V79Zm-4,0h-2v1h2V79Zm-4,0h-2v1h2V79Zm-4,0h-2v1h2V79Zm-4,0h-2v1h2V79Zm-4,0h-2v1h2V79Zm-4,0h-2v1h2V79Zm-4,0h-2v1h2V79Zm-4,0h-2v1h2V79Zm-4,0h-2v1h2V79Zm-4,0h-2v1h2V79Zm-4,0h-2v1h2V79Zm-4,0h-2v1h2V79Zm-4,0h-2v1h2V79Zm-4,0h-2v1h2V79Zm-4,0h-2v1h2V79Zm-4,0h-2v1h2V79Zm-4,0h-2v1h2V79Zm-4,0h-2v1h2V79Zm-4,0h-2v1h2V79Zm-4,0h-2v1h2V79Zm-4,0h-2v1h2V79Zm-4,0h-2v1h2V79Zm-4,0h-2v1h2V79Zm-4,0h-2v1h2V79Zm-4,0h-2v1h2V79Zm-4,0h-2v1h2V79Zm-4,0h-2v1h2V79Zm-4,0h-2v1h2V79Zm-4,0h-2v1h2V79Zm-4,0h-2v1h2V79Zm-4,0h-2v1h2V79Zm-4,0h-2v1h2V79Zm-4,0h-2v1h2V79Zm-4,0h-2v1h2V79Zm-4,0h-2v1h2V79Zm-4,0h-2v1h2V79Zm-4,0h-2v1h2V79Zm-4,0h-2v1h2V79Zm-4,0h-2v1h2V79Zm-4,0h-2v1h2V79Zm-4,0h-2v1h2V79Zm-4,0h-2v1h2V79Zm-4,0h-2v1h2V79Zm-4,0h-2v1h2V79Zm-4,0h-2v1h2V79Zm-4,0h-2v1h2V79Zm-4,0h-2v1h2V79Zm-4,0h-2v1h2V79Zm-4,0h-2v1h2V79Zm-4,0h-2v1h2V79Zm-4,0h-2v1h2V79Zm-4,0h-2v1h2V79Zm-4,0h-2v1h2V79Zm-4,0h-2v1h2V79Zm-4,0h-2v1h2V79Zm-4,0h-2v1h2V79Zm-4,0h-2v1h2V79Zm-4,0h-2v1h2V79Zm-4,0h-2v1h2V79Zm-4,0h-2v1h2V79Zm-4,0h-2v1h2V79Zm-4,0h-2v1h2V79Zm-4,0h-2v1h2V79Zm-4,0h-2v1h2V79Zm-4,0h-2v1h2V79Zm-4,0h-2v1h2V79Zm-4,0h-2v1h2V79ZM93,79H92v1h0v.56h1V79Zm0,3.56H92v2h1v-2Zm0,4H92v2h1v-2Zm0,4H92v2h1v-2Zm0,4H92v2h1v-2Zm0,4H92v2h1v-2Zm0,4H92v2h1v-2Zm0,4H92v2h1v-2Zm0,4H92v2h1v-2Zm0,4H92v2h1v-2Zm0,4H92v2h1v-2Zm0,4H92v2h1v-2Zm0,4H92v2h1v-2Zm.18,3.82H92v.18h0v0h0v.82h1.18v-1Zm4,0h-2v1h2v-1Zm4,0h-2v1h2v-1Zm4,0h-2v1h2v-1Zm4,0h-2v1h2v-1Zm4,0h-2v1h2v-1Zm4,0h-2v1h2v-1Zm4,0h-2v1h2v-1Zm4,0h-2v1h2v-1Zm4,0h-2v1h2v-1Zm4,0h-2v1h2v-1Zm4,0h-2v1h2v-1Zm4,0h-2v1h2v-1Zm4,0h-2v1h2v-1Zm4,0h-2v1h2v-1Zm4,0h-2v1h2v-1Zm4,0h-2v1h2v-1Zm4,0h-2v1h2v-1Zm4,0h-2v1h2v-1Zm4,0h-2v1h2v-1Zm4,0h-2v1h2v-1Zm4,0h-2v1h2v-1Zm4,0h-2v1h2v-1Zm4,0h-2v1h2v-1Zm4,0h-2v1h2v-1Zm4,0h-2v1h2v-1Zm4,0h-2v1h2v-1Zm4,0h-2v1h2v-1Zm4,0h-2v1h2v-1Zm4,0h-2v1h2v-1Zm4,0h-2v1h2v-1Zm4,0h-2v1h2v-1Zm4,0h-2v1h2v-1Zm4,0h-2v1h2v-1Zm4,0h-2v1h2v-1Zm4,0h-2v1h2v-1Zm4,0h-2v1h2v-1Zm4,0h-2v1h2v-1Zm4,0h-2v1h2v-1Zm4,0h-2v1h2v-1Zm4,0h-2v1h2v-1Zm4,0h-2v1h2v-1Zm4,0h-2v1h2v-1Zm4,0h-2v1h2v-1Zm4,0h-2v1h2v-1Zm4,0h-2v1h2v-1Zm4,0h-2v1h2v-1Zm4,0h-2v1h2v-1Zm4,0h-2v1h2v-1Zm4,0h-2v1h2v-1Zm4,0h-2v1h2v-1Zm4,0h-2v1h2v-1Zm4,0h-2v1h2v-1Zm4,0h-2v1h2v-1Zm4,0h-2v1h2v-1Zm4,0h-2v1h2v-1Zm4,0h-2v1h2v-1Zm4,0h-2v1h2v-1Zm4,0h-2v1h2v-1Zm4,0h-2v1h2v-1Zm4,0h-2v1h2v-1Zm4,0h-2v1h2v-1Zm4,0h-2v1h2v-1Zm4,0h-2v1h2v-1Zm4,0h-2v1h2v-1Zm4,0h-2v1h2v-1Zm4,0h-2v1h2v-1Zm4,0h-2v1h2v-1Zm4,0h-2v1h2v-1Zm4,0h-2v1h2v-1Zm4,0h-2v1h2v-1Zm4,0h-2v1h2v-1Zm4,0h-2v1h2v-1Zm3.26,0h-1.26v1h1.26v-1Zm0-3.74h-1v2h1v-2Zm0-4h-1v2h1v-2Zm0-4h-1v2h1v-2Zm0-4h-1v2h1v-2Zm0-4h-1v2h1v-2Zm0-4h-1v2h1v-2Zm0-4h-1v2h1v-2Zm0-4h-1v2h1v-2Zm0-4h-1v2h1v-2Zm0-4h-1v2h1v-2Zm0-4h-1v2h1v-2Zm0-4h-1v2h1v-2Zm0-3.64h-2v1h1v.64h1V79Z"/><path class="cls-3" d="M125.12,112.18H125l-.45,1.7h-4.22V92h5.42v5.11l-.19,2.26h.13a5.86,5.86,0,0,1,3.94-1.57c3.81,0,6.27,3.15,6.27,8,0,5.45-3.28,8.54-6.71,8.54A5.48,5.48,0,0,1,125.12,112.18Zm5.23-6.37c0-2.58-.79-3.65-2.33-3.65a2.93,2.93,0,0,0-2.27,1.13v5.8a3.18,3.18,0,0,0,2.14.76C129.22,109.85,130.35,108.84,130.35,105.81Z"/><path class="cls-3" d="M143.21,107.39V96.17h-4.73V92h10.15v15.63a2.14,2.14,0,0,0,2.36,2.33,6.71,6.71,0,0,0,2.27-.44l1.16,4a14.89,14.89,0,0,1-4.88.82C145.35,114.26,143.21,111.49,143.21,107.39Z"/><path class="cls-3" d="M157.45,106a8.13,8.13,0,1,1,8.13,8.26A8,8,0,0,1,157.45,106Zm10.71,0c0-2.39-.76-3.9-2.58-3.9S163,103.61,163,106s.76,3.91,2.59,3.91S168.16,108.4,168.16,106Z"/><path class="cls-3" d="M176.41,116.47c0-1.3.82-2.27,2.4-3v-.13a3.07,3.07,0,0,1-1.58-2.71,4,4,0,0,1,1.89-3v-.12a4.76,4.76,0,0,1-2.14-4c0-3.9,3.31-5.73,7-5.73a8.77,8.77,0,0,1,2.68.38H193V102h-2.84a3.5,3.5,0,0,1,.44,1.64c0,3.72-2.9,5.23-6.65,5.23a9.62,9.62,0,0,1-2-.22,1,1,0,0,0-.5.92c0,.69.69.94,2.45.94h2.68c4.16,0,6.55,1.2,6.55,4.1,0,3.4-3.74,5.73-9.64,5.73C179.6,120.37,176.41,119.3,176.41,116.47Zm11.6-.89c0-.82-.88-.94-2.46-.94H184a10.64,10.64,0,0,1-2.4-.19c-.54.38-.79.69-.79,1.13,0,1,1.45,1.45,3.56,1.45S188,116.47,188,115.58Zm-2.14-12.1a1.9,1.9,0,0,0-1.93-2.14,1.88,1.88,0,0,0-1.89,2.14c0,1.52.85,2.21,1.89,2.21S185.87,105,185.87,103.48Z"/><path class="cls-3" d="M196,101.59h14.87v3.78H196Z"/><path class="cls-3" d="M212.9,98.13h5.23l.63,6.61c.16,1.58.25,3.15.44,4.79h.09a44.56,44.56,0,0,1,.67-4.79l.63-4.09h3.65l.69,4.09c.29,1.58.51,3.15.73,4.79h.13c.18-1.64.22-3.21.34-4.79l.51-6.61h5l-2.08,15.75h-6.24l-.5-4.22c-.19-1.45-.35-2.93-.51-4.66h-.13c-.09,1.07-.18,2.36-.44,4.66l-.5,4.22h-6.11Z"/><path class="cls-3" d="M235,98.13h4.44l.41,3.34H240a7,7,0,0,1,6.15-3.72,6.37,6.37,0,0,1,3,.63l-1.07,4.54a8.16,8.16,0,0,0-2.74-.44c-1.8,0-3.72.94-4.88,3.59v7.81H235Z"/><path class="cls-3" d="M252.34,109.41c0-3.53,2.78-5.36,10-5.74-.19-1.13-1.26-1.64-3-1.64a10.82,10.82,0,0,0-4.54,1.33l-1.89-3.53a15.2,15.2,0,0,1,7.5-2.08c4.47,0,7.37,2.2,7.37,7.37v8.76h-4.41l-.38-1.64h-.13a9.23,9.23,0,0,1-5.35,2A4.77,4.77,0,0,1,252.34,109.41Zm10-.51v-2c-3.84.12-4.79,1-4.79,2.08,0,.72.57,1.13,1.7,1.13A5.11,5.11,0,0,0,262.3,108.9Z"/><path class="cls-3" d="M271.56,98.13H276l.38,1.45h.13a6.8,6.8,0,0,1,4.41-1.83c3.81,0,6.24,3.15,6.24,8,0,5.42-3.28,8.51-6.71,8.51a5,5,0,0,1-3.56-1.58h-.13l.25,2.4v4.35h-5.42Zm10,7.68c0-2.58-.79-3.65-2.33-3.65a2.93,2.93,0,0,0-2.27,1.13v5.8a3.19,3.19,0,0,0,2.15.76C280.45,109.85,281.58,108.84,281.58,105.81Z"/><path class="cls-3" d="M290.47,98.13h4.41l.38,1.45h.12a6.82,6.82,0,0,1,4.41-1.83c3.82,0,6.24,3.15,6.24,8,0,5.42-3.27,8.51-6.71,8.51a5,5,0,0,1-3.56-1.58h-.13l.26,2.4v4.35h-5.42Zm10,7.68c0-2.58-.79-3.65-2.33-3.65a2.9,2.9,0,0,0-2.27,1.13v5.8a3.17,3.17,0,0,0,2.14.76C299.35,109.85,300.49,108.84,300.49,105.81Z"/><path class="cls-3" d="M308.93,106a8.08,8.08,0,0,1,8.26-8.25c5,0,7.49,3.4,7.49,7.62a13.46,13.46,0,0,1-.22,2.27H313v-3.53h7.68l-.75,1c0-2.08-.82-3.22-2.59-3.22-2.08,0-3.21,1.33-3.21,4.16s1.45,4.16,4.35,4.16a8.8,8.8,0,0,0,3.78-.94l1.76,3.21a12.45,12.45,0,0,1-6.3,1.83C312.77,114.26,308.93,111.23,308.93,106Z"/><path class="cls-3" d="M329.54,98.13H334l.41,3.34h.12a7,7,0,0,1,6.15-3.72,6.37,6.37,0,0,1,3,.63l-1.07,4.54a8.2,8.2,0,0,0-2.74-.44c-1.8,0-3.72.94-4.88,3.59v7.81h-5.42Z"/><rect class="cls-1" x="92.89" y="186.69" width="368.61" height="251.81"/><path d="M461,187.19V438H93.39V187.19H461m1-1H92.39V439H462V186.19Z"/><rect class="cls-2" x="134.96" y="180" width="292.44" height="52.38"/><path class="cls-1" d="M423.4,180h-2v1h2v-1Zm-4,0h-2v1h2v-1Zm-4,0h-2v1h2v-1Zm-4,0h-2v1h2v-1Zm-4,0h-2v1h2v-1Zm-4,0h-2v1h2v-1Zm-4,0h-2v1h2v-1Zm-4,0h-2v1h2v-1Zm-4,0h-2v1h2v-1Zm-4,0h-2v1h2v-1Zm-4,0h-2v1h2v-1Zm-4,0h-2v1h2v-1Zm-4,0h-2v1h2v-1Zm-4,0h-2v1h2v-1Zm-4,0h-2v1h2v-1Zm-4,0h-2v1h2v-1Zm-4,0h-2v1h2v-1Zm-4,0h-2v1h2v-1Zm-4,0h-2v1h2v-1Zm-4,0h-2v1h2v-1Zm-4,0h-2v1h2v-1Zm-4,0h-2v1h2v-1Zm-4,0h-2v1h2v-1Zm-4,0h-2v1h2v-1Zm-4,0h-2v1h2v-1Zm-4,0h-2v1h2v-1Zm-4,0h-2v1h2v-1Zm-4,0h-2v1h2v-1Zm-4,0h-2v1h2v-1Zm-4,0h-2v1h2v-1Zm-4,0h-2v1h2v-1Zm-4,0h-2v1h2v-1Zm-4,0h-2v1h2v-1Zm-4,0h-2v1h2v-1Zm-4,0h-2v1h2v-1Zm-4,0h-2v1h2v-1Zm-4,0h-2v1h2v-1Zm-4,0h-2v1h2v-1Zm-4,0h-2v1h2v-1Zm-4,0h-2v1h2v-1Zm-4,0h-2v1h2v-1Zm-4,0h-2v1h2v-1Zm-4,0h-2v1h2v-1Zm-4,0h-2v1h2v-1Zm-4,0h-2v1h2v-1Zm-4,0h-2v1h2v-1Zm-4,0h-2v1h2v-1Zm-4,0h-2v1h2v-1Zm-4,0h-2v1h2v-1Zm-4,0h-2v1h2v-1Zm-4,0h-2v1h2v-1Zm-4,0h-2v1h2v-1Zm-4,0h-2v1h2v-1Zm-4,0h-2v1h2v-1Zm-4,0h-2v1h2v-1Zm-4,0h-2v1h2v-1Zm-4,0h-2v1h2v-1Zm-4,0h-2v1h2v-1Zm-4,0h-2v1h2v-1Zm-4,0h-2v1h2v-1Zm-4,0h-2v1h2v-1Zm-4,0h-2v1h2v-1Zm-4,0h-2v1h2v-1Zm-4,0h-2v1h2v-1Zm-4,0h-2v1h2v-1Zm-4,0h-2v1h2v-1Zm-4,0h-2v1h2v-1Zm-4,0h-2v1h2v-1Zm-4,0h-2v1h2v-1Zm-4,0h-2v1h2v-1Zm-4,0h-2v1h2v-1Zm-4,0h-2v1h2v-1ZM136,180h-1v1h0v.56h1V180Zm0,3.56h-1v2h1v-2Zm0,4h-1v2h1v-2Zm0,4h-1v2h1v-2Zm0,4h-1v2h1v-2Zm0,4h-1v2h1v-2Zm0,4h-1v2h1v-2Zm0,4h-1v2h1v-2Zm0,4h-1v2h1v-2Zm0,4h-1v2h1v-2Zm0,4h-1v2h1v-2Zm0,4h-1v2h1v-2Zm0,4h-1v2h1v-2Zm.18,3.82H135v.18h0v0h0v.82h1.18v-1Zm4,0h-2v1h2v-1Zm4,0h-2v1h2v-1Zm4,0h-2v1h2v-1Zm4,0h-2v1h2v-1Zm4,0h-2v1h2v-1Zm4,0h-2v1h2v-1Zm4,0h-2v1h2v-1Zm4,0h-2v1h2v-1Zm4,0h-2v1h2v-1Zm4,0h-2v1h2v-1Zm4,0h-2v1h2v-1Zm4,0h-2v1h2v-1Zm4,0h-2v1h2v-1Zm4,0h-2v1h2v-1Zm4,0h-2v1h2v-1Zm4,0h-2v1h2v-1Zm4,0h-2v1h2v-1Zm4,0h-2v1h2v-1Zm4,0h-2v1h2v-1Zm4,0h-2v1h2v-1Zm4,0h-2v1h2v-1Zm4,0h-2v1h2v-1Zm4,0h-2v1h2v-1Zm4,0h-2v1h2v-1Zm4,0h-2v1h2v-1Zm4,0h-2v1h2v-1Zm4,0h-2v1h2v-1Zm4,0h-2v1h2v-1Zm4,0h-2v1h2v-1Zm4,0h-2v1h2v-1Zm4,0h-2v1h2v-1Zm4,0h-2v1h2v-1Zm4,0h-2v1h2v-1Zm4,0h-2v1h2v-1Zm4,0h-2v1h2v-1Zm4,0h-2v1h2v-1Zm4,0h-2v1h2v-1Zm4,0h-2v1h2v-1Zm4,0h-2v1h2v-1Zm4,0h-2v1h2v-1Zm4,0h-2v1h2v-1Zm4,0h-2v1h2v-1Zm4,0h-2v1h2v-1Zm4,0h-2v1h2v-1Zm4,0h-2v1h2v-1Zm4,0h-2v1h2v-1Zm4,0h-2v1h2v-1Zm4,0h-2v1h2v-1Zm4,0h-2v1h2v-1Zm4,0h-2v1h2v-1Zm4,0h-2v1h2v-1Zm4,0h-2v1h2v-1Zm4,0h-2v1h2v-1Zm4,0h-2v1h2v-1Zm4,0h-2v1h2v-1Zm4,0h-2v1h2v-1Zm4,0h-2v1h2v-1Zm4,0h-2v1h2v-1Zm4,0h-2v1h2v-1Zm4,0h-2v1h2v-1Zm4,0h-2v1h2v-1Zm4,0h-2v1h2v-1Zm4,0h-2v1h2v-1Zm4,0h-2v1h2v-1Zm4,0h-2v1h2v-1Zm4,0h-2v1h2v-1Zm4,0h-2v1h2v-1Zm4,0h-2v1h2v-1Zm4,0h-2v1h2v-1Zm4,0h-2v1h2v-1Zm4,0h-2v1h2v-1Zm4,0h-2v1h2v-1Zm3.26,0h-1.26v1h1.26v-1Zm0-3.74h-1v2h1v-2Zm0-4h-1v2h1v-2Zm0-4h-1v2h1v-2Zm0-4h-1v2h1v-2Zm0-4h-1v2h1v-2Zm0-4h-1v2h1v-2Zm0-4h-1v2h1v-2Zm0-4h-1v2h1v-2Zm0-4h-1v2h1v-2Zm0-4h-1v2h1v-2Zm0-4h-1v2h1v-2Zm0-4h-1v2h1v-2Zm0-3.64h-2v1h1v.64h1V180Z"/><path class="cls-3" d="M163.33,199.13h4.41l.38,1.45h.13a6.8,6.8,0,0,1,4.41-1.83c3.81,0,6.24,3.15,6.24,8,0,5.42-3.28,8.51-6.71,8.51a4.93,4.93,0,0,1-3.56-1.58h-.13l.25,2.4v4.35h-5.42Zm10,7.68c0-2.58-.79-3.65-2.33-3.65a2.93,2.93,0,0,0-2.27,1.13v5.8a3.18,3.18,0,0,0,2.14.76C172.22,210.85,173.35,209.84,173.35,206.81Z"/><path class="cls-3" d="M181.54,207a8.13,8.13,0,1,1,8.13,8.26A8,8,0,0,1,181.54,207Zm10.72,0c0-2.39-.76-3.9-2.59-3.9s-2.58,1.51-2.58,3.9.76,3.91,2.58,3.91S192.26,209.4,192.26,207Z"/><path class="cls-3" d="M200.57,212.86l2.27-3.34a12.36,12.36,0,0,0,6.18,1.77c1.38,0,1.95-.38,1.95-.95,0-.75-.82-.88-3.47-1.45-4.34-.94-5.92-2.58-5.92-5,0-3.08,2.93-5.1,7.5-5.1a13.16,13.16,0,0,1,7,2.2l-2.4,3.22a10.44,10.44,0,0,0-5.1-1.45c-1,0-1.64.31-1.64.88s.82.76,3.27,1.32c4.73,1.08,6.12,2.49,6.12,5.11,0,3-2.81,5.23-8.07,5.23A14.93,14.93,0,0,1,200.57,212.86Z"/><path class="cls-3" d="M223.13,208.2v-4.85h-3.78v-4l4-.19.7-4.73h4.47v4.73h6.24v4.22h-6.24v4.76c0,2.23,1,2.93,3.06,2.93a8.68,8.68,0,0,0,2.86-.51l.95,3.91a18.92,18.92,0,0,1-5.23.82C225,215.26,223.13,212.42,223.13,208.2Z"/><path class="cls-3" d="M239,202.59h14.87v3.78H239Z"/><path class="cls-3" d="M264.15,203.35h-6v-4.22h11.4v15.75h-5.42Zm-.94-9.52a3.48,3.48,0,0,1,6.93,0,3.48,3.48,0,0,1-6.93,0Z"/><path class="cls-3" d="M279.84,208.2v-4.85h-3.78v-4l4-.19.69-4.73h4.47v4.73h6.24v4.22h-6.24v4.76c0,2.23,1,2.93,3.06,2.93a8.79,8.79,0,0,0,2.87-.51l.94,3.91a18.86,18.86,0,0,1-5.23.82C281.73,215.26,279.84,212.42,279.84,208.2Z"/><path class="cls-3" d="M295.22,207a8.08,8.08,0,0,1,8.25-8.25c5,0,7.5,3.4,7.5,7.62a13.46,13.46,0,0,1-.22,2.27H299.31v-3.53H307l-.75.95c0-2.08-.82-3.22-2.59-3.22-2.08,0-3.21,1.33-3.21,4.16s1.45,4.16,4.35,4.16a8.8,8.8,0,0,0,3.78-.94l1.76,3.21a12.48,12.48,0,0,1-6.3,1.83C299.06,215.26,295.22,212.23,295.22,207Z"/><path class="cls-3" d="M313.37,199.13h4l.38,1.89h.12a3.45,3.45,0,0,1,3.34-2.27c1.3,0,2.3.88,2.65,2.52a3.54,3.54,0,0,1,3.4-2.52c2.27,0,3.53,2,3.53,5.17v11h-5.1V204.29c0-.66-.13-.94-.54-.94s-.75.38-1,1.2v10.33H320V204.29c0-.66-.21-.94-.62-.94s-.67.38-.95,1.2v10.33h-5.1Z"/><path class="cls-4" d="M147.85,353.75h4.47l-10.4,27.41h-4.47Z"/><path class="cls-4" d="M166.75,353.75h4.47l-10.39,27.41h-4.48Z"/><path class="cls-4" d="M197.25,369.44v-4.85h-3.78v-4l4-.19.69-4.72h4.48v4.72h6.24v4.23h-6.24v4.76c0,2.23,1,2.93,3.05,2.93a9.06,9.06,0,0,0,2.87-.51l.95,3.91a18.92,18.92,0,0,1-5.23.82C199.14,376.5,197.25,373.66,197.25,369.44Z"/><path class="cls-4" d="M213.06,354.19h5.42v5.1l-.31,2.78h.12a6.93,6.93,0,0,1,5-2.08c3.47,0,5,2.52,5,6.42v9.71h-5.42v-9c0-1.77-.44-2.52-1.83-2.52a3.56,3.56,0,0,0-2.52,1.19v10.34h-5.42Z"/><path class="cls-4" d="M231.71,370.07v-9.71h5.42v9c0,1.76.38,2.52,1.8,2.52a2.59,2.59,0,0,0,2.36-1.39V360.36h5.42v15.76H242.3l-.38-2.08h-.12a6.48,6.48,0,0,1-5.11,2.46C233.16,376.5,231.71,374,231.71,370.07Z"/><path class="cls-4" d="M249.67,360.36h4l.37,1.9h.13a3.43,3.43,0,0,1,3.34-2.27c1.29,0,2.3.88,2.65,2.52a3.52,3.52,0,0,1,3.4-2.52c2.27,0,3.53,2,3.53,5.16v11H262V365.53c0-.66-.13-.94-.54-.94s-.76.38-1,1.19v10.34h-4.1V365.53c0-.66-.22-.94-.63-.94s-.66.38-.94,1.19v10.34h-5.11Z"/><path class="cls-4" d="M274.56,374.42h-.12l-.44,1.7h-4.22V354.19h5.41v5.1l-.18,2.27h.12a5.82,5.82,0,0,1,3.94-1.57c3.81,0,6.27,3.15,6.27,8,0,5.45-3.28,8.54-6.71,8.54A5.51,5.51,0,0,1,274.56,374.42Zm5.23-6.37c0-2.58-.78-3.65-2.33-3.65a2.9,2.9,0,0,0-2.27,1.13v5.8a3.21,3.21,0,0,0,2.15.76C278.66,372.09,279.79,371.08,279.79,368.05Z"/><path class="cls-4" d="M288.68,360.36h4.41l.38,1.9h.12a7.51,7.51,0,0,1,5.27-2.27c3.49,0,5,2.52,5,6.42v9.71h-5.42v-9c0-1.77-.44-2.52-1.83-2.52a3.55,3.55,0,0,0-2.52,1.19v10.34h-5.42Z"/><path class="cls-4" d="M307.27,371.65c0-3.53,2.77-5.36,10-5.74-.18-1.13-1.26-1.64-3-1.64a10.71,10.71,0,0,0-4.54,1.33l-1.89-3.53a15.23,15.23,0,0,1,7.5-2.08c4.48,0,7.37,2.2,7.37,7.37v8.76h-4.41l-.38-1.64h-.12a9.26,9.26,0,0,1-5.36,2A4.76,4.76,0,0,1,307.27,371.65Zm10-.51v-2c-3.84.13-4.78,1-4.78,2.08,0,.73.56,1.14,1.7,1.14A5.08,5.08,0,0,0,317.22,371.14Z"/><path class="cls-4" d="M332.79,364.59h-6v-4.23h11.41v15.76h-5.42Zm-1-9.52a3.48,3.48,0,0,1,6.94,0,3.49,3.49,0,0,1-6.94,0Z"/><path class="cls-4" d="M349.36,369.63V358.41h-4.73v-4.22h10.15v15.63a2.14,2.14,0,0,0,2.36,2.33,6.92,6.92,0,0,0,2.27-.44l1.17,4a15,15,0,0,1-4.89.82C351.5,376.5,349.36,373.73,349.36,369.63Z"/><rect class="cls-1" x="92.39" y="460.84" width="369.11" height="91.66"/><path d="M461,461.34V552H92.89V461.34H461m1-1H91.89V553H462V460.34Z"/><rect class="cls-2" x="128.69" y="448.79" width="292.44" height="52.38"/><path class="cls-1" d="M417.13,448.79h-2v1h2v-1Zm-4,0h-2v1h2v-1Zm-4,0h-2v1h2v-1Zm-4,0h-2v1h2v-1Zm-4,0h-2v1h2v-1Zm-4,0h-2v1h2v-1Zm-4,0h-2v1h2v-1Zm-4,0h-2v1h2v-1Zm-4,0h-2v1h2v-1Zm-4,0h-2v1h2v-1Zm-4,0h-2v1h2v-1Zm-4,0h-2v1h2v-1Zm-4,0h-2v1h2v-1Zm-4,0h-2v1h2v-1Zm-4,0h-2v1h2v-1Zm-4,0h-2v1h2v-1Zm-4,0h-2v1h2v-1Zm-4,0h-2v1h2v-1Zm-4,0h-2v1h2v-1Zm-4,0h-2v1h2v-1Zm-4,0h-2v1h2v-1Zm-4,0h-2v1h2v-1Zm-4,0h-2v1h2v-1Zm-4,0h-2v1h2v-1Zm-4,0h-2v1h2v-1Zm-4,0h-2v1h2v-1Zm-4,0h-2v1h2v-1Zm-4,0h-2v1h2v-1Zm-4,0h-2v1h2v-1Zm-4,0h-2v1h2v-1Zm-4,0h-2v1h2v-1Zm-4,0h-2v1h2v-1Zm-4,0h-2v1h2v-1Zm-4,0h-2v1h2v-1Zm-4,0h-2v1h2v-1Zm-4,0h-2v1h2v-1Zm-4,0h-2v1h2v-1Zm-4,0h-2v1h2v-1Zm-4,0h-2v1h2v-1Zm-4,0h-2v1h2v-1Zm-4,0h-2v1h2v-1Zm-4,0h-2v1h2v-1Zm-4,0h-2v1h2v-1Zm-4,0h-2v1h2v-1Zm-4,0h-2v1h2v-1Zm-4,0h-2v1h2v-1Zm-4,0h-2v1h2v-1Zm-4,0h-2v1h2v-1Zm-4,0h-2v1h2v-1Zm-4,0h-2v1h2v-1Zm-4,0h-2v1h2v-1Zm-4,0h-2v1h2v-1Zm-4,0h-2v1h2v-1Zm-4,0h-2v1h2v-1Zm-4,0h-2v1h2v-1Zm-4,0h-2v1h2v-1Zm-4,0h-2v1h2v-1Zm-4,0h-2v1h2v-1Zm-4,0h-2v1h2v-1Zm-4,0h-2v1h2v-1Zm-4,0h-2v1h2v-1Zm-4,0h-2v1h2v-1Zm-4,0h-2v1h2v-1Zm-4,0h-2v1h2v-1Zm-4,0h-2v1h2v-1Zm-4,0h-2v1h2v-1Zm-4,0h-2v1h2v-1Zm-4,0h-2v1h2v-1Zm-4,0h-2v1h2v-1Zm-4,0h-2v1h2v-1Zm-4,0h-2v1h2v-1Zm-4,0h-2v1h2v-1Zm-3.44,0h-1v1h0v.55h1v-1.55Zm0,3.55h-1v2h1v-2Zm0,4h-1v2h1v-2Zm0,4h-1v2h1v-2Zm0,4h-1v2h1v-2Zm0,4h-1v2h1v-2Zm0,4h-1v2h1v-2Zm0,4h-1v2h1v-2Zm0,4h-1v2h1v-2Zm0,4h-1v2h1v-2Zm0,4h-1v2h1v-2Zm0,4h-1v2h1v-2Zm0,4h-1v2h1v-2Zm.18,3.82h-1.18v.18h0v0h0v.82h1.18v-1Zm4,0h-2v1h2v-1Zm4,0h-2v1h2v-1Zm4,0h-2v1h2v-1Zm4,0h-2v1h2v-1Zm4,0h-2v1h2v-1Zm4,0h-2v1h2v-1Zm4,0h-2v1h2v-1Zm4,0h-2v1h2v-1Zm4,0h-2v1h2v-1Zm4,0h-2v1h2v-1Zm4,0h-2v1h2v-1Zm4,0h-2v1h2v-1Zm4,0h-2v1h2v-1Zm4,0h-2v1h2v-1Zm4,0h-2v1h2v-1Zm4,0h-2v1h2v-1Zm4,0h-2v1h2v-1Zm4,0h-2v1h2v-1Zm4,0h-2v1h2v-1Zm4,0h-2v1h2v-1Zm4,0h-2v1h2v-1Zm4,0h-2v1h2v-1Zm4,0h-2v1h2v-1Zm4,0h-2v1h2v-1Zm4,0h-2v1h2v-1Zm4,0h-2v1h2v-1Zm4,0h-2v1h2v-1Zm4,0h-2v1h2v-1Zm4,0h-2v1h2v-1Zm4,0h-2v1h2v-1Zm4,0h-2v1h2v-1Zm4,0h-2v1h2v-1Zm4,0h-2v1h2v-1Zm4,0h-2v1h2v-1Zm4,0h-2v1h2v-1Zm4,0h-2v1h2v-1Zm4,0h-2v1h2v-1Zm4,0h-2v1h2v-1Zm4,0h-2v1h2v-1Zm4,0h-2v1h2v-1Zm4,0h-2v1h2v-1Zm4,0h-2v1h2v-1Zm4,0h-2v1h2v-1Zm4,0h-2v1h2v-1Zm4,0h-2v1h2v-1Zm4,0h-2v1h2v-1Zm4,0h-2v1h2v-1Zm4,0h-2v1h2v-1Zm4,0h-2v1h2v-1Zm4,0h-2v1h2v-1Zm4,0h-2v1h2v-1Zm4,0h-2v1h2v-1Zm4,0h-2v1h2v-1Zm4,0h-2v1h2v-1Zm4,0h-2v1h2v-1Zm4,0h-2v1h2v-1Zm4,0h-2v1h2v-1Zm4,0h-2v1h2v-1Zm4,0h-2v1h2v-1Zm4,0h-2v1h2v-1Zm4,0h-2v1h2v-1Zm4,0h-2v1h2v-1Zm4,0h-2v1h2v-1Zm4,0h-2v1h2v-1Zm4,0h-2v1h2v-1Zm4,0h-2v1h2v-1Zm4,0h-2v1h2v-1Zm4,0h-2v1h2v-1Zm4,0h-2v1h2v-1Zm4,0h-2v1h2v-1Zm4,0h-2v1h2v-1Zm4,0h-2v1h2v-1Zm3.26,0h-1.26v1h1.26v-1Zm0-3.73h-1v2h1v-2Zm0-4h-1v2h1v-2Zm0-4h-1v2h1v-2Zm0-4h-1v2h1v-2Zm0-4h-1v2h1v-2Zm0-4h-1v2h1v-2Zm0-4h-1v2h1v-2Zm0-4h-1v2h1v-2Zm0-4h-1v2h1v-2Zm0-4h-1v2h1v-2Zm0-4h-1v2h1v-2Zm0-4h-1v2h1v-2Zm0-3.64h-2v1h1v.64h1v-1.64Z"/><path class="cls-3" d="M157.06,467.91h4.41l.38,1.45H162a6.87,6.87,0,0,1,4.41-1.83c3.82,0,6.24,3.16,6.24,8,0,5.42-3.27,8.51-6.71,8.51a5,5,0,0,1-3.56-1.58h-.12l.25,2.39v4.35h-5.42Zm10,7.69c0-2.58-.79-3.65-2.33-3.65a2.88,2.88,0,0,0-2.27,1.13v5.8a3.22,3.22,0,0,0,2.14.75C165.94,479.63,167.08,478.63,167.08,475.6Z"/><path class="cls-3" d="M175.27,475.79a8.13,8.13,0,1,1,8.13,8.26A8,8,0,0,1,175.27,475.79Zm10.71,0c0-2.39-.75-3.91-2.58-3.91s-2.59,1.52-2.59,3.91.76,3.91,2.59,3.91S186,478.19,186,475.79Z"/><path class="cls-3" d="M194.3,481.65l2.27-3.34a12.32,12.32,0,0,0,6.17,1.77c1.39,0,2-.38,2-.95,0-.76-.82-.88-3.47-1.45-4.35-.94-5.92-2.58-5.92-5,0-3.09,2.93-5.11,7.5-5.11a13.13,13.13,0,0,1,7,2.21L207.41,473a10.56,10.56,0,0,0-5.11-1.45c-1,0-1.64.32-1.64.89s.82.75,3.28,1.32c4.73,1.07,6.11,2.49,6.11,5.1,0,3-2.8,5.24-8.06,5.24A15,15,0,0,1,194.3,481.65Z"/><path class="cls-3" d="M216.86,477v-4.85h-3.78v-4l4-.19.69-4.72h4.48v4.72h6.24v4.23h-6.24v4.75c0,2.24,1,2.93,3.05,2.93a9,9,0,0,0,2.87-.5l1,3.91a19.3,19.3,0,0,1-5.23.82C218.75,484.05,216.86,481.21,216.86,477Z"/><path class="cls-3" d="M232.67,471.38h14.88v3.78H232.67Z"/><path class="cls-3" d="M254.67,477v-4.85h-3.79v-4l4-.19.69-4.72h4.47v4.72h6.24v4.23h-6.24v4.75c0,2.24,1.05,2.93,3.06,2.93a9.06,9.06,0,0,0,2.87-.5l.94,3.91a19.17,19.17,0,0,1-5.23.82C256.56,484.05,254.67,481.21,254.67,477Z"/><path class="cls-3" d="M276.78,472.14h-6v-4.23h11.4v15.76h-5.42Zm-.94-9.52a3.47,3.47,0,0,1,6.93,0,3.48,3.48,0,0,1-6.93,0Z"/><path class="cls-3" d="M292.47,477v-4.85h-3.78v-4l4-.19.7-4.72h4.47v4.72h6.24v4.23h-6.24v4.75c0,2.24,1,2.93,3.06,2.93a9.06,9.06,0,0,0,2.87-.5l.94,3.91a19.24,19.24,0,0,1-5.23.82C294.36,484.05,292.47,481.21,292.47,477Z"/><path class="cls-3" d="M312.26,477.18V466h-4.73v-4.22h10.15v15.63A2.15,2.15,0,0,0,320,479.7a6.92,6.92,0,0,0,2.27-.44l1.17,4a15,15,0,0,1-4.89.82C314.4,484.05,312.26,481.27,312.26,477.18Z"/><path class="cls-3" d="M326.75,475.79a8.09,8.09,0,0,1,8.26-8.26c5,0,7.5,3.41,7.5,7.63a14.76,14.76,0,0,1-.22,2.27H330.85V473.9h7.69l-.76,1c0-2.08-.82-3.22-2.58-3.22-2.08,0-3.22,1.32-3.22,4.16s1.45,4.16,4.35,4.16a8.82,8.82,0,0,0,3.78-.95l1.77,3.22a12.49,12.49,0,0,1-6.31,1.83C330.6,484.05,326.75,481,326.75,475.79Z"/><path class="cls-4" d="M146.49,511.09H151l-10.39,27.42h-4.48Z"/><path class="cls-4" d="M165.39,511.09h4.48l-10.4,27.42H155Z"/><path class="cls-4" d="M195.89,526.78v-4.85h-3.78v-4l4-.19.7-4.73h4.47v4.73h6.24v4.22h-6.24v4.76c0,2.24,1,2.93,3.06,2.93a9,9,0,0,0,2.86-.5l1,3.9a18.92,18.92,0,0,1-5.23.82C197.78,533.84,195.89,531,195.89,526.78Z"/><path class="cls-4" d="M218,521.93h-6v-4.22h11.41v15.75H218Zm-.95-9.51a3.48,3.48,0,0,1,6.94,0,3.49,3.49,0,0,1-6.94,0Z"/><path class="cls-4" d="M233.7,526.78v-4.85h-3.78v-4l4-.19.69-4.73h4.48v4.73h6.24v4.22h-6.24v4.76c0,2.24,1,2.93,3.06,2.93a9,9,0,0,0,2.86-.5l1,3.9a18.92,18.92,0,0,1-5.23.82C235.59,533.84,233.7,531,233.7,526.78Z"/><path class="cls-4" d="M253.49,527V515.76h-4.73v-4.23H258.9v15.63a2.15,2.15,0,0,0,2.37,2.33,6.71,6.71,0,0,0,2.27-.44l1.16,4a14.63,14.63,0,0,1-4.88.82C255.63,533.84,253.49,531.07,253.49,527Z"/><path class="cls-4" d="M268,525.59a8.08,8.08,0,0,1,8.25-8.26c5,0,7.5,3.4,7.5,7.63a13.58,13.58,0,0,1-.22,2.27H272.07V523.7h7.69l-.75.94c0-2.08-.82-3.21-2.59-3.21-2.08,0-3.21,1.32-3.21,4.16s1.45,4.16,4.35,4.16a8.82,8.82,0,0,0,3.78-1L283.1,532a12.56,12.56,0,0,1-6.3,1.82C271.82,533.84,268,530.82,268,525.59Z"/><rect class="cls-3" x="516.39" y="186.19" width="369.61" height="366.81"/><rect class="cls-5" x="558.96" y="180" width="292.44" height="52.38"/><path d="M847.4,180h-2v1h2v-1Zm-4,0h-2v1h2v-1Zm-4,0h-2v1h2v-1Zm-4,0h-2v1h2v-1Zm-4,0h-2v1h2v-1Zm-4,0h-2v1h2v-1Zm-4,0h-2v1h2v-1Zm-4,0h-2v1h2v-1Zm-4,0h-2v1h2v-1Zm-4,0h-2v1h2v-1Zm-4,0h-2v1h2v-1Zm-4,0h-2v1h2v-1Zm-4,0h-2v1h2v-1Zm-4,0h-2v1h2v-1Zm-4,0h-2v1h2v-1Zm-4,0h-2v1h2v-1Zm-4,0h-2v1h2v-1Zm-4,0h-2v1h2v-1Zm-4,0h-2v1h2v-1Zm-4,0h-2v1h2v-1Zm-4,0h-2v1h2v-1Zm-4,0h-2v1h2v-1Zm-4,0h-2v1h2v-1Zm-4,0h-2v1h2v-1Zm-4,0h-2v1h2v-1Zm-4,0h-2v1h2v-1Zm-4,0h-2v1h2v-1Zm-4,0h-2v1h2v-1Zm-4,0h-2v1h2v-1Zm-4,0h-2v1h2v-1Zm-4,0h-2v1h2v-1Zm-4,0h-2v1h2v-1Zm-4,0h-2v1h2v-1Zm-4,0h-2v1h2v-1Zm-4,0h-2v1h2v-1Zm-4,0h-2v1h2v-1Zm-4,0h-2v1h2v-1Zm-4,0h-2v1h2v-1Zm-4,0h-2v1h2v-1Zm-4,0h-2v1h2v-1Zm-4,0h-2v1h2v-1Zm-4,0h-2v1h2v-1Zm-4,0h-2v1h2v-1Zm-4,0h-2v1h2v-1Zm-4,0h-2v1h2v-1Zm-4,0h-2v1h2v-1Zm-4,0h-2v1h2v-1Zm-4,0h-2v1h2v-1Zm-4,0h-2v1h2v-1Zm-4,0h-2v1h2v-1Zm-4,0h-2v1h2v-1Zm-4,0h-2v1h2v-1Zm-4,0h-2v1h2v-1Zm-4,0h-2v1h2v-1Zm-4,0h-2v1h2v-1Zm-4,0h-2v1h2v-1Zm-4,0h-2v1h2v-1Zm-4,0h-2v1h2v-1Zm-4,0h-2v1h2v-1Zm-4,0h-2v1h2v-1Zm-4,0h-2v1h2v-1Zm-4,0h-2v1h2v-1Zm-4,0h-2v1h2v-1Zm-4,0h-2v1h2v-1Zm-4,0h-2v1h2v-1Zm-4,0h-2v1h2v-1Zm-4,0h-2v1h2v-1Zm-4,0h-2v1h2v-1Zm-4,0h-2v1h2v-1Zm-4,0h-2v1h2v-1Zm-4,0h-2v1h2v-1Zm-4,0h-2v1h2v-1ZM560,180h-1v1h0v.56h1V180Zm0,3.56h-1v2h1v-2Zm0,4h-1v2h1v-2Zm0,4h-1v2h1v-2Zm0,4h-1v2h1v-2Zm0,4h-1v2h1v-2Zm0,4h-1v2h1v-2Zm0,4h-1v2h1v-2Zm0,4h-1v2h1v-2Zm0,4h-1v2h1v-2Zm0,4h-1v2h1v-2Zm0,4h-1v2h1v-2Zm0,4h-1v2h1v-2Zm.18,3.82H559v.18h0v0h0v.82h1.18v-1Zm4,0h-2v1h2v-1Zm4,0h-2v1h2v-1Zm4,0h-2v1h2v-1Zm4,0h-2v1h2v-1Zm4,0h-2v1h2v-1Zm4,0h-2v1h2v-1Zm4,0h-2v1h2v-1Zm4,0h-2v1h2v-1Zm4,0h-2v1h2v-1Zm4,0h-2v1h2v-1Zm4,0h-2v1h2v-1Zm4,0h-2v1h2v-1Zm4,0h-2v1h2v-1Zm4,0h-2v1h2v-1Zm4,0h-2v1h2v-1Zm4,0h-2v1h2v-1Zm4,0h-2v1h2v-1Zm4,0h-2v1h2v-1Zm4,0h-2v1h2v-1Zm4,0h-2v1h2v-1Zm4,0h-2v1h2v-1Zm4,0h-2v1h2v-1Zm4,0h-2v1h2v-1Zm4,0h-2v1h2v-1Zm4,0h-2v1h2v-1Zm4,0h-2v1h2v-1Zm4,0h-2v1h2v-1Zm4,0h-2v1h2v-1Zm4,0h-2v1h2v-1Zm4,0h-2v1h2v-1Zm4,0h-2v1h2v-1Zm4,0h-2v1h2v-1Zm4,0h-2v1h2v-1Zm4,0h-2v1h2v-1Zm4,0h-2v1h2v-1Zm4,0h-2v1h2v-1Zm4,0h-2v1h2v-1Zm4,0h-2v1h2v-1Zm4,0h-2v1h2v-1Zm4,0h-2v1h2v-1Zm4,0h-2v1h2v-1Zm4,0h-2v1h2v-1Zm4,0h-2v1h2v-1Zm4,0h-2v1h2v-1Zm4,0h-2v1h2v-1Zm4,0h-2v1h2v-1Zm4,0h-2v1h2v-1Zm4,0h-2v1h2v-1Zm4,0h-2v1h2v-1Zm4,0h-2v1h2v-1Zm4,0h-2v1h2v-1Zm4,0h-2v1h2v-1Zm4,0h-2v1h2v-1Zm4,0h-2v1h2v-1Zm4,0h-2v1h2v-1Zm4,0h-2v1h2v-1Zm4,0h-2v1h2v-1Zm4,0h-2v1h2v-1Zm4,0h-2v1h2v-1Zm4,0h-2v1h2v-1Zm4,0h-2v1h2v-1Zm4,0h-2v1h2v-1Zm4,0h-2v1h2v-1Zm4,0h-2v1h2v-1Zm4,0h-2v1h2v-1Zm4,0h-2v1h2v-1Zm4,0h-2v1h2v-1Zm4,0h-2v1h2v-1Zm4,0h-2v1h2v-1Zm4,0h-2v1h2v-1Zm4,0h-2v1h2v-1Zm4,0h-2v1h2v-1Zm3.26,0h-1.26v1h1.26v-1Zm0-3.74h-1v2h1v-2Zm0-4h-1v2h1v-2Zm0-4h-1v2h1v-2Zm0-4h-1v2h1v-2Zm0-4h-1v2h1v-2Zm0-4h-1v2h1v-2Zm0-4h-1v2h1v-2Zm0-4h-1v2h1v-2Zm0-4h-1v2h1v-2Zm0-4h-1v2h1v-2Zm0-4h-1v2h1v-2Zm0-4h-1v2h1v-2Zm0-3.64h-2v1h1v.64h1V180Z"/><rect class="cls-3" x="516.39" y="579.19" width="369.61" height="366.81"/><rect class="cls-5" x="558.96" y="573" width="292.44" height="52.38"/><path d="M847.4,573h-2v1h2v-1Zm-4,0h-2v1h2v-1Zm-4,0h-2v1h2v-1Zm-4,0h-2v1h2v-1Zm-4,0h-2v1h2v-1Zm-4,0h-2v1h2v-1Zm-4,0h-2v1h2v-1Zm-4,0h-2v1h2v-1Zm-4,0h-2v1h2v-1Zm-4,0h-2v1h2v-1Zm-4,0h-2v1h2v-1Zm-4,0h-2v1h2v-1Zm-4,0h-2v1h2v-1Zm-4,0h-2v1h2v-1Zm-4,0h-2v1h2v-1Zm-4,0h-2v1h2v-1Zm-4,0h-2v1h2v-1Zm-4,0h-2v1h2v-1Zm-4,0h-2v1h2v-1Zm-4,0h-2v1h2v-1Zm-4,0h-2v1h2v-1Zm-4,0h-2v1h2v-1Zm-4,0h-2v1h2v-1Zm-4,0h-2v1h2v-1Zm-4,0h-2v1h2v-1Zm-4,0h-2v1h2v-1Zm-4,0h-2v1h2v-1Zm-4,0h-2v1h2v-1Zm-4,0h-2v1h2v-1Zm-4,0h-2v1h2v-1Zm-4,0h-2v1h2v-1Zm-4,0h-2v1h2v-1Zm-4,0h-2v1h2v-1Zm-4,0h-2v1h2v-1Zm-4,0h-2v1h2v-1Zm-4,0h-2v1h2v-1Zm-4,0h-2v1h2v-1Zm-4,0h-2v1h2v-1Zm-4,0h-2v1h2v-1Zm-4,0h-2v1h2v-1Zm-4,0h-2v1h2v-1Zm-4,0h-2v1h2v-1Zm-4,0h-2v1h2v-1Zm-4,0h-2v1h2v-1Zm-4,0h-2v1h2v-1Zm-4,0h-2v1h2v-1Zm-4,0h-2v1h2v-1Zm-4,0h-2v1h2v-1Zm-4,0h-2v1h2v-1Zm-4,0h-2v1h2v-1Zm-4,0h-2v1h2v-1Zm-4,0h-2v1h2v-1Zm-4,0h-2v1h2v-1Zm-4,0h-2v1h2v-1Zm-4,0h-2v1h2v-1Zm-4,0h-2v1h2v-1Zm-4,0h-2v1h2v-1Zm-4,0h-2v1h2v-1Zm-4,0h-2v1h2v-1Zm-4,0h-2v1h2v-1Zm-4,0h-2v1h2v-1Zm-4,0h-2v1h2v-1Zm-4,0h-2v1h2v-1Zm-4,0h-2v1h2v-1Zm-4,0h-2v1h2v-1Zm-4,0h-2v1h2v-1Zm-4,0h-2v1h2v-1Zm-4,0h-2v1h2v-1Zm-4,0h-2v1h2v-1Zm-4,0h-2v1h2v-1Zm-4,0h-2v1h2v-1Zm-4,0h-2v1h2v-1ZM560,573h-1v1h0v.56h1V573Zm0,3.56h-1v2h1v-2Zm0,4h-1v2h1v-2Zm0,4h-1v2h1v-2Zm0,4h-1v2h1v-2Zm0,4h-1v2h1v-2Zm0,4h-1v2h1v-2Zm0,4h-1v2h1v-2Zm0,4h-1v2h1v-2Zm0,4h-1v2h1v-2Zm0,4h-1v2h1v-2Zm0,4h-1v2h1v-2Zm0,4h-1v2h1v-2Zm.18,3.82H559v.18h0v0h0v.82h1.18v-1Zm4,0h-2v1h2v-1Zm4,0h-2v1h2v-1Zm4,0h-2v1h2v-1Zm4,0h-2v1h2v-1Zm4,0h-2v1h2v-1Zm4,0h-2v1h2v-1Zm4,0h-2v1h2v-1Zm4,0h-2v1h2v-1Zm4,0h-2v1h2v-1Zm4,0h-2v1h2v-1Zm4,0h-2v1h2v-1Zm4,0h-2v1h2v-1Zm4,0h-2v1h2v-1Zm4,0h-2v1h2v-1Zm4,0h-2v1h2v-1Zm4,0h-2v1h2v-1Zm4,0h-2v1h2v-1Zm4,0h-2v1h2v-1Zm4,0h-2v1h2v-1Zm4,0h-2v1h2v-1Zm4,0h-2v1h2v-1Zm4,0h-2v1h2v-1Zm4,0h-2v1h2v-1Zm4,0h-2v1h2v-1Zm4,0h-2v1h2v-1Zm4,0h-2v1h2v-1Zm4,0h-2v1h2v-1Zm4,0h-2v1h2v-1Zm4,0h-2v1h2v-1Zm4,0h-2v1h2v-1Zm4,0h-2v1h2v-1Zm4,0h-2v1h2v-1Zm4,0h-2v1h2v-1Zm4,0h-2v1h2v-1Zm4,0h-2v1h2v-1Zm4,0h-2v1h2v-1Zm4,0h-2v1h2v-1Zm4,0h-2v1h2v-1Zm4,0h-2v1h2v-1Zm4,0h-2v1h2v-1Zm4,0h-2v1h2v-1Zm4,0h-2v1h2v-1Zm4,0h-2v1h2v-1Zm4,0h-2v1h2v-1Zm4,0h-2v1h2v-1Zm4,0h-2v1h2v-1Zm4,0h-2v1h2v-1Zm4,0h-2v1h2v-1Zm4,0h-2v1h2v-1Zm4,0h-2v1h2v-1Zm4,0h-2v1h2v-1Zm4,0h-2v1h2v-1Zm4,0h-2v1h2v-1Zm4,0h-2v1h2v-1Zm4,0h-2v1h2v-1Zm4,0h-2v1h2v-1Zm4,0h-2v1h2v-1Zm4,0h-2v1h2v-1Zm4,0h-2v1h2v-1Zm4,0h-2v1h2v-1Zm4,0h-2v1h2v-1Zm4,0h-2v1h2v-1Zm4,0h-2v1h2v-1Zm4,0h-2v1h2v-1Zm4,0h-2v1h2v-1Zm4,0h-2v1h2v-1Zm4,0h-2v1h2v-1Zm4,0h-2v1h2v-1Zm4,0h-2v1h2v-1Zm4,0h-2v1h2v-1Zm4,0h-2v1h2v-1Zm4,0h-2v1h2v-1Zm3.26,0h-1.26v1h1.26v-1Zm0-3.74h-1v2h1v-2Zm0-4h-1v2h1v-2Zm0-4h-1v2h1v-2Zm0-4h-1v2h1v-2Zm0-4h-1v2h1v-2Zm0-4h-1v2h1v-2Zm0-4h-1v2h1v-2Zm0-4h-1v2h1v-2Zm0-4h-1v2h1v-2Zm0-4h-1v2h1v-2Zm0-4h-1v2h1v-2Zm0-4h-1v2h1v-2Zm0-3.64h-2v1h1v.64h1V573Z"/><rect class="cls-3" x="92.39" y="579.19" width="369.61" height="366.81"/><rect class="cls-5" x="134.96" y="573" width="292.44" height="52.38"/><path d="M423.4,573h-2v1h2v-1Zm-4,0h-2v1h2v-1Zm-4,0h-2v1h2v-1Zm-4,0h-2v1h2v-1Zm-4,0h-2v1h2v-1Zm-4,0h-2v1h2v-1Zm-4,0h-2v1h2v-1Zm-4,0h-2v1h2v-1Zm-4,0h-2v1h2v-1Zm-4,0h-2v1h2v-1Zm-4,0h-2v1h2v-1Zm-4,0h-2v1h2v-1Zm-4,0h-2v1h2v-1Zm-4,0h-2v1h2v-1Zm-4,0h-2v1h2v-1Zm-4,0h-2v1h2v-1Zm-4,0h-2v1h2v-1Zm-4,0h-2v1h2v-1Zm-4,0h-2v1h2v-1Zm-4,0h-2v1h2v-1Zm-4,0h-2v1h2v-1Zm-4,0h-2v1h2v-1Zm-4,0h-2v1h2v-1Zm-4,0h-2v1h2v-1Zm-4,0h-2v1h2v-1Zm-4,0h-2v1h2v-1Zm-4,0h-2v1h2v-1Zm-4,0h-2v1h2v-1Zm-4,0h-2v1h2v-1Zm-4,0h-2v1h2v-1Zm-4,0h-2v1h2v-1Zm-4,0h-2v1h2v-1Zm-4,0h-2v1h2v-1Zm-4,0h-2v1h2v-1Zm-4,0h-2v1h2v-1Zm-4,0h-2v1h2v-1Zm-4,0h-2v1h2v-1Zm-4,0h-2v1h2v-1Zm-4,0h-2v1h2v-1Zm-4,0h-2v1h2v-1Zm-4,0h-2v1h2v-1Zm-4,0h-2v1h2v-1Zm-4,0h-2v1h2v-1Zm-4,0h-2v1h2v-1Zm-4,0h-2v1h2v-1Zm-4,0h-2v1h2v-1Zm-4,0h-2v1h2v-1Zm-4,0h-2v1h2v-1Zm-4,0h-2v1h2v-1Zm-4,0h-2v1h2v-1Zm-4,0h-2v1h2v-1Zm-4,0h-2v1h2v-1Zm-4,0h-2v1h2v-1Zm-4,0h-2v1h2v-1Zm-4,0h-2v1h2v-1Zm-4,0h-2v1h2v-1Zm-4,0h-2v1h2v-1Zm-4,0h-2v1h2v-1Zm-4,0h-2v1h2v-1Zm-4,0h-2v1h2v-1Zm-4,0h-2v1h2v-1Zm-4,0h-2v1h2v-1Zm-4,0h-2v1h2v-1Zm-4,0h-2v1h2v-1Zm-4,0h-2v1h2v-1Zm-4,0h-2v1h2v-1Zm-4,0h-2v1h2v-1Zm-4,0h-2v1h2v-1Zm-4,0h-2v1h2v-1Zm-4,0h-2v1h2v-1Zm-4,0h-2v1h2v-1Zm-4,0h-2v1h2v-1ZM136,573h-1v1h0v.56h1V573Zm0,3.56h-1v2h1v-2Zm0,4h-1v2h1v-2Zm0,4h-1v2h1v-2Zm0,4h-1v2h1v-2Zm0,4h-1v2h1v-2Zm0,4h-1v2h1v-2Zm0,4h-1v2h1v-2Zm0,4h-1v2h1v-2Zm0,4h-1v2h1v-2Zm0,4h-1v2h1v-2Zm0,4h-1v2h1v-2Zm0,4h-1v2h1v-2Zm.18,3.82H135v.18h0v0h0v.82h1.18v-1Zm4,0h-2v1h2v-1Zm4,0h-2v1h2v-1Zm4,0h-2v1h2v-1Zm4,0h-2v1h2v-1Zm4,0h-2v1h2v-1Zm4,0h-2v1h2v-1Zm4,0h-2v1h2v-1Zm4,0h-2v1h2v-1Zm4,0h-2v1h2v-1Zm4,0h-2v1h2v-1Zm4,0h-2v1h2v-1Zm4,0h-2v1h2v-1Zm4,0h-2v1h2v-1Zm4,0h-2v1h2v-1Zm4,0h-2v1h2v-1Zm4,0h-2v1h2v-1Zm4,0h-2v1h2v-1Zm4,0h-2v1h2v-1Zm4,0h-2v1h2v-1Zm4,0h-2v1h2v-1Zm4,0h-2v1h2v-1Zm4,0h-2v1h2v-1Zm4,0h-2v1h2v-1Zm4,0h-2v1h2v-1Zm4,0h-2v1h2v-1Zm4,0h-2v1h2v-1Zm4,0h-2v1h2v-1Zm4,0h-2v1h2v-1Zm4,0h-2v1h2v-1Zm4,0h-2v1h2v-1Zm4,0h-2v1h2v-1Zm4,0h-2v1h2v-1Zm4,0h-2v1h2v-1Zm4,0h-2v1h2v-1Zm4,0h-2v1h2v-1Zm4,0h-2v1h2v-1Zm4,0h-2v1h2v-1Zm4,0h-2v1h2v-1Zm4,0h-2v1h2v-1Zm4,0h-2v1h2v-1Zm4,0h-2v1h2v-1Zm4,0h-2v1h2v-1Zm4,0h-2v1h2v-1Zm4,0h-2v1h2v-1Zm4,0h-2v1h2v-1Zm4,0h-2v1h2v-1Zm4,0h-2v1h2v-1Zm4,0h-2v1h2v-1Zm4,0h-2v1h2v-1Zm4,0h-2v1h2v-1Zm4,0h-2v1h2v-1Zm4,0h-2v1h2v-1Zm4,0h-2v1h2v-1Zm4,0h-2v1h2v-1Zm4,0h-2v1h2v-1Zm4,0h-2v1h2v-1Zm4,0h-2v1h2v-1Zm4,0h-2v1h2v-1Zm4,0h-2v1h2v-1Zm4,0h-2v1h2v-1Zm4,0h-2v1h2v-1Zm4,0h-2v1h2v-1Zm4,0h-2v1h2v-1Zm4,0h-2v1h2v-1Zm4,0h-2v1h2v-1Zm4,0h-2v1h2v-1Zm4,0h-2v1h2v-1Zm4,0h-2v1h2v-1Zm4,0h-2v1h2v-1Zm4,0h-2v1h2v-1Zm4,0h-2v1h2v-1Zm4,0h-2v1h2v-1Zm3.26,0h-1.26v1h1.26v-1Zm0-3.74h-1v2h1v-2Zm0-4h-1v2h1v-2Zm0-4h-1v2h1v-2Zm0-4h-1v2h1v-2Zm0-4h-1v2h1v-2Zm0-4h-1v2h1v-2Zm0-4h-1v2h1v-2Zm0-4h-1v2h1v-2Zm0-4h-1v2h1v-2Zm0-4h-1v2h1v-2Zm0-4h-1v2h1v-2Zm0-4h-1v2h1v-2Zm0-3.64h-2v1h1v.64h1V573Z"/><path class="cls-6" d="M51.22,35.31c0-9.16,6-14.37,13.36-14.37A12.29,12.29,0,0,1,73,24.47L69,28.92a6.47,6.47,0,0,0-4.46-1.76c-3.36,0-6,2.94-6,7.9,0,5.12,2.6,8,6.3,8a6.14,6.14,0,0,0,4.45-2.19l3.95,4.37a11.56,11.56,0,0,1-9.16,4C57.36,49.26,51.22,44.63,51.22,35.31Z"/><path class="cls-6" d="M76.59,42.79c0-4.71,3.7-7.14,13.28-7.65-.26-1.51-1.68-2.18-4-2.18a14.32,14.32,0,0,0-6,1.76L77.26,30a20.35,20.35,0,0,1,10-2.78c6,0,9.83,2.94,9.83,9.83V48.75H91.21l-.5-2.18h-.17a12.4,12.4,0,0,1-7.14,2.69C79,49.26,76.59,46.23,76.59,42.79Zm13.28-.67V39.43c-5.13.16-6.39,1.34-6.39,2.77,0,1,.76,1.51,2.27,1.51A6.82,6.82,0,0,0,89.87,42.12Z"/><path class="cls-6" d="M106.33,39.85V33.38h-5V28l5.37-.25.93-6.3h6v6.3h8.32v5.63h-8.32v6.34c0,3,1.39,3.91,4.08,3.91a12.1,12.1,0,0,0,3.82-.67l1.26,5.2a25.05,25.05,0,0,1-7,1.1C108.85,49.26,106.33,45.48,106.33,39.85Z"/><path class="cls-6" d="M126.82,38.25a10.78,10.78,0,0,1,11-11c6.63,0,10,4.54,10,10.17a18,18,0,0,1-.3,3H132.28v-4.7h10.25l-1,1.26c0-2.77-1.09-4.28-3.44-4.28-2.77,0-4.29,1.76-4.29,5.54,0,4,1.94,5.54,5.8,5.54a11.69,11.69,0,0,0,5-1.25L147,46.82a16.67,16.67,0,0,1-8.41,2.44C132,49.26,126.82,45.22,126.82,38.25Z"/><path class="cls-6" d="M151.77,52.2c0-1.73,1.09-3,3.19-4V48a4.12,4.12,0,0,1-2.1-3.62,5.26,5.26,0,0,1,2.52-4v-.16a6.32,6.32,0,0,1-2.85-5.38c0-5.21,4.41-7.65,9.28-7.65a11.89,11.89,0,0,1,3.57.51h8.49V33h-3.79a4.53,4.53,0,0,1,.59,2.18c0,5-3.86,7-8.86,7a13.09,13.09,0,0,1-2.65-.3,1.3,1.3,0,0,0-.67,1.22c0,.92.93,1.26,3.28,1.26h3.57c5.54,0,8.74,1.6,8.74,5.46,0,4.54-5,7.65-12.86,7.65C156,57.41,151.77,56,151.77,52.2ZM167.23,51c0-1.09-1.18-1.26-3.28-1.26h-2.1a13.5,13.5,0,0,1-3.19-.25c-.71.5-1,.92-1,1.51,0,1.34,1.93,1.93,4.75,1.93S167.23,52.2,167.23,51Zm-2.86-16.13A2.54,2.54,0,0,0,161.81,32c-1.39,0-2.52.93-2.52,2.86s1.13,2.94,2.52,2.94S164.37,36.91,164.37,34.89Z"/><path class="cls-6" d="M176.88,38.25a10.84,10.84,0,1,1,21.68,0,10.84,10.84,0,1,1-21.68,0Zm14.29,0c0-3.19-1-5.21-3.45-5.21s-3.44,2-3.44,5.21,1,5.21,3.44,5.21S191.17,41.44,191.17,38.25Z"/><path class="cls-6" d="M204.69,27.75h5.92l.55,4.45h.17a9.28,9.28,0,0,1,8.19-5,8.62,8.62,0,0,1,4,.84l-1.43,6.05a11,11,0,0,0-3.65-.59c-2.4,0-5,1.27-6.51,4.79V48.75h-7.23Z"/><path class="cls-6" d="M228.33,56.23l1.27-5.46a5.06,5.06,0,0,0,1.51.25c2.22,0,3.36-.84,3.9-2.1l.34-.92-8.82-20.25h7.14l2.94,8.06c.71,2,1.3,4.12,1.89,6.39h.17c.5-2.14,1.18-4.29,1.8-6.39L243,27.75h6.8l-7.9,20.67c-2.22,5.67-4.7,8.23-10.2,8.23A13.24,13.24,0,0,1,228.33,56.23Z"/><path class="cls-6" d="M267.27,18.93h6L259.37,55.47h-6Z"/><path class="cls-6" d="M310.19,46.48H310l-.59,2.27h-5.63V19.51H311v6.81l-.25,3H311a7.8,7.8,0,0,1,5.25-2.1c5.08,0,8.36,4.21,8.36,10.63,0,7.27-4.37,11.39-8.95,11.39A7.32,7.32,0,0,1,310.19,46.48Zm7-8.48c0-3.45-1.05-4.87-3.11-4.87a3.84,3.84,0,0,0-3,1.51v7.73a4.31,4.31,0,0,0,2.86,1C315.65,43.38,317.17,42,317.17,38Z"/><path class="cls-6" d="M334.3,40.1v-15H328V19.51h13.53V40.35a2.86,2.86,0,0,0,3.15,3.11,9.07,9.07,0,0,0,3-.59l1.55,5.29a19.51,19.51,0,0,1-6.51,1.1C337.16,49.26,334.3,45.56,334.3,40.1Z"/><path class="cls-6" d="M353.28,38.25a10.84,10.84,0,1,1,21.68,0,10.84,10.84,0,1,1-21.68,0Zm14.29,0c0-3.19-1-5.21-3.45-5.21s-3.44,2-3.44,5.21,1,5.21,3.44,5.21S367.57,41.44,367.57,38.25Z"/><path class="cls-6" d="M378.57,52.2c0-1.73,1.09-3,3.19-4V48a4.1,4.1,0,0,1-2.1-3.62,5.26,5.26,0,0,1,2.52-4v-.16a6.31,6.31,0,0,1-2.86-5.38c0-5.21,4.41-7.65,9.29-7.65a11.89,11.89,0,0,1,3.57.51h8.48V33h-3.78a4.53,4.53,0,0,1,.59,2.18c0,5-3.86,7-8.86,7a13.09,13.09,0,0,1-2.65-.3,1.3,1.3,0,0,0-.67,1.22c0,.92.92,1.26,3.27,1.26h3.57c5.55,0,8.74,1.6,8.74,5.46,0,4.54-5,7.65-12.85,7.65C382.81,57.41,378.57,56,378.57,52.2ZM394,51c0-1.09-1.18-1.26-3.28-1.26h-2.1a13.5,13.5,0,0,1-3.19-.25c-.72.5-1,.92-1,1.51,0,1.34,1.93,1.93,4.74,1.93S394,52.2,394,51Zm-2.86-16.13A2.54,2.54,0,0,0,388.61,32c-1.39,0-2.52.93-2.52,2.86s1.13,2.94,2.52,2.94S391.17,36.91,391.17,34.89Z"/><path class="cls-6" d="M441.08,35.75h4.16l3.92,13h-3.64l-1.46-6.32c-.28-1.24-.66-2.8-.94-4.12H443c-.28,1.32-.62,2.88-.9,4.12l-1.46,6.32h-3.52ZM440,43.33h6.32V46H440Z"/><path class="cls-6" d="M450,43.75c0-3.28,2.08-5.24,4.18-5.24a2.94,2.94,0,0,1,2.34,1h.08l-.16-1.44V34.83h3.44V48.75h-2.8l-.24-.92h-.08A3.93,3.93,0,0,1,454.18,49C451.64,49,450,47,450,43.75Zm6.44,1.72V41.79a1.87,1.87,0,0,0-1.32-.48c-.84,0-1.6.64-1.6,2.4s.58,2.48,1.56,2.48A1.47,1.47,0,0,0,456.44,45.47Z"/><path class="cls-6" d="M461.68,38.75h2.56l.24,1.2h.08a2.19,2.19,0,0,1,2.12-1.44,1.75,1.75,0,0,1,1.68,1.6,2.25,2.25,0,0,1,2.16-1.6c1.44,0,2.24,1.28,2.24,3.28v7h-3.24V42c0-.42-.08-.6-.34-.6s-.48.24-.66.76v6.56h-2.6V42c0-.42-.14-.6-.4-.6s-.42.24-.6.76v6.56h-3.24Z"/><path class="cls-6" d="M478.44,41.43h-3.8V38.75h7.24v10h-3.44Zm-.6-6a2.21,2.21,0,0,1,4.4,0,2.21,2.21,0,0,1-4.4,0Z"/><path class="cls-6" d="M486.44,38.75h2.8l.24,1.2h.08a4.76,4.76,0,0,1,3.34-1.44c2.22,0,3.18,1.6,3.18,4.08v6.16h-3.44V43c0-1.12-.28-1.6-1.16-1.6a2.24,2.24,0,0,0-1.6.76v6.56h-3.44Z"/><path class="cls-6" d="M502.44,41.43h-3.8V38.75h7.24v10h-3.44Zm-.6-6a2.21,2.21,0,0,1,4.4,0,2.21,2.21,0,0,1-4.4,0Z"/><path class="cls-6" d="M510.08,47.47l1.44-2.12a7.85,7.85,0,0,0,3.92,1.12c.88,0,1.24-.24,1.24-.6s-.52-.56-2.2-.92c-2.76-.6-3.76-1.64-3.76-3.2,0-2,1.86-3.24,4.76-3.24a8.34,8.34,0,0,1,4.44,1.4l-1.52,2a6.65,6.65,0,0,0-3.24-.92c-.64,0-1,.2-1,.56s.52.48,2.08.84c3,.68,3.88,1.58,3.88,3.24,0,1.88-1.78,3.32-5.12,3.32A9.5,9.5,0,0,1,510.08,47.47Z"/><path class="cls-6" d="M524.4,44.51V41.43H522V38.87l2.56-.12.44-3h2.84v3h4v2.68h-4v3c0,1.42.66,1.86,1.94,1.86A5.68,5.68,0,0,0,531.6,46l.6,2.48a12,12,0,0,1-3.32.52C525.6,49,524.4,47.19,524.4,44.51Z"/><path class="cls-6" d="M535.24,38.75h2.82l.26,2.12h.08a4.42,4.42,0,0,1,3.9-2.36,4.07,4.07,0,0,1,1.9.4l-.68,2.88a5.29,5.29,0,0,0-1.74-.28,3.36,3.36,0,0,0-3.1,2.28v5h-3.44Z"/><path class="cls-6" d="M546.24,45.91c0-2.24,1.76-3.4,6.32-3.64-.12-.72-.8-1-1.92-1a6.84,6.84,0,0,0-2.88.84l-1.2-2.24a9.7,9.7,0,0,1,4.76-1.32c2.84,0,4.68,1.4,4.68,4.68v5.56h-2.8l-.24-1h-.08a5.89,5.89,0,0,1-3.4,1.28A3,3,0,0,1,546.24,45.91Zm6.32-.32V44.31c-2.44.08-3,.64-3,1.32,0,.46.36.72,1.08.72A3.24,3.24,0,0,0,552.56,45.59Z"/><path class="cls-6" d="M560.4,44.51V41.43H558V38.87l2.56-.12.44-3h2.84v3h4v2.68h-4v3c0,1.42.66,1.86,1.94,1.86A5.68,5.68,0,0,0,567.6,46l.6,2.48a12,12,0,0,1-3.32.52C561.6,49,560.4,47.19,560.4,44.51Z"/><path class="cls-6" d="M570,43.75A5.16,5.16,0,1,1,575.16,49,5.06,5.06,0,0,1,570,43.75Zm6.8,0c0-1.52-.48-2.48-1.64-2.48s-1.64,1-1.64,2.48.48,2.48,1.64,2.48S576.8,45.27,576.8,43.75Z"/><path class="cls-6" d="M583.24,38.75h2.82l.26,2.12h.08a4.42,4.42,0,0,1,3.9-2.36,4.07,4.07,0,0,1,1.9.4l-.68,2.88a5.29,5.29,0,0,0-1.74-.28,3.36,3.36,0,0,0-3.1,2.28v5h-3.44Z"/><path class="cls-6" d="M606.22,46.67l5.62-8h-5.08V35.75h9.34v2.08l-5.62,8h5.68v2.88h-9.94Z"/></svg>