<svg id="Layer_1" data-name="Layer 1" xmlns="http://www.w3.org/2000/svg" viewBox="0 0 1000 1000"><defs><style>.cls-1{fill:#e6e6e6;}.cls-2{fill:#333;}.cls-3{fill:#fff;}.cls-4{fill:gray;}.cls-5{fill:#b3b3b3;}.cls-6{fill:#ccc;}</style></defs><title>singlepost</title><rect class="cls-1" x="49.89" y="85.69" width="895.61" height="895.81"/><path d="M945,86.19V981H50.39V86.19H945m1-1H49.39V982H946V85.19Z"/><rect class="cls-2" x="91.96" y="79" width="292.44" height="52.38"/><path class="cls-1" d="M380.4,79h-2v1h2V79Zm-4,0h-2v1h2V79Zm-4,0h-2v1h2V79Zm-4,0h-2v1h2V79Zm-4,0h-2v1h2V79Zm-4,0h-2v1h2V79Zm-4,0h-2v1h2V79Zm-4,0h-2v1h2V79Zm-4,0h-2v1h2V79Zm-4,0h-2v1h2V79Zm-4,0h-2v1h2V79Zm-4,0h-2v1h2V79Zm-4,0h-2v1h2V79Zm-4,0h-2v1h2V79Zm-4,0h-2v1h2V79Zm-4,0h-2v1h2V79Zm-4,0h-2v1h2V79Zm-4,0h-2v1h2V79Zm-4,0h-2v1h2V79Zm-4,0h-2v1h2V79Zm-4,0h-2v1h2V79Zm-4,0h-2v1h2V79Zm-4,0h-2v1h2V79Zm-4,0h-2v1h2V79Zm-4,0h-2v1h2V79Zm-4,0h-2v1h2V79Zm-4,0h-2v1h2V79Zm-4,0h-2v1h2V79Zm-4,0h-2v1h2V79Zm-4,0h-2v1h2V79Zm-4,0h-2v1h2V79Zm-4,0h-2v1h2V79Zm-4,0h-2v1h2V79Zm-4,0h-2v1h2V79Zm-4,0h-2v1h2V79Zm-4,0h-2v1h2V79Zm-4,0h-2v1h2V79Zm-4,0h-2v1h2V79Zm-4,0h-2v1h2V79Zm-4,0h-2v1h2V79Zm-4,0h-2v1h2V79Zm-4,0h-2v1h2V79Zm-4,0h-2v1h2V79Zm-4,0h-2v1h2V79Zm-4,0h-2v1h2V79Zm-4,0h-2v1h2V79Zm-4,0h-2v1h2V79Zm-4,0h-2v1h2V79Zm-4,0h-2v1h2V79Zm-4,0h-2v1h2V79Zm-4,0h-2v1h2V79Zm-4,0h-2v1h2V79Zm-4,0h-2v1h2V79Zm-4,0h-2v1h2V79Zm-4,0h-2v1h2V79Zm-4,0h-2v1h2V79Zm-4,0h-2v1h2V79Zm-4,0h-2v1h2V79Zm-4,0h-2v1h2V79Zm-4,0h-2v1h2V79Zm-4,0h-2v1h2V79Zm-4,0h-2v1h2V79Zm-4,0h-2v1h2V79Zm-4,0h-2v1h2V79Zm-4,0h-2v1h2V79Zm-4,0h-2v1h2V79Zm-4,0h-2v1h2V79Zm-4,0h-2v1h2V79Zm-4,0h-2v1h2V79Zm-4,0h-2v1h2V79Zm-4,0h-2v1h2V79Zm-4,0h-2v1h2V79ZM93,79H92v1h0v.56h1V79Zm0,3.56H92v2h1v-2Zm0,4H92v2h1v-2Zm0,4H92v2h1v-2Zm0,4H92v2h1v-2Zm0,4H92v2h1v-2Zm0,4H92v2h1v-2Zm0,4H92v2h1v-2Zm0,4H92v2h1v-2Zm0,4H92v2h1v-2Zm0,4H92v2h1v-2Zm0,4H92v2h1v-2Zm0,4H92v2h1v-2Zm.18,3.82H92v.18h0v0h0v.82h1.18v-1Zm4,0h-2v1h2v-1Zm4,0h-2v1h2v-1Zm4,0h-2v1h2v-1Zm4,0h-2v1h2v-1Zm4,0h-2v1h2v-1Zm4,0h-2v1h2v-1Zm4,0h-2v1h2v-1Zm4,0h-2v1h2v-1Zm4,0h-2v1h2v-1Zm4,0h-2v1h2v-1Zm4,0h-2v1h2v-1Zm4,0h-2v1h2v-1Zm4,0h-2v1h2v-1Zm4,0h-2v1h2v-1Zm4,0h-2v1h2v-1Zm4,0h-2v1h2v-1Zm4,0h-2v1h2v-1Zm4,0h-2v1h2v-1Zm4,0h-2v1h2v-1Zm4,0h-2v1h2v-1Zm4,0h-2v1h2v-1Zm4,0h-2v1h2v-1Zm4,0h-2v1h2v-1Zm4,0h-2v1h2v-1Zm4,0h-2v1h2v-1Zm4,0h-2v1h2v-1Zm4,0h-2v1h2v-1Zm4,0h-2v1h2v-1Zm4,0h-2v1h2v-1Zm4,0h-2v1h2v-1Zm4,0h-2v1h2v-1Zm4,0h-2v1h2v-1Zm4,0h-2v1h2v-1Zm4,0h-2v1h2v-1Zm4,0h-2v1h2v-1Zm4,0h-2v1h2v-1Zm4,0h-2v1h2v-1Zm4,0h-2v1h2v-1Zm4,0h-2v1h2v-1Zm4,0h-2v1h2v-1Zm4,0h-2v1h2v-1Zm4,0h-2v1h2v-1Zm4,0h-2v1h2v-1Zm4,0h-2v1h2v-1Zm4,0h-2v1h2v-1Zm4,0h-2v1h2v-1Zm4,0h-2v1h2v-1Zm4,0h-2v1h2v-1Zm4,0h-2v1h2v-1Zm4,0h-2v1h2v-1Zm4,0h-2v1h2v-1Zm4,0h-2v1h2v-1Zm4,0h-2v1h2v-1Zm4,0h-2v1h2v-1Zm4,0h-2v1h2v-1Zm4,0h-2v1h2v-1Zm4,0h-2v1h2v-1Zm4,0h-2v1h2v-1Zm4,0h-2v1h2v-1Zm4,0h-2v1h2v-1Zm4,0h-2v1h2v-1Zm4,0h-2v1h2v-1Zm4,0h-2v1h2v-1Zm4,0h-2v1h2v-1Zm4,0h-2v1h2v-1Zm4,0h-2v1h2v-1Zm4,0h-2v1h2v-1Zm4,0h-2v1h2v-1Zm4,0h-2v1h2v-1Zm4,0h-2v1h2v-1Zm4,0h-2v1h2v-1Zm4,0h-2v1h2v-1Zm3.26,0h-1.26v1h1.26v-1Zm0-3.74h-1v2h1v-2Zm0-4h-1v2h1v-2Zm0-4h-1v2h1v-2Zm0-4h-1v2h1v-2Zm0-4h-1v2h1v-2Zm0-4h-1v2h1v-2Zm0-4h-1v2h1v-2Zm0-4h-1v2h1v-2Zm0-4h-1v2h1v-2Zm0-4h-1v2h1v-2Zm0-4h-1v2h1v-2Zm0-4h-1v2h1v-2Zm0-3.64h-2v1h1v.64h1V79Z"/><path class="cls-3" d="M120.33,98.13h4.41l.38,1.45h.13a6.8,6.8,0,0,1,4.41-1.83c3.81,0,6.24,3.15,6.24,8,0,5.42-3.28,8.51-6.71,8.51a4.93,4.93,0,0,1-3.56-1.58h-.13l.25,2.4v4.35h-5.42Zm10,7.68c0-2.58-.79-3.65-2.33-3.65a2.93,2.93,0,0,0-2.27,1.13v5.8a3.18,3.18,0,0,0,2.14.76C129.22,109.85,130.35,108.84,130.35,105.81Z"/><path class="cls-3" d="M140.5,98.13h4.44l.41,3.34h.12a7,7,0,0,1,6.15-3.72,6.37,6.37,0,0,1,3,.63l-1.07,4.54a8.16,8.16,0,0,0-2.74-.44c-1.8,0-3.72.94-4.88,3.59v7.81H140.5Z"/><path class="cls-3" d="M157.45,106a8.13,8.13,0,1,1,8.13,8.26A8,8,0,0,1,157.45,106Zm10.71,0c0-2.39-.76-3.9-2.58-3.9S163,103.61,163,106s.76,3.91,2.59,3.91S168.16,108.4,168.16,106Z"/><path class="cls-3" d="M176.35,106c0-5.16,3.28-8.25,6.59-8.25a4.64,4.64,0,0,1,3.68,1.57h.13l-.25-2.26V92h5.42v21.93H187.5l-.37-1.45H187a6.2,6.2,0,0,1-4.06,1.83C178.93,114.26,176.35,111.11,176.35,106Zm10.15,2.71v-5.79a2.94,2.94,0,0,0-2.08-.76c-1.33,0-2.52,1-2.52,3.78s.91,3.91,2.45,3.91A2.31,2.31,0,0,0,186.5,108.71Z"/><path class="cls-3" d="M195.7,107.83v-9.7h5.42v9c0,1.76.37,2.52,1.79,2.52a2.57,2.57,0,0,0,2.36-1.39V98.13h5.42v15.75h-4.41l-.38-2.08h-.12a6.46,6.46,0,0,1-5.11,2.46C197.14,114.26,195.7,111.74,195.7,107.83Z"/><path class="cls-3" d="M214.79,106c0-5.23,4.35-8.25,9.23-8.25a8.75,8.75,0,0,1,6,2.08l-2.46,3.34a5.49,5.49,0,0,0-3.18-1.07,3.73,3.73,0,0,0-4,3.9,3.67,3.67,0,0,0,3.82,3.91,7.31,7.31,0,0,0,3.87-1.32l2.15,3.4a10.56,10.56,0,0,1-6.56,2.27C218.63,114.26,214.79,111.23,214.79,106Z"/><path class="cls-3" d="M236.84,107.2v-4.85h-3.78v-4l4-.19.69-4.73h4.47v4.73h6.24v4.22h-6.24v4.76c0,2.23,1,2.93,3.06,2.93a8.79,8.79,0,0,0,2.87-.51l.94,3.91a18.86,18.86,0,0,1-5.23.82C238.73,114.26,236.84,111.42,236.84,107.2Z"/><path class="cls-3" d="M252.09,111.86l2.27-3.34a12.36,12.36,0,0,0,6.18,1.77c1.38,0,1.95-.38,1.95-1,0-.75-.82-.88-3.47-1.45-4.34-.94-5.92-2.58-5.92-5,0-3.08,2.93-5.1,7.5-5.1a13.13,13.13,0,0,1,7,2.2l-2.39,3.22a10.44,10.44,0,0,0-5.1-1.45c-1,0-1.64.31-1.64.88s.82.76,3.27,1.32c4.73,1.08,6.12,2.49,6.12,5.11,0,3-2.81,5.23-8.07,5.23A14.93,14.93,0,0,1,252.09,111.86Z"/><rect class="cls-1" x="92.89" y="186.69" width="368.61" height="251.81"/><path d="M461,187.19V438H93.39V187.19H461m1-1H92.39V439H462V186.19Z"/><rect class="cls-2" x="134.96" y="180" width="292.44" height="86"/><path class="cls-1" d="M423.4,180h-2v1h2v-1Zm-4,0h-2v1h2v-1Zm-4,0h-2v1h2v-1Zm-4,0h-2v1h2v-1Zm-4,0h-2v1h2v-1Zm-4,0h-2v1h2v-1Zm-4,0h-2v1h2v-1Zm-4,0h-2v1h2v-1Zm-4,0h-2v1h2v-1Zm-4,0h-2v1h2v-1Zm-4,0h-2v1h2v-1Zm-4,0h-2v1h2v-1Zm-4,0h-2v1h2v-1Zm-4,0h-2v1h2v-1Zm-4,0h-2v1h2v-1Zm-4,0h-2v1h2v-1Zm-4,0h-2v1h2v-1Zm-4,0h-2v1h2v-1Zm-4,0h-2v1h2v-1Zm-4,0h-2v1h2v-1Zm-4,0h-2v1h2v-1Zm-4,0h-2v1h2v-1Zm-4,0h-2v1h2v-1Zm-4,0h-2v1h2v-1Zm-4,0h-2v1h2v-1Zm-4,0h-2v1h2v-1Zm-4,0h-2v1h2v-1Zm-4,0h-2v1h2v-1Zm-4,0h-2v1h2v-1Zm-4,0h-2v1h2v-1Zm-4,0h-2v1h2v-1Zm-4,0h-2v1h2v-1Zm-4,0h-2v1h2v-1Zm-4,0h-2v1h2v-1Zm-4,0h-2v1h2v-1Zm-4,0h-2v1h2v-1Zm-4,0h-2v1h2v-1Zm-4,0h-2v1h2v-1Zm-4,0h-2v1h2v-1Zm-4,0h-2v1h2v-1Zm-4,0h-2v1h2v-1Zm-4,0h-2v1h2v-1Zm-4,0h-2v1h2v-1Zm-4,0h-2v1h2v-1Zm-4,0h-2v1h2v-1Zm-4,0h-2v1h2v-1Zm-4,0h-2v1h2v-1Zm-4,0h-2v1h2v-1Zm-4,0h-2v1h2v-1Zm-4,0h-2v1h2v-1Zm-4,0h-2v1h2v-1Zm-4,0h-2v1h2v-1Zm-4,0h-2v1h2v-1Zm-4,0h-2v1h2v-1Zm-4,0h-2v1h2v-1Zm-4,0h-2v1h2v-1Zm-4,0h-2v1h2v-1Zm-4,0h-2v1h2v-1Zm-4,0h-2v1h2v-1Zm-4,0h-2v1h2v-1Zm-4,0h-2v1h2v-1Zm-4,0h-2v1h2v-1Zm-4,0h-2v1h2v-1Zm-4,0h-2v1h2v-1Zm-4,0h-2v1h2v-1Zm-4,0h-2v1h2v-1Zm-4,0h-2v1h2v-1Zm-4,0h-2v1h2v-1Zm-4,0h-2v1h2v-1Zm-4,0h-2v1h2v-1Zm-4,0h-2v1h2v-1Zm-4,0h-2v1h2v-1ZM136,180h-1v1h0v.56h1V180Zm0,3.56h-1v2h1v-2Zm0,4h-1v2h1v-2Zm0,4h-1v2h1v-2Zm0,4h-1v2h1v-2Zm0,4h-1v2h1v-2Zm0,4h-1v2h1v-2Zm0,4h-1v2h1v-2Zm0,4h-1v2h1v-2Zm0,4h-1v2h1v-2Zm0,4h-1v2h1v-2Zm0,4h-1v2h1v-2Zm0,4h-1v2h1v-2Zm0,4h-1v2h1v-2Zm0,4h-1v2h1v-2Zm0,4h-1v2h1v-2Zm0,4h-1v2h1v-2Zm0,4h-1v2h1v-2Zm0,4h-1v2h1v-2Zm0,4h-1v2h1v-2Zm0,4h-1v2h1v-2Zm0,4h-1v2h1v-2Zm2.56,1.44h-2v1h2v-1Zm4,0h-2v1h2v-1Zm4,0h-2v1h2v-1Zm4,0h-2v1h2v-1Zm4,0h-2v1h2v-1Zm4,0h-2v1h2v-1Zm4,0h-2v1h2v-1Zm4,0h-2v1h2v-1Zm4,0h-2v1h2v-1Zm4,0h-2v1h2v-1Zm4,0h-2v1h2v-1Zm4,0h-2v1h2v-1Zm4,0h-2v1h2v-1Zm4,0h-2v1h2v-1Zm4,0h-2v1h2v-1Zm4,0h-2v1h2v-1Zm4,0h-2v1h2v-1Zm4,0h-2v1h2v-1Zm4,0h-2v1h2v-1Zm4,0h-2v1h2v-1Zm4,0h-2v1h2v-1Zm4,0h-2v1h2v-1Zm4,0h-2v1h2v-1Zm4,0h-2v1h2v-1Zm4,0h-2v1h2v-1Zm4,0h-2v1h2v-1Zm4,0h-2v1h2v-1Zm4,0h-2v1h2v-1Zm4,0h-2v1h2v-1Zm4,0h-2v1h2v-1Zm4,0h-2v1h2v-1Zm4,0h-2v1h2v-1Zm4,0h-2v1h2v-1Zm4,0h-2v1h2v-1Zm4,0h-2v1h2v-1Zm4,0h-2v1h2v-1Zm4,0h-2v1h2v-1Zm4,0h-2v1h2v-1Zm4,0h-2v1h2v-1Zm4,0h-2v1h2v-1Zm4,0h-2v1h2v-1Zm4,0h-2v1h2v-1Zm4,0h-2v1h2v-1Zm4,0h-2v1h2v-1Zm4,0h-2v1h2v-1Zm4,0h-2v1h2v-1Zm4,0h-2v1h2v-1Zm4,0h-2v1h2v-1Zm4,0h-2v1h2v-1Zm4,0h-2v1h2v-1Zm4,0h-2v1h2v-1Zm4,0h-2v1h2v-1Zm4,0h-2v1h2v-1Zm4,0h-2v1h2v-1Zm4,0h-2v1h2v-1Zm4,0h-2v1h2v-1Zm4,0h-2v1h2v-1Zm4,0h-2v1h2v-1Zm4,0h-2v1h2v-1Zm4,0h-2v1h2v-1Zm4,0h-2v1h2v-1Zm4,0h-2v1h2v-1Zm4,0h-2v1h2v-1Zm4,0h-2v1h2v-1Zm4,0h-2v1h2v-1Zm4,0h-2v1h2v-1Zm4,0h-2v1h2v-1Zm4,0h-2v1h2v-1Zm4,0h-2v1h2v-1Zm4,0h-2v1h2v-1Zm4,0h-2v1h2v-1Zm4,0h-2v1h2v-1Zm4,0h-2v1h2v-1Zm.88-2.11h-1v2h1v-2Zm0-4h-1v2h1v-2Zm0-4h-1v2h1v-2Zm0-4h-1v2h1v-2Zm0-4h-1v2h1v-2Zm0-4h-1v2h1v-2Zm0-4h-1v2h1v-2Zm0-4h-1v2h1v-2Zm0-4h-1v2h1v-2Zm0-4h-1v2h1v-2Zm0-4h-1v2h1v-2Zm0-4h-1v2h1v-2Zm0-4h-1v2h1v-2Zm0-4h-1v2h1v-2Zm0-4h-1v2h1v-2Zm0-4h-1v2h1v-2Zm0-4h-1v2h1v-2Zm0-4h-1v2h1v-2Zm0-4h-1v2h1v-2Zm0-4h-1v2h1v-2Zm0-4h-1v2h1v-2Zm0-2.89h-2v1h2v-1Z"/><path class="cls-3" d="M163.33,199.13h4.41l.38,1.45h.13a6.8,6.8,0,0,1,4.41-1.83c3.81,0,6.24,3.15,6.24,8,0,5.42-3.28,8.51-6.71,8.51a4.93,4.93,0,0,1-3.56-1.58h-.13l.25,2.4v4.35h-5.42Zm10,7.68c0-2.58-.79-3.65-2.33-3.65a2.93,2.93,0,0,0-2.27,1.13v5.8a3.18,3.18,0,0,0,2.14.76C172.22,210.85,173.35,209.84,173.35,206.81Z"/><path class="cls-3" d="M183.5,199.13h4.44l.41,3.34h.12a7,7,0,0,1,6.15-3.72,6.37,6.37,0,0,1,3,.63l-1.07,4.54a8.16,8.16,0,0,0-2.74-.44c-1.8,0-3.72.94-4.88,3.59v7.81H183.5Z"/><path class="cls-3" d="M200.45,207a8.13,8.13,0,1,1,8.13,8.26A8,8,0,0,1,200.45,207Zm10.71,0c0-2.39-.76-3.9-2.58-3.9S206,204.61,206,207s.76,3.91,2.59,3.91S211.16,209.4,211.16,207Z"/><path class="cls-3" d="M219.35,207c0-5.16,3.28-8.25,6.59-8.25a4.64,4.64,0,0,1,3.68,1.57h.13l-.25-2.26V193h5.42v21.93H230.5l-.37-1.45H230a6.2,6.2,0,0,1-4.06,1.83C221.93,215.26,219.35,212.11,219.35,207Zm10.15,2.71v-5.79a2.94,2.94,0,0,0-2.08-.76c-1.33,0-2.52,1-2.52,3.78s.91,3.91,2.45,3.91A2.31,2.31,0,0,0,229.5,209.71Z"/><path class="cls-3" d="M238.7,208.83v-9.7h5.42v9c0,1.76.37,2.52,1.79,2.52a2.57,2.57,0,0,0,2.36-1.39V199.13h5.42v15.75h-4.41l-.38-2.08h-.12a6.46,6.46,0,0,1-5.11,2.46C240.14,215.26,238.7,212.74,238.7,208.83Z"/><path class="cls-3" d="M257.79,207c0-5.23,4.35-8.25,9.23-8.25a8.75,8.75,0,0,1,6,2.08l-2.46,3.34a5.49,5.49,0,0,0-3.18-1.07,3.73,3.73,0,0,0-4,3.9,3.67,3.67,0,0,0,3.82,3.91,7.31,7.31,0,0,0,3.87-1.32l2.15,3.4a10.56,10.56,0,0,1-6.56,2.27C261.63,215.26,257.79,212.23,257.79,207Z"/><path class="cls-3" d="M279.84,208.2v-4.85h-3.78v-4l4-.19.69-4.73h4.47v4.73h6.24v4.22h-6.24v4.76c0,2.23,1,2.93,3.06,2.93a8.79,8.79,0,0,0,2.87-.51l.94,3.91a18.86,18.86,0,0,1-5.23.82C281.73,215.26,279.84,212.42,279.84,208.2Z"/><path class="cls-3" d="M295.66,202.59h14.87v3.78H295.66Z"/><path class="cls-3" d="M314,212.86l2.26-3.34a12.36,12.36,0,0,0,6.18,1.77c1.39,0,1.95-.38,1.95-.95,0-.75-.82-.88-3.46-1.45-4.35-.94-5.93-2.58-5.93-5,0-3.08,2.93-5.1,7.5-5.1a13.16,13.16,0,0,1,7,2.2l-2.4,3.22a10.41,10.41,0,0,0-5.1-1.45c-1,0-1.64.31-1.64.88s.82.76,3.28,1.32c4.72,1.08,6.11,2.49,6.11,5.11,0,3-2.8,5.23-8.07,5.23A14.87,14.87,0,0,1,314,212.86Z"/><path class="cls-3" d="M332.27,199.13h4l.38,1.89h.13a3.43,3.43,0,0,1,3.34-2.27c1.29,0,2.3.88,2.64,2.52a3.55,3.55,0,0,1,3.41-2.52c2.26,0,3.53,2,3.53,5.17v11h-5.11V204.29c0-.66-.12-.94-.53-.94s-.76.38-1,1.2v10.33H339V204.29c0-.66-.22-.94-.63-.94s-.66.38-.95,1.2v10.33h-5.1Z"/><path class="cls-3" d="M352.06,210.41c0-3.53,2.77-5.36,9.95-5.74-.19-1.13-1.26-1.64-3-1.64a10.82,10.82,0,0,0-4.54,1.33l-1.89-3.53a15.23,15.23,0,0,1,7.5-2.08c4.47,0,7.37,2.2,7.37,7.37v8.76H363l-.38-1.64h-.12a9.28,9.28,0,0,1-5.36,2A4.76,4.76,0,0,1,352.06,210.41Zm9.95-.51v-2c-3.84.12-4.79,1-4.79,2.08,0,.72.57,1.13,1.7,1.13A5.09,5.09,0,0,0,362,209.9Z"/><path class="cls-3" d="M375.24,208.39V197.17h-4.72V193h10.14v15.63a2.14,2.14,0,0,0,2.37,2.33,6.71,6.71,0,0,0,2.27-.44l1.16,4a14.89,14.89,0,0,1-4.88.82C377.39,215.26,375.24,212.49,375.24,208.39Z"/><path class="cls-3" d="M394.15,208.39V197.17h-4.73V193h10.15v15.63a2.14,2.14,0,0,0,2.36,2.33,6.67,6.67,0,0,0,2.27-.44l1.17,4a15,15,0,0,1-4.89.82C396.29,215.26,394.15,212.49,394.15,208.39Z"/><path class="cls-3" d="M163.27,244.81c0-5.23,4.35-8.25,9.23-8.25a8.75,8.75,0,0,1,6,2.08L176,242a5.49,5.49,0,0,0-3.18-1.08,3.74,3.74,0,0,0-4,3.91,3.67,3.67,0,0,0,3.82,3.91,7.31,7.31,0,0,0,3.87-1.32l2.15,3.4a10.56,10.56,0,0,1-6.56,2.27C167.11,253.07,163.27,250,163.27,244.81Z"/><path class="cls-3" d="M181.54,244.81a8.13,8.13,0,1,1,8.13,8.26A8,8,0,0,1,181.54,244.81Zm10.72,0c0-2.39-.76-3.91-2.59-3.91s-2.58,1.52-2.58,3.91.76,3.91,2.58,3.91S192.26,247.21,192.26,244.81Z"/><path class="cls-3" d="M205.11,246.2V235h-4.73v-4.22h10.15v15.63a2.14,2.14,0,0,0,2.36,2.33,6.92,6.92,0,0,0,2.27-.44l1.17,4a15,15,0,0,1-4.89.82C207.25,253.07,205.11,250.29,205.11,246.2Z"/><path class="cls-4" d="M147.85,353.75h4.47l-10.4,27.41h-4.47Z"/><path class="cls-4" d="M166.75,353.75h4.47l-10.39,27.41h-4.48Z"/><path class="cls-4" d="M197.25,369.44v-4.85h-3.78v-4l4-.19.69-4.72h4.48v4.72h6.24v4.23h-6.24v4.76c0,2.23,1,2.93,3.05,2.93a9.06,9.06,0,0,0,2.87-.51l.95,3.91a18.92,18.92,0,0,1-5.23.82C199.14,376.5,197.25,373.66,197.25,369.44Z"/><path class="cls-4" d="M213.06,354.19h5.42v5.1l-.31,2.78h.12a6.93,6.93,0,0,1,5-2.08c3.47,0,5,2.52,5,6.42v9.71h-5.42v-9c0-1.77-.44-2.52-1.83-2.52a3.56,3.56,0,0,0-2.52,1.19v10.34h-5.42Z"/><path class="cls-4" d="M231.71,370.07v-9.71h5.42v9c0,1.76.38,2.52,1.8,2.52a2.59,2.59,0,0,0,2.36-1.39V360.36h5.42v15.76H242.3l-.38-2.08h-.12a6.48,6.48,0,0,1-5.11,2.46C233.16,376.5,231.71,374,231.71,370.07Z"/><path class="cls-4" d="M249.67,360.36h4l.37,1.9h.13a3.43,3.43,0,0,1,3.34-2.27c1.29,0,2.3.88,2.65,2.52a3.52,3.52,0,0,1,3.4-2.52c2.27,0,3.53,2,3.53,5.16v11H262V365.53c0-.66-.13-.94-.54-.94s-.76.38-1,1.19v10.34h-4.1V365.53c0-.66-.22-.94-.63-.94s-.66.38-.94,1.19v10.34h-5.11Z"/><path class="cls-4" d="M274.56,374.42h-.12l-.44,1.7h-4.22V354.19h5.41v5.1l-.18,2.27h.12a5.82,5.82,0,0,1,3.94-1.57c3.81,0,6.27,3.15,6.27,8,0,5.45-3.28,8.54-6.71,8.54A5.51,5.51,0,0,1,274.56,374.42Zm5.23-6.37c0-2.58-.78-3.65-2.33-3.65a2.9,2.9,0,0,0-2.27,1.13v5.8a3.21,3.21,0,0,0,2.15.76C278.66,372.09,279.79,371.08,279.79,368.05Z"/><path class="cls-4" d="M288.68,360.36h4.41l.38,1.9h.12a7.51,7.51,0,0,1,5.27-2.27c3.49,0,5,2.52,5,6.42v9.71h-5.42v-9c0-1.77-.44-2.52-1.83-2.52a3.55,3.55,0,0,0-2.52,1.19v10.34h-5.42Z"/><path class="cls-4" d="M307.27,371.65c0-3.53,2.77-5.36,10-5.74-.18-1.13-1.26-1.64-3-1.64a10.71,10.71,0,0,0-4.54,1.33l-1.89-3.53a15.23,15.23,0,0,1,7.5-2.08c4.48,0,7.37,2.2,7.37,7.37v8.76h-4.41l-.38-1.64h-.12a9.26,9.26,0,0,1-5.36,2A4.76,4.76,0,0,1,307.27,371.65Zm10-.51v-2c-3.84.13-4.78,1-4.78,2.08,0,.73.56,1.14,1.7,1.14A5.08,5.08,0,0,0,317.22,371.14Z"/><path class="cls-4" d="M332.79,364.59h-6v-4.23h11.41v15.76h-5.42Zm-1-9.52a3.48,3.48,0,0,1,6.94,0,3.49,3.49,0,0,1-6.94,0Z"/><path class="cls-4" d="M349.36,369.63V358.41h-4.73v-4.22h10.15v15.63a2.14,2.14,0,0,0,2.36,2.33,6.92,6.92,0,0,0,2.27-.44l1.17,4a15,15,0,0,1-4.89.82C351.5,376.5,349.36,373.73,349.36,369.63Z"/><rect class="cls-1" x="92.39" y="460.84" width="369.11" height="91.66"/><path d="M461,461.34V552H92.89V461.34H461m1-1H91.89V553H462V460.34Z"/><rect class="cls-2" x="128.69" y="448.79" width="292.44" height="52.38"/><path class="cls-1" d="M417.13,448.79h-2v1h2v-1Zm-4,0h-2v1h2v-1Zm-4,0h-2v1h2v-1Zm-4,0h-2v1h2v-1Zm-4,0h-2v1h2v-1Zm-4,0h-2v1h2v-1Zm-4,0h-2v1h2v-1Zm-4,0h-2v1h2v-1Zm-4,0h-2v1h2v-1Zm-4,0h-2v1h2v-1Zm-4,0h-2v1h2v-1Zm-4,0h-2v1h2v-1Zm-4,0h-2v1h2v-1Zm-4,0h-2v1h2v-1Zm-4,0h-2v1h2v-1Zm-4,0h-2v1h2v-1Zm-4,0h-2v1h2v-1Zm-4,0h-2v1h2v-1Zm-4,0h-2v1h2v-1Zm-4,0h-2v1h2v-1Zm-4,0h-2v1h2v-1Zm-4,0h-2v1h2v-1Zm-4,0h-2v1h2v-1Zm-4,0h-2v1h2v-1Zm-4,0h-2v1h2v-1Zm-4,0h-2v1h2v-1Zm-4,0h-2v1h2v-1Zm-4,0h-2v1h2v-1Zm-4,0h-2v1h2v-1Zm-4,0h-2v1h2v-1Zm-4,0h-2v1h2v-1Zm-4,0h-2v1h2v-1Zm-4,0h-2v1h2v-1Zm-4,0h-2v1h2v-1Zm-4,0h-2v1h2v-1Zm-4,0h-2v1h2v-1Zm-4,0h-2v1h2v-1Zm-4,0h-2v1h2v-1Zm-4,0h-2v1h2v-1Zm-4,0h-2v1h2v-1Zm-4,0h-2v1h2v-1Zm-4,0h-2v1h2v-1Zm-4,0h-2v1h2v-1Zm-4,0h-2v1h2v-1Zm-4,0h-2v1h2v-1Zm-4,0h-2v1h2v-1Zm-4,0h-2v1h2v-1Zm-4,0h-2v1h2v-1Zm-4,0h-2v1h2v-1Zm-4,0h-2v1h2v-1Zm-4,0h-2v1h2v-1Zm-4,0h-2v1h2v-1Zm-4,0h-2v1h2v-1Zm-4,0h-2v1h2v-1Zm-4,0h-2v1h2v-1Zm-4,0h-2v1h2v-1Zm-4,0h-2v1h2v-1Zm-4,0h-2v1h2v-1Zm-4,0h-2v1h2v-1Zm-4,0h-2v1h2v-1Zm-4,0h-2v1h2v-1Zm-4,0h-2v1h2v-1Zm-4,0h-2v1h2v-1Zm-4,0h-2v1h2v-1Zm-4,0h-2v1h2v-1Zm-4,0h-2v1h2v-1Zm-4,0h-2v1h2v-1Zm-4,0h-2v1h2v-1Zm-4,0h-2v1h2v-1Zm-4,0h-2v1h2v-1Zm-4,0h-2v1h2v-1Zm-4,0h-2v1h2v-1Zm-3.44,0h-1v1h0v.55h1v-1.55Zm0,3.55h-1v2h1v-2Zm0,4h-1v2h1v-2Zm0,4h-1v2h1v-2Zm0,4h-1v2h1v-2Zm0,4h-1v2h1v-2Zm0,4h-1v2h1v-2Zm0,4h-1v2h1v-2Zm0,4h-1v2h1v-2Zm0,4h-1v2h1v-2Zm0,4h-1v2h1v-2Zm0,4h-1v2h1v-2Zm0,4h-1v2h1v-2Zm.18,3.82h-1.18v.18h0v0h0v.82h1.18v-1Zm4,0h-2v1h2v-1Zm4,0h-2v1h2v-1Zm4,0h-2v1h2v-1Zm4,0h-2v1h2v-1Zm4,0h-2v1h2v-1Zm4,0h-2v1h2v-1Zm4,0h-2v1h2v-1Zm4,0h-2v1h2v-1Zm4,0h-2v1h2v-1Zm4,0h-2v1h2v-1Zm4,0h-2v1h2v-1Zm4,0h-2v1h2v-1Zm4,0h-2v1h2v-1Zm4,0h-2v1h2v-1Zm4,0h-2v1h2v-1Zm4,0h-2v1h2v-1Zm4,0h-2v1h2v-1Zm4,0h-2v1h2v-1Zm4,0h-2v1h2v-1Zm4,0h-2v1h2v-1Zm4,0h-2v1h2v-1Zm4,0h-2v1h2v-1Zm4,0h-2v1h2v-1Zm4,0h-2v1h2v-1Zm4,0h-2v1h2v-1Zm4,0h-2v1h2v-1Zm4,0h-2v1h2v-1Zm4,0h-2v1h2v-1Zm4,0h-2v1h2v-1Zm4,0h-2v1h2v-1Zm4,0h-2v1h2v-1Zm4,0h-2v1h2v-1Zm4,0h-2v1h2v-1Zm4,0h-2v1h2v-1Zm4,0h-2v1h2v-1Zm4,0h-2v1h2v-1Zm4,0h-2v1h2v-1Zm4,0h-2v1h2v-1Zm4,0h-2v1h2v-1Zm4,0h-2v1h2v-1Zm4,0h-2v1h2v-1Zm4,0h-2v1h2v-1Zm4,0h-2v1h2v-1Zm4,0h-2v1h2v-1Zm4,0h-2v1h2v-1Zm4,0h-2v1h2v-1Zm4,0h-2v1h2v-1Zm4,0h-2v1h2v-1Zm4,0h-2v1h2v-1Zm4,0h-2v1h2v-1Zm4,0h-2v1h2v-1Zm4,0h-2v1h2v-1Zm4,0h-2v1h2v-1Zm4,0h-2v1h2v-1Zm4,0h-2v1h2v-1Zm4,0h-2v1h2v-1Zm4,0h-2v1h2v-1Zm4,0h-2v1h2v-1Zm4,0h-2v1h2v-1Zm4,0h-2v1h2v-1Zm4,0h-2v1h2v-1Zm4,0h-2v1h2v-1Zm4,0h-2v1h2v-1Zm4,0h-2v1h2v-1Zm4,0h-2v1h2v-1Zm4,0h-2v1h2v-1Zm4,0h-2v1h2v-1Zm4,0h-2v1h2v-1Zm4,0h-2v1h2v-1Zm4,0h-2v1h2v-1Zm4,0h-2v1h2v-1Zm4,0h-2v1h2v-1Zm3.26,0h-1.26v1h1.26v-1Zm0-3.73h-1v2h1v-2Zm0-4h-1v2h1v-2Zm0-4h-1v2h1v-2Zm0-4h-1v2h1v-2Zm0-4h-1v2h1v-2Zm0-4h-1v2h1v-2Zm0-4h-1v2h1v-2Zm0-4h-1v2h1v-2Zm0-4h-1v2h1v-2Zm0-4h-1v2h1v-2Zm0-4h-1v2h1v-2Zm0-4h-1v2h1v-2Zm0-3.64h-2v1h1v.64h1v-1.64Z"/><path class="cls-3" d="M157.06,467.91h4.41l.38,1.45H162a6.87,6.87,0,0,1,4.41-1.83c3.82,0,6.24,3.16,6.24,8,0,5.42-3.27,8.51-6.71,8.51a5,5,0,0,1-3.56-1.58h-.12l.25,2.39v4.35h-5.42Zm10,7.69c0-2.58-.79-3.65-2.33-3.65a2.88,2.88,0,0,0-2.27,1.13v5.8a3.22,3.22,0,0,0,2.14.75C165.94,479.63,167.08,478.63,167.08,475.6Z"/><path class="cls-3" d="M177.22,467.91h4.45l.41,3.34h.12a7,7,0,0,1,6.15-3.72,6.52,6.52,0,0,1,3,.63l-1.07,4.54a8.46,8.46,0,0,0-2.74-.44c-1.8,0-3.72.95-4.89,3.59v7.82h-5.42Z"/><path class="cls-3" d="M194.17,475.79a8.13,8.13,0,1,1,8.13,8.26A8,8,0,0,1,194.17,475.79Zm10.72,0c0-2.39-.76-3.91-2.59-3.91s-2.58,1.52-2.58,3.91.75,3.91,2.58,3.91S204.89,478.19,204.89,475.79Z"/><path class="cls-3" d="M213.08,475.79c0-5.17,3.27-8.26,6.58-8.26a4.65,4.65,0,0,1,3.69,1.58h.12l-.25-2.27v-5.1h5.42v21.93h-4.41l-.38-1.45h-.12a6.22,6.22,0,0,1-4.07,1.83C215.66,484.05,213.08,480.9,213.08,475.79Zm10.14,2.71v-5.8a3,3,0,0,0-2.08-.75c-1.32,0-2.52,1-2.52,3.78s.92,3.9,2.46,3.9A2.31,2.31,0,0,0,223.22,478.5Z"/><path class="cls-3" d="M232.42,477.62v-9.71h5.42v9c0,1.77.38,2.52,1.8,2.52a2.59,2.59,0,0,0,2.36-1.38V467.91h5.42v15.76H243l-.38-2.08h-.13a6.44,6.44,0,0,1-5.1,2.46C233.87,484.05,232.42,481.52,232.42,477.62Z"/><path class="cls-3" d="M251.51,475.79c0-5.23,4.35-8.26,9.24-8.26a8.7,8.7,0,0,1,5.95,2.08L264.24,473a5.52,5.52,0,0,0-3.18-1.07,3.73,3.73,0,0,0-4,3.91,3.66,3.66,0,0,0,3.81,3.91,7.24,7.24,0,0,0,3.88-1.33l2.14,3.41a10.58,10.58,0,0,1-6.55,2.27C255.36,484.05,251.51,481,251.51,475.79Z"/><path class="cls-3" d="M273.57,477v-4.85h-3.78v-4l4-.19.69-4.72H279v4.72h6.24v4.23H279v4.75c0,2.24,1,2.93,3.05,2.93a9,9,0,0,0,2.87-.5l.95,3.91a19.3,19.3,0,0,1-5.23.82C275.46,484.05,273.57,481.21,273.57,477Z"/><path class="cls-3" d="M289.38,471.38h14.88v3.78H289.38Z"/><path class="cls-3" d="M311.38,477v-4.85H307.6v-4l4-.19.69-4.72h4.48v4.72H323v4.23H316.8v4.75c0,2.24,1,2.93,3.05,2.93a9.06,9.06,0,0,0,2.87-.5l.95,3.91a19.3,19.3,0,0,1-5.23.82C313.27,484.05,311.38,481.21,311.38,477Z"/><path class="cls-3" d="M333.49,472.14h-6v-4.23h11.4v15.76h-5.42Zm-.94-9.52a3.47,3.47,0,0,1,6.93,0,3.48,3.48,0,0,1-6.93,0Z"/><path class="cls-3" d="M349.18,477v-4.85H345.4v-4l4-.19.69-4.72h4.47v4.72h6.24v4.23H354.6v4.75c0,2.24,1,2.93,3.06,2.93a9.06,9.06,0,0,0,2.87-.5l.94,3.91a19.24,19.24,0,0,1-5.23.82C351.08,484.05,349.18,481.21,349.18,477Z"/><path class="cls-3" d="M369,477.18V466h-4.73v-4.22h10.15v15.63a2.15,2.15,0,0,0,2.36,2.33,6.88,6.88,0,0,0,2.27-.44l1.17,4a15,15,0,0,1-4.89.82C371.11,484.05,369,481.27,369,477.18Z"/><path class="cls-3" d="M383.46,475.79a8.09,8.09,0,0,1,8.26-8.26c5,0,7.5,3.41,7.5,7.63a14.76,14.76,0,0,1-.22,2.27H387.56V473.9h7.69l-.76,1c0-2.08-.82-3.22-2.58-3.22-2.08,0-3.22,1.32-3.22,4.16S390.14,480,393,480a8.79,8.79,0,0,0,3.78-.95l1.77,3.22a12.48,12.48,0,0,1-6.3,1.83C387.31,484.05,383.46,481,383.46,475.79Z"/><path class="cls-4" d="M146.49,511.09H151l-10.39,27.42h-4.48Z"/><path class="cls-4" d="M165.39,511.09h4.48l-10.4,27.42H155Z"/><path class="cls-4" d="M195.89,526.78v-4.85h-3.78v-4l4-.19.7-4.73h4.47v4.73h6.24v4.22h-6.24v4.76c0,2.24,1,2.93,3.06,2.93a9,9,0,0,0,2.86-.5l1,3.9a18.92,18.92,0,0,1-5.23.82C197.78,533.84,195.89,531,195.89,526.78Z"/><path class="cls-4" d="M218,521.93h-6v-4.22h11.41v15.75H218Zm-.95-9.51a3.48,3.48,0,0,1,6.94,0,3.49,3.49,0,0,1-6.94,0Z"/><path class="cls-4" d="M233.7,526.78v-4.85h-3.78v-4l4-.19.69-4.73h4.48v4.73h6.24v4.22h-6.24v4.76c0,2.24,1,2.93,3.06,2.93a9,9,0,0,0,2.86-.5l1,3.9a18.92,18.92,0,0,1-5.23.82C235.59,533.84,233.7,531,233.7,526.78Z"/><path class="cls-4" d="M253.49,527V515.76h-4.73v-4.23H258.9v15.63a2.15,2.15,0,0,0,2.37,2.33,6.71,6.71,0,0,0,2.27-.44l1.16,4a14.63,14.63,0,0,1-4.88.82C255.63,533.84,253.49,531.07,253.49,527Z"/><path class="cls-4" d="M268,525.59a8.08,8.08,0,0,1,8.25-8.26c5,0,7.5,3.4,7.5,7.63a13.58,13.58,0,0,1-.22,2.27H272.07V523.7h7.69l-.75.94c0-2.08-.82-3.21-2.59-3.21-2.08,0-3.21,1.32-3.21,4.16s1.45,4.16,4.35,4.16a8.82,8.82,0,0,0,3.78-1L283.1,532a12.56,12.56,0,0,1-6.3,1.82C271.82,533.84,268,530.82,268,525.59Z"/><rect class="cls-3" x="516.39" y="186.19" width="369.61" height="366.81"/><rect class="cls-5" x="558.96" y="180" width="292.44" height="52.38"/><path d="M847.4,180h-2v1h2v-1Zm-4,0h-2v1h2v-1Zm-4,0h-2v1h2v-1Zm-4,0h-2v1h2v-1Zm-4,0h-2v1h2v-1Zm-4,0h-2v1h2v-1Zm-4,0h-2v1h2v-1Zm-4,0h-2v1h2v-1Zm-4,0h-2v1h2v-1Zm-4,0h-2v1h2v-1Zm-4,0h-2v1h2v-1Zm-4,0h-2v1h2v-1Zm-4,0h-2v1h2v-1Zm-4,0h-2v1h2v-1Zm-4,0h-2v1h2v-1Zm-4,0h-2v1h2v-1Zm-4,0h-2v1h2v-1Zm-4,0h-2v1h2v-1Zm-4,0h-2v1h2v-1Zm-4,0h-2v1h2v-1Zm-4,0h-2v1h2v-1Zm-4,0h-2v1h2v-1Zm-4,0h-2v1h2v-1Zm-4,0h-2v1h2v-1Zm-4,0h-2v1h2v-1Zm-4,0h-2v1h2v-1Zm-4,0h-2v1h2v-1Zm-4,0h-2v1h2v-1Zm-4,0h-2v1h2v-1Zm-4,0h-2v1h2v-1Zm-4,0h-2v1h2v-1Zm-4,0h-2v1h2v-1Zm-4,0h-2v1h2v-1Zm-4,0h-2v1h2v-1Zm-4,0h-2v1h2v-1Zm-4,0h-2v1h2v-1Zm-4,0h-2v1h2v-1Zm-4,0h-2v1h2v-1Zm-4,0h-2v1h2v-1Zm-4,0h-2v1h2v-1Zm-4,0h-2v1h2v-1Zm-4,0h-2v1h2v-1Zm-4,0h-2v1h2v-1Zm-4,0h-2v1h2v-1Zm-4,0h-2v1h2v-1Zm-4,0h-2v1h2v-1Zm-4,0h-2v1h2v-1Zm-4,0h-2v1h2v-1Zm-4,0h-2v1h2v-1Zm-4,0h-2v1h2v-1Zm-4,0h-2v1h2v-1Zm-4,0h-2v1h2v-1Zm-4,0h-2v1h2v-1Zm-4,0h-2v1h2v-1Zm-4,0h-2v1h2v-1Zm-4,0h-2v1h2v-1Zm-4,0h-2v1h2v-1Zm-4,0h-2v1h2v-1Zm-4,0h-2v1h2v-1Zm-4,0h-2v1h2v-1Zm-4,0h-2v1h2v-1Zm-4,0h-2v1h2v-1Zm-4,0h-2v1h2v-1Zm-4,0h-2v1h2v-1Zm-4,0h-2v1h2v-1Zm-4,0h-2v1h2v-1Zm-4,0h-2v1h2v-1Zm-4,0h-2v1h2v-1Zm-4,0h-2v1h2v-1Zm-4,0h-2v1h2v-1Zm-4,0h-2v1h2v-1Zm-4,0h-2v1h2v-1ZM560,180h-1v1h0v.56h1V180Zm0,3.56h-1v2h1v-2Zm0,4h-1v2h1v-2Zm0,4h-1v2h1v-2Zm0,4h-1v2h1v-2Zm0,4h-1v2h1v-2Zm0,4h-1v2h1v-2Zm0,4h-1v2h1v-2Zm0,4h-1v2h1v-2Zm0,4h-1v2h1v-2Zm0,4h-1v2h1v-2Zm0,4h-1v2h1v-2Zm0,4h-1v2h1v-2Zm.18,3.82H559v.18h0v0h0v.82h1.18v-1Zm4,0h-2v1h2v-1Zm4,0h-2v1h2v-1Zm4,0h-2v1h2v-1Zm4,0h-2v1h2v-1Zm4,0h-2v1h2v-1Zm4,0h-2v1h2v-1Zm4,0h-2v1h2v-1Zm4,0h-2v1h2v-1Zm4,0h-2v1h2v-1Zm4,0h-2v1h2v-1Zm4,0h-2v1h2v-1Zm4,0h-2v1h2v-1Zm4,0h-2v1h2v-1Zm4,0h-2v1h2v-1Zm4,0h-2v1h2v-1Zm4,0h-2v1h2v-1Zm4,0h-2v1h2v-1Zm4,0h-2v1h2v-1Zm4,0h-2v1h2v-1Zm4,0h-2v1h2v-1Zm4,0h-2v1h2v-1Zm4,0h-2v1h2v-1Zm4,0h-2v1h2v-1Zm4,0h-2v1h2v-1Zm4,0h-2v1h2v-1Zm4,0h-2v1h2v-1Zm4,0h-2v1h2v-1Zm4,0h-2v1h2v-1Zm4,0h-2v1h2v-1Zm4,0h-2v1h2v-1Zm4,0h-2v1h2v-1Zm4,0h-2v1h2v-1Zm4,0h-2v1h2v-1Zm4,0h-2v1h2v-1Zm4,0h-2v1h2v-1Zm4,0h-2v1h2v-1Zm4,0h-2v1h2v-1Zm4,0h-2v1h2v-1Zm4,0h-2v1h2v-1Zm4,0h-2v1h2v-1Zm4,0h-2v1h2v-1Zm4,0h-2v1h2v-1Zm4,0h-2v1h2v-1Zm4,0h-2v1h2v-1Zm4,0h-2v1h2v-1Zm4,0h-2v1h2v-1Zm4,0h-2v1h2v-1Zm4,0h-2v1h2v-1Zm4,0h-2v1h2v-1Zm4,0h-2v1h2v-1Zm4,0h-2v1h2v-1Zm4,0h-2v1h2v-1Zm4,0h-2v1h2v-1Zm4,0h-2v1h2v-1Zm4,0h-2v1h2v-1Zm4,0h-2v1h2v-1Zm4,0h-2v1h2v-1Zm4,0h-2v1h2v-1Zm4,0h-2v1h2v-1Zm4,0h-2v1h2v-1Zm4,0h-2v1h2v-1Zm4,0h-2v1h2v-1Zm4,0h-2v1h2v-1Zm4,0h-2v1h2v-1Zm4,0h-2v1h2v-1Zm4,0h-2v1h2v-1Zm4,0h-2v1h2v-1Zm4,0h-2v1h2v-1Zm4,0h-2v1h2v-1Zm4,0h-2v1h2v-1Zm4,0h-2v1h2v-1Zm4,0h-2v1h2v-1Zm3.26,0h-1.26v1h1.26v-1Zm0-3.74h-1v2h1v-2Zm0-4h-1v2h1v-2Zm0-4h-1v2h1v-2Zm0-4h-1v2h1v-2Zm0-4h-1v2h1v-2Zm0-4h-1v2h1v-2Zm0-4h-1v2h1v-2Zm0-4h-1v2h1v-2Zm0-4h-1v2h1v-2Zm0-4h-1v2h1v-2Zm0-4h-1v2h1v-2Zm0-4h-1v2h1v-2Zm0-3.64h-2v1h1v.64h1V180Z"/><rect class="cls-3" x="516.39" y="579.19" width="369.61" height="366.81"/><rect class="cls-5" x="558.96" y="573" width="292.44" height="52.38"/><path d="M847.4,573h-2v1h2v-1Zm-4,0h-2v1h2v-1Zm-4,0h-2v1h2v-1Zm-4,0h-2v1h2v-1Zm-4,0h-2v1h2v-1Zm-4,0h-2v1h2v-1Zm-4,0h-2v1h2v-1Zm-4,0h-2v1h2v-1Zm-4,0h-2v1h2v-1Zm-4,0h-2v1h2v-1Zm-4,0h-2v1h2v-1Zm-4,0h-2v1h2v-1Zm-4,0h-2v1h2v-1Zm-4,0h-2v1h2v-1Zm-4,0h-2v1h2v-1Zm-4,0h-2v1h2v-1Zm-4,0h-2v1h2v-1Zm-4,0h-2v1h2v-1Zm-4,0h-2v1h2v-1Zm-4,0h-2v1h2v-1Zm-4,0h-2v1h2v-1Zm-4,0h-2v1h2v-1Zm-4,0h-2v1h2v-1Zm-4,0h-2v1h2v-1Zm-4,0h-2v1h2v-1Zm-4,0h-2v1h2v-1Zm-4,0h-2v1h2v-1Zm-4,0h-2v1h2v-1Zm-4,0h-2v1h2v-1Zm-4,0h-2v1h2v-1Zm-4,0h-2v1h2v-1Zm-4,0h-2v1h2v-1Zm-4,0h-2v1h2v-1Zm-4,0h-2v1h2v-1Zm-4,0h-2v1h2v-1Zm-4,0h-2v1h2v-1Zm-4,0h-2v1h2v-1Zm-4,0h-2v1h2v-1Zm-4,0h-2v1h2v-1Zm-4,0h-2v1h2v-1Zm-4,0h-2v1h2v-1Zm-4,0h-2v1h2v-1Zm-4,0h-2v1h2v-1Zm-4,0h-2v1h2v-1Zm-4,0h-2v1h2v-1Zm-4,0h-2v1h2v-1Zm-4,0h-2v1h2v-1Zm-4,0h-2v1h2v-1Zm-4,0h-2v1h2v-1Zm-4,0h-2v1h2v-1Zm-4,0h-2v1h2v-1Zm-4,0h-2v1h2v-1Zm-4,0h-2v1h2v-1Zm-4,0h-2v1h2v-1Zm-4,0h-2v1h2v-1Zm-4,0h-2v1h2v-1Zm-4,0h-2v1h2v-1Zm-4,0h-2v1h2v-1Zm-4,0h-2v1h2v-1Zm-4,0h-2v1h2v-1Zm-4,0h-2v1h2v-1Zm-4,0h-2v1h2v-1Zm-4,0h-2v1h2v-1Zm-4,0h-2v1h2v-1Zm-4,0h-2v1h2v-1Zm-4,0h-2v1h2v-1Zm-4,0h-2v1h2v-1Zm-4,0h-2v1h2v-1Zm-4,0h-2v1h2v-1Zm-4,0h-2v1h2v-1Zm-4,0h-2v1h2v-1Zm-4,0h-2v1h2v-1ZM560,573h-1v1h0v.56h1V573Zm0,3.56h-1v2h1v-2Zm0,4h-1v2h1v-2Zm0,4h-1v2h1v-2Zm0,4h-1v2h1v-2Zm0,4h-1v2h1v-2Zm0,4h-1v2h1v-2Zm0,4h-1v2h1v-2Zm0,4h-1v2h1v-2Zm0,4h-1v2h1v-2Zm0,4h-1v2h1v-2Zm0,4h-1v2h1v-2Zm0,4h-1v2h1v-2Zm.18,3.82H559v.18h0v0h0v.82h1.18v-1Zm4,0h-2v1h2v-1Zm4,0h-2v1h2v-1Zm4,0h-2v1h2v-1Zm4,0h-2v1h2v-1Zm4,0h-2v1h2v-1Zm4,0h-2v1h2v-1Zm4,0h-2v1h2v-1Zm4,0h-2v1h2v-1Zm4,0h-2v1h2v-1Zm4,0h-2v1h2v-1Zm4,0h-2v1h2v-1Zm4,0h-2v1h2v-1Zm4,0h-2v1h2v-1Zm4,0h-2v1h2v-1Zm4,0h-2v1h2v-1Zm4,0h-2v1h2v-1Zm4,0h-2v1h2v-1Zm4,0h-2v1h2v-1Zm4,0h-2v1h2v-1Zm4,0h-2v1h2v-1Zm4,0h-2v1h2v-1Zm4,0h-2v1h2v-1Zm4,0h-2v1h2v-1Zm4,0h-2v1h2v-1Zm4,0h-2v1h2v-1Zm4,0h-2v1h2v-1Zm4,0h-2v1h2v-1Zm4,0h-2v1h2v-1Zm4,0h-2v1h2v-1Zm4,0h-2v1h2v-1Zm4,0h-2v1h2v-1Zm4,0h-2v1h2v-1Zm4,0h-2v1h2v-1Zm4,0h-2v1h2v-1Zm4,0h-2v1h2v-1Zm4,0h-2v1h2v-1Zm4,0h-2v1h2v-1Zm4,0h-2v1h2v-1Zm4,0h-2v1h2v-1Zm4,0h-2v1h2v-1Zm4,0h-2v1h2v-1Zm4,0h-2v1h2v-1Zm4,0h-2v1h2v-1Zm4,0h-2v1h2v-1Zm4,0h-2v1h2v-1Zm4,0h-2v1h2v-1Zm4,0h-2v1h2v-1Zm4,0h-2v1h2v-1Zm4,0h-2v1h2v-1Zm4,0h-2v1h2v-1Zm4,0h-2v1h2v-1Zm4,0h-2v1h2v-1Zm4,0h-2v1h2v-1Zm4,0h-2v1h2v-1Zm4,0h-2v1h2v-1Zm4,0h-2v1h2v-1Zm4,0h-2v1h2v-1Zm4,0h-2v1h2v-1Zm4,0h-2v1h2v-1Zm4,0h-2v1h2v-1Zm4,0h-2v1h2v-1Zm4,0h-2v1h2v-1Zm4,0h-2v1h2v-1Zm4,0h-2v1h2v-1Zm4,0h-2v1h2v-1Zm4,0h-2v1h2v-1Zm4,0h-2v1h2v-1Zm4,0h-2v1h2v-1Zm4,0h-2v1h2v-1Zm4,0h-2v1h2v-1Zm4,0h-2v1h2v-1Zm4,0h-2v1h2v-1Zm3.26,0h-1.26v1h1.26v-1Zm0-3.74h-1v2h1v-2Zm0-4h-1v2h1v-2Zm0-4h-1v2h1v-2Zm0-4h-1v2h1v-2Zm0-4h-1v2h1v-2Zm0-4h-1v2h1v-2Zm0-4h-1v2h1v-2Zm0-4h-1v2h1v-2Zm0-4h-1v2h1v-2Zm0-4h-1v2h1v-2Zm0-4h-1v2h1v-2Zm0-4h-1v2h1v-2Zm0-3.64h-2v1h1v.64h1V573Z"/><rect class="cls-3" x="92.39" y="579.19" width="369.61" height="366.81"/><rect class="cls-5" x="134.96" y="573" width="292.44" height="52.38"/><path d="M423.4,573h-2v1h2v-1Zm-4,0h-2v1h2v-1Zm-4,0h-2v1h2v-1Zm-4,0h-2v1h2v-1Zm-4,0h-2v1h2v-1Zm-4,0h-2v1h2v-1Zm-4,0h-2v1h2v-1Zm-4,0h-2v1h2v-1Zm-4,0h-2v1h2v-1Zm-4,0h-2v1h2v-1Zm-4,0h-2v1h2v-1Zm-4,0h-2v1h2v-1Zm-4,0h-2v1h2v-1Zm-4,0h-2v1h2v-1Zm-4,0h-2v1h2v-1Zm-4,0h-2v1h2v-1Zm-4,0h-2v1h2v-1Zm-4,0h-2v1h2v-1Zm-4,0h-2v1h2v-1Zm-4,0h-2v1h2v-1Zm-4,0h-2v1h2v-1Zm-4,0h-2v1h2v-1Zm-4,0h-2v1h2v-1Zm-4,0h-2v1h2v-1Zm-4,0h-2v1h2v-1Zm-4,0h-2v1h2v-1Zm-4,0h-2v1h2v-1Zm-4,0h-2v1h2v-1Zm-4,0h-2v1h2v-1Zm-4,0h-2v1h2v-1Zm-4,0h-2v1h2v-1Zm-4,0h-2v1h2v-1Zm-4,0h-2v1h2v-1Zm-4,0h-2v1h2v-1Zm-4,0h-2v1h2v-1Zm-4,0h-2v1h2v-1Zm-4,0h-2v1h2v-1Zm-4,0h-2v1h2v-1Zm-4,0h-2v1h2v-1Zm-4,0h-2v1h2v-1Zm-4,0h-2v1h2v-1Zm-4,0h-2v1h2v-1Zm-4,0h-2v1h2v-1Zm-4,0h-2v1h2v-1Zm-4,0h-2v1h2v-1Zm-4,0h-2v1h2v-1Zm-4,0h-2v1h2v-1Zm-4,0h-2v1h2v-1Zm-4,0h-2v1h2v-1Zm-4,0h-2v1h2v-1Zm-4,0h-2v1h2v-1Zm-4,0h-2v1h2v-1Zm-4,0h-2v1h2v-1Zm-4,0h-2v1h2v-1Zm-4,0h-2v1h2v-1Zm-4,0h-2v1h2v-1Zm-4,0h-2v1h2v-1Zm-4,0h-2v1h2v-1Zm-4,0h-2v1h2v-1Zm-4,0h-2v1h2v-1Zm-4,0h-2v1h2v-1Zm-4,0h-2v1h2v-1Zm-4,0h-2v1h2v-1Zm-4,0h-2v1h2v-1Zm-4,0h-2v1h2v-1Zm-4,0h-2v1h2v-1Zm-4,0h-2v1h2v-1Zm-4,0h-2v1h2v-1Zm-4,0h-2v1h2v-1Zm-4,0h-2v1h2v-1Zm-4,0h-2v1h2v-1Zm-4,0h-2v1h2v-1ZM136,573h-1v1h0v.56h1V573Zm0,3.56h-1v2h1v-2Zm0,4h-1v2h1v-2Zm0,4h-1v2h1v-2Zm0,4h-1v2h1v-2Zm0,4h-1v2h1v-2Zm0,4h-1v2h1v-2Zm0,4h-1v2h1v-2Zm0,4h-1v2h1v-2Zm0,4h-1v2h1v-2Zm0,4h-1v2h1v-2Zm0,4h-1v2h1v-2Zm0,4h-1v2h1v-2Zm.18,3.82H135v.18h0v0h0v.82h1.18v-1Zm4,0h-2v1h2v-1Zm4,0h-2v1h2v-1Zm4,0h-2v1h2v-1Zm4,0h-2v1h2v-1Zm4,0h-2v1h2v-1Zm4,0h-2v1h2v-1Zm4,0h-2v1h2v-1Zm4,0h-2v1h2v-1Zm4,0h-2v1h2v-1Zm4,0h-2v1h2v-1Zm4,0h-2v1h2v-1Zm4,0h-2v1h2v-1Zm4,0h-2v1h2v-1Zm4,0h-2v1h2v-1Zm4,0h-2v1h2v-1Zm4,0h-2v1h2v-1Zm4,0h-2v1h2v-1Zm4,0h-2v1h2v-1Zm4,0h-2v1h2v-1Zm4,0h-2v1h2v-1Zm4,0h-2v1h2v-1Zm4,0h-2v1h2v-1Zm4,0h-2v1h2v-1Zm4,0h-2v1h2v-1Zm4,0h-2v1h2v-1Zm4,0h-2v1h2v-1Zm4,0h-2v1h2v-1Zm4,0h-2v1h2v-1Zm4,0h-2v1h2v-1Zm4,0h-2v1h2v-1Zm4,0h-2v1h2v-1Zm4,0h-2v1h2v-1Zm4,0h-2v1h2v-1Zm4,0h-2v1h2v-1Zm4,0h-2v1h2v-1Zm4,0h-2v1h2v-1Zm4,0h-2v1h2v-1Zm4,0h-2v1h2v-1Zm4,0h-2v1h2v-1Zm4,0h-2v1h2v-1Zm4,0h-2v1h2v-1Zm4,0h-2v1h2v-1Zm4,0h-2v1h2v-1Zm4,0h-2v1h2v-1Zm4,0h-2v1h2v-1Zm4,0h-2v1h2v-1Zm4,0h-2v1h2v-1Zm4,0h-2v1h2v-1Zm4,0h-2v1h2v-1Zm4,0h-2v1h2v-1Zm4,0h-2v1h2v-1Zm4,0h-2v1h2v-1Zm4,0h-2v1h2v-1Zm4,0h-2v1h2v-1Zm4,0h-2v1h2v-1Zm4,0h-2v1h2v-1Zm4,0h-2v1h2v-1Zm4,0h-2v1h2v-1Zm4,0h-2v1h2v-1Zm4,0h-2v1h2v-1Zm4,0h-2v1h2v-1Zm4,0h-2v1h2v-1Zm4,0h-2v1h2v-1Zm4,0h-2v1h2v-1Zm4,0h-2v1h2v-1Zm4,0h-2v1h2v-1Zm4,0h-2v1h2v-1Zm4,0h-2v1h2v-1Zm4,0h-2v1h2v-1Zm4,0h-2v1h2v-1Zm4,0h-2v1h2v-1Zm4,0h-2v1h2v-1Zm3.26,0h-1.26v1h1.26v-1Zm0-3.74h-1v2h1v-2Zm0-4h-1v2h1v-2Zm0-4h-1v2h1v-2Zm0-4h-1v2h1v-2Zm0-4h-1v2h1v-2Zm0-4h-1v2h1v-2Zm0-4h-1v2h1v-2Zm0-4h-1v2h1v-2Zm0-4h-1v2h1v-2Zm0-4h-1v2h1v-2Zm0-4h-1v2h1v-2Zm0-4h-1v2h1v-2Zm0-3.64h-2v1h1v.64h1V573Z"/><path class="cls-6" d="M51.81,21.45H62.06c5.88,0,10.92,2.18,10.92,9.07,0,6.68-5.21,9.58-10.92,9.58H59v8.65H51.81Zm9.91,12.94c2.86,0,4.21-1.43,4.21-3.87s-1.52-3.36-4.21-3.36H59v7.23Z"/><path class="cls-6" d="M78.69,27.75h5.93l.54,4.45h.17a9.29,9.29,0,0,1,8.19-5,8.62,8.62,0,0,1,4,.84l-1.43,6.05a11,11,0,0,0-3.65-.59c-2.4,0-5,1.27-6.51,4.79V48.75H78.69Z"/><path class="cls-6" d="M101.29,38.25a10.84,10.84,0,1,1,21.67,0,10.84,10.84,0,1,1-21.67,0Zm14.28,0c0-3.19-1-5.21-3.44-5.21s-3.45,2-3.45,5.21,1,5.21,3.45,5.21S115.57,41.44,115.57,38.25Z"/><path class="cls-6" d="M126.49,38.25c0-6.89,4.37-11,8.78-11a6.19,6.19,0,0,1,4.91,2.1h.17l-.34-3V19.51h7.23V48.75h-5.88l-.51-1.93h-.17a8.22,8.22,0,0,1-5.41,2.44C129.93,49.26,126.49,45.06,126.49,38.25ZM140,41.86V34.13a3.93,3.93,0,0,0-2.77-1c-1.76,0-3.36,1.34-3.36,5s1.22,5.21,3.28,5.21A3.08,3.08,0,0,0,140,41.86Z"/><path class="cls-6" d="M152.27,40.69V27.75h7.23v12c0,2.36.5,3.36,2.39,3.36,1.22,0,2.06-.33,3.15-1.85V27.75h7.23v21h-5.88L165.88,46h-.16a8.62,8.62,0,0,1-6.81,3.28C154.21,49.26,152.27,45.9,152.27,40.69Z"/><path class="cls-6" d="M177.73,38.25c0-7,5.79-11,12.3-11A11.63,11.63,0,0,1,198,30l-3.27,4.45A7.34,7.34,0,0,0,190.45,33a5,5,0,0,0-5.33,5.21,4.89,4.89,0,0,0,5.08,5.21,9.7,9.7,0,0,0,5.17-1.77l2.85,4.54a14.07,14.07,0,0,1-8.73,3C182.85,49.26,177.73,45.22,177.73,38.25Z"/><path class="cls-6" d="M207.13,39.85V33.38h-5V28l5.38-.25.93-6.3h6v6.3h8.32v5.63h-8.32v6.34c0,3,1.39,3.91,4.08,3.91a12.2,12.2,0,0,0,3.82-.67l1.26,5.2a25.05,25.05,0,0,1-7,1.1C209.65,49.26,207.13,45.48,207.13,39.85Z"/><path class="cls-6" d="M258.7,40.1v-15h-6.3V19.51h13.53V40.35a2.86,2.86,0,0,0,3.15,3.11,9.07,9.07,0,0,0,3-.59l1.56,5.29a19.57,19.57,0,0,1-6.52,1.1C261.56,49.26,258.7,45.56,258.7,40.1Z"/><path class="cls-6" d="M287,33.38h-8V27.75h15.2v21H287Zm-1.26-12.69a4.63,4.63,0,0,1,9.24,0c0,2.52-1.93,4.2-4.62,4.2S285.75,23.21,285.75,20.69Z"/><path class="cls-6" d="M303.05,46.06l3-4.45A16.4,16.4,0,0,0,314.31,44c1.85,0,2.6-.5,2.6-1.26,0-1-1.09-1.17-4.62-1.93-5.79-1.26-7.89-3.44-7.89-6.72,0-4.12,3.9-6.81,10-6.81a17.6,17.6,0,0,1,9.33,2.94l-3.19,4.29a14,14,0,0,0-6.81-1.93c-1.34,0-2.18.42-2.18,1.17,0,.93,1.09,1,4.37,1.77,6.3,1.43,8.14,3.32,8.14,6.8,0,3.95-3.73,7-10.75,7A19.93,19.93,0,0,1,303.05,46.06Z"/><path class="cls-6" d="M333.12,39.85V33.38h-5V28l5.38-.25.92-6.3h6v6.3h8.32v5.63h-8.32v6.34c0,3,1.39,3.91,4.07,3.91a12.22,12.22,0,0,0,3.83-.67l1.26,5.2a25.07,25.07,0,0,1-7,1.1C335.64,49.26,333.12,45.48,333.12,39.85Z"/><path class="cls-6" d="M390.68,35.75h4.16l3.92,13h-3.64l-1.46-6.32c-.28-1.24-.66-2.8-.94-4.12h-.08c-.28,1.32-.62,2.88-.9,4.12l-1.46,6.32h-3.52Zm-1.1,7.58h6.32V46h-6.32Z"/><path class="cls-6" d="M399.6,43.75c0-3.28,2.08-5.24,4.18-5.24a2.94,2.94,0,0,1,2.34,1h.08L406,38.07V34.83h3.44V48.75h-2.8l-.24-.92h-.08A3.93,3.93,0,0,1,403.78,49C401.24,49,399.6,47,399.6,43.75ZM406,45.47V41.79a1.87,1.87,0,0,0-1.32-.48c-.84,0-1.6.64-1.6,2.4s.58,2.48,1.56,2.48A1.47,1.47,0,0,0,406,45.47Z"/><path class="cls-6" d="M411.28,38.75h2.56l.24,1.2h.08a2.19,2.19,0,0,1,2.12-1.44,1.75,1.75,0,0,1,1.68,1.6,2.25,2.25,0,0,1,2.16-1.6c1.44,0,2.24,1.28,2.24,3.28v7h-3.24V42c0-.42-.08-.6-.34-.6s-.48.24-.66.76v6.56h-2.6V42c0-.42-.14-.6-.4-.6s-.42.24-.6.76v6.56h-3.24Z"/><path class="cls-6" d="M428,41.43h-3.8V38.75h7.24v10H428Zm-.6-6a2.21,2.21,0,0,1,4.4,0,2.21,2.21,0,0,1-4.4,0Z"/><path class="cls-6" d="M436,38.75h2.8l.24,1.2h.08a4.76,4.76,0,0,1,3.34-1.44c2.22,0,3.18,1.6,3.18,4.08v6.16h-3.44V43c0-1.12-.28-1.6-1.16-1.6a2.24,2.24,0,0,0-1.6.76v6.56H436Z"/><path class="cls-6" d="M452,41.43h-3.8V38.75h7.24v10H452Zm-.6-6a2.21,2.21,0,0,1,4.4,0,2.21,2.21,0,0,1-4.4,0Z"/><path class="cls-6" d="M459.68,47.47l1.44-2.12A7.85,7.85,0,0,0,465,46.47c.88,0,1.24-.24,1.24-.6s-.52-.56-2.2-.92c-2.76-.6-3.76-1.64-3.76-3.2,0-2,1.86-3.24,4.76-3.24a8.34,8.34,0,0,1,4.44,1.4L468,42a6.65,6.65,0,0,0-3.24-.92c-.64,0-1,.2-1,.56s.52.48,2.08.84c3,.68,3.88,1.58,3.88,3.24,0,1.88-1.78,3.32-5.12,3.32A9.5,9.5,0,0,1,459.68,47.47Z"/><path class="cls-6" d="M474,44.51V41.43h-2.4V38.87l2.56-.12.44-3h2.84v3h4v2.68h-4v3c0,1.42.66,1.86,1.94,1.86A5.68,5.68,0,0,0,481.2,46l.6,2.48a12,12,0,0,1-3.32.52C475.2,49,474,47.19,474,44.51Z"/><path class="cls-6" d="M484.84,38.75h2.82l.26,2.12H488a4.42,4.42,0,0,1,3.9-2.36,4.07,4.07,0,0,1,1.9.4l-.68,2.88a5.29,5.29,0,0,0-1.74-.28,3.36,3.36,0,0,0-3.1,2.28v5h-3.44Z"/><path class="cls-6" d="M495.84,45.91c0-2.24,1.76-3.4,6.32-3.64-.12-.72-.8-1-1.92-1a6.84,6.84,0,0,0-2.88.84l-1.2-2.24a9.7,9.7,0,0,1,4.76-1.32c2.84,0,4.68,1.4,4.68,4.68v5.56h-2.8l-.24-1h-.08a5.89,5.89,0,0,1-3.4,1.28A3,3,0,0,1,495.84,45.91Zm6.32-.32V44.31c-2.44.08-3,.64-3,1.32,0,.46.36.72,1.08.72A3.24,3.24,0,0,0,502.16,45.59Z"/><path class="cls-6" d="M510,44.51V41.43h-2.4V38.87l2.56-.12.44-3h2.84v3h4v2.68h-4v3c0,1.42.66,1.86,1.94,1.86A5.68,5.68,0,0,0,517.2,46l.6,2.48a12,12,0,0,1-3.32.52C511.2,49,510,47.19,510,44.51Z"/><path class="cls-6" d="M519.6,43.75A5.16,5.16,0,1,1,524.76,49,5.06,5.06,0,0,1,519.6,43.75Zm6.8,0c0-1.52-.48-2.48-1.64-2.48s-1.64,1-1.64,2.48.48,2.48,1.64,2.48S526.4,45.27,526.4,43.75Z"/><path class="cls-6" d="M532.84,38.75h2.82l.26,2.12H536a4.42,4.42,0,0,1,3.9-2.36,4.07,4.07,0,0,1,1.9.4l-.68,2.88a5.29,5.29,0,0,0-1.74-.28,3.36,3.36,0,0,0-3.1,2.28v5h-3.44Z"/><path class="cls-6" d="M555.82,46.67l5.62-8h-5.08V35.75h9.34v2.08l-5.62,8h5.68v2.88h-9.94Z"/></svg>