<svg id="Layer_1" data-name="Layer 1" xmlns="http://www.w3.org/2000/svg" viewBox="0 0 1000 1000"><defs><style>.cls-1{fill:#e6e6e6;}.cls-2{fill:#fff;}.cls-3{fill:#333;}.cls-4{fill:gray;}.cls-5{fill:#ccc;}</style></defs><title>singlepost</title><rect class="cls-1" x="49.89" y="466.5" width="896.22" height="170.36"/><path d="M945.61,467V636.36H50.39V467H945.61m1-1H49.39V637.36H946.61V466Z"/><rect class="cls-2" x="91.75" y="556.49" width="820.21" height="51.99"/><rect class="cls-1" x="49.89" y="85.69" width="605.65" height="339.38"/><path d="M655,86.19V424.57H50.39V86.19H655m1-1H49.39V425.57H656V85.19Z"/><rect class="cls-1" x="49.89" y="685.99" width="896.22" height="295.51"/><path d="M945.61,686.49V981H50.39V686.49H945.61m1-1H49.39V982H946.61V685.49Z"/><rect class="cls-3" x="91.96" y="79" width="292.44" height="52.38"/><path class="cls-1" d="M380.4,79h-2v1h2V79Zm-4,0h-2v1h2V79Zm-4,0h-2v1h2V79Zm-4,0h-2v1h2V79Zm-4,0h-2v1h2V79Zm-4,0h-2v1h2V79Zm-4,0h-2v1h2V79Zm-4,0h-2v1h2V79Zm-4,0h-2v1h2V79Zm-4,0h-2v1h2V79Zm-4,0h-2v1h2V79Zm-4,0h-2v1h2V79Zm-4,0h-2v1h2V79Zm-4,0h-2v1h2V79Zm-4,0h-2v1h2V79Zm-4,0h-2v1h2V79Zm-4,0h-2v1h2V79Zm-4,0h-2v1h2V79Zm-4,0h-2v1h2V79Zm-4,0h-2v1h2V79Zm-4,0h-2v1h2V79Zm-4,0h-2v1h2V79Zm-4,0h-2v1h2V79Zm-4,0h-2v1h2V79Zm-4,0h-2v1h2V79Zm-4,0h-2v1h2V79Zm-4,0h-2v1h2V79Zm-4,0h-2v1h2V79Zm-4,0h-2v1h2V79Zm-4,0h-2v1h2V79Zm-4,0h-2v1h2V79Zm-4,0h-2v1h2V79Zm-4,0h-2v1h2V79Zm-4,0h-2v1h2V79Zm-4,0h-2v1h2V79Zm-4,0h-2v1h2V79Zm-4,0h-2v1h2V79Zm-4,0h-2v1h2V79Zm-4,0h-2v1h2V79Zm-4,0h-2v1h2V79Zm-4,0h-2v1h2V79Zm-4,0h-2v1h2V79Zm-4,0h-2v1h2V79Zm-4,0h-2v1h2V79Zm-4,0h-2v1h2V79Zm-4,0h-2v1h2V79Zm-4,0h-2v1h2V79Zm-4,0h-2v1h2V79Zm-4,0h-2v1h2V79Zm-4,0h-2v1h2V79Zm-4,0h-2v1h2V79Zm-4,0h-2v1h2V79Zm-4,0h-2v1h2V79Zm-4,0h-2v1h2V79Zm-4,0h-2v1h2V79Zm-4,0h-2v1h2V79Zm-4,0h-2v1h2V79Zm-4,0h-2v1h2V79Zm-4,0h-2v1h2V79Zm-4,0h-2v1h2V79Zm-4,0h-2v1h2V79Zm-4,0h-2v1h2V79Zm-4,0h-2v1h2V79Zm-4,0h-2v1h2V79Zm-4,0h-2v1h2V79Zm-4,0h-2v1h2V79Zm-4,0h-2v1h2V79Zm-4,0h-2v1h2V79Zm-4,0h-2v1h2V79Zm-4,0h-2v1h2V79Zm-4,0h-2v1h2V79Zm-4,0h-2v1h2V79ZM93,79H92v1h0v.56h1V79Zm0,3.56H92v2h1v-2Zm0,4H92v2h1v-2Zm0,4H92v2h1v-2Zm0,4H92v2h1v-2Zm0,4H92v2h1v-2Zm0,4H92v2h1v-2Zm0,4H92v2h1v-2Zm0,4H92v2h1v-2Zm0,4H92v2h1v-2Zm0,4H92v2h1v-2Zm0,4H92v2h1v-2Zm0,4H92v2h1v-2Zm.18,3.82H92v.18h0v0h0v.82h1.18v-1Zm4,0h-2v1h2v-1Zm4,0h-2v1h2v-1Zm4,0h-2v1h2v-1Zm4,0h-2v1h2v-1Zm4,0h-2v1h2v-1Zm4,0h-2v1h2v-1Zm4,0h-2v1h2v-1Zm4,0h-2v1h2v-1Zm4,0h-2v1h2v-1Zm4,0h-2v1h2v-1Zm4,0h-2v1h2v-1Zm4,0h-2v1h2v-1Zm4,0h-2v1h2v-1Zm4,0h-2v1h2v-1Zm4,0h-2v1h2v-1Zm4,0h-2v1h2v-1Zm4,0h-2v1h2v-1Zm4,0h-2v1h2v-1Zm4,0h-2v1h2v-1Zm4,0h-2v1h2v-1Zm4,0h-2v1h2v-1Zm4,0h-2v1h2v-1Zm4,0h-2v1h2v-1Zm4,0h-2v1h2v-1Zm4,0h-2v1h2v-1Zm4,0h-2v1h2v-1Zm4,0h-2v1h2v-1Zm4,0h-2v1h2v-1Zm4,0h-2v1h2v-1Zm4,0h-2v1h2v-1Zm4,0h-2v1h2v-1Zm4,0h-2v1h2v-1Zm4,0h-2v1h2v-1Zm4,0h-2v1h2v-1Zm4,0h-2v1h2v-1Zm4,0h-2v1h2v-1Zm4,0h-2v1h2v-1Zm4,0h-2v1h2v-1Zm4,0h-2v1h2v-1Zm4,0h-2v1h2v-1Zm4,0h-2v1h2v-1Zm4,0h-2v1h2v-1Zm4,0h-2v1h2v-1Zm4,0h-2v1h2v-1Zm4,0h-2v1h2v-1Zm4,0h-2v1h2v-1Zm4,0h-2v1h2v-1Zm4,0h-2v1h2v-1Zm4,0h-2v1h2v-1Zm4,0h-2v1h2v-1Zm4,0h-2v1h2v-1Zm4,0h-2v1h2v-1Zm4,0h-2v1h2v-1Zm4,0h-2v1h2v-1Zm4,0h-2v1h2v-1Zm4,0h-2v1h2v-1Zm4,0h-2v1h2v-1Zm4,0h-2v1h2v-1Zm4,0h-2v1h2v-1Zm4,0h-2v1h2v-1Zm4,0h-2v1h2v-1Zm4,0h-2v1h2v-1Zm4,0h-2v1h2v-1Zm4,0h-2v1h2v-1Zm4,0h-2v1h2v-1Zm4,0h-2v1h2v-1Zm4,0h-2v1h2v-1Zm4,0h-2v1h2v-1Zm4,0h-2v1h2v-1Zm4,0h-2v1h2v-1Zm4,0h-2v1h2v-1Zm4,0h-2v1h2v-1Zm3.26,0h-1.26v1h1.26v-1Zm0-3.74h-1v2h1v-2Zm0-4h-1v2h1v-2Zm0-4h-1v2h1v-2Zm0-4h-1v2h1v-2Zm0-4h-1v2h1v-2Zm0-4h-1v2h1v-2Zm0-4h-1v2h1v-2Zm0-4h-1v2h1v-2Zm0-4h-1v2h1v-2Zm0-4h-1v2h1v-2Zm0-4h-1v2h1v-2Zm0-4h-1v2h1v-2Zm0-3.64h-2v1h1v.64h1V79Z"/><path class="cls-2" d="M119.89,106a8.08,8.08,0,0,1,8.26-8.25c5,0,7.5,3.4,7.5,7.62a14.62,14.62,0,0,1-.22,2.27H124v-3.53h7.69l-.76,1c0-2.08-.82-3.22-2.58-3.22-2.08,0-3.22,1.33-3.22,4.16s1.45,4.16,4.35,4.16a8.8,8.8,0,0,0,3.78-.94l1.77,3.21a12.49,12.49,0,0,1-6.31,1.83C123.74,114.26,119.89,111.23,119.89,106Z"/><path class="cls-2" d="M139.24,98.13h4.41L144,100h.12a7.48,7.48,0,0,1,5.26-2.27c3.5,0,5,2.52,5,6.43v9.7H149v-9c0-1.77-.44-2.52-1.82-2.52a3.52,3.52,0,0,0-2.52,1.2v10.33h-5.42Z"/><path class="cls-2" d="M161.23,107.2v-4.85h-3.78v-4l4-.19.69-4.73h4.48v4.73h6.24v4.22h-6.24v4.76c0,2.23,1,2.93,3,2.93a8.74,8.74,0,0,0,2.87-.51l1,3.91a18.92,18.92,0,0,1-5.23.82C163.12,114.26,161.23,111.42,161.23,107.2Z"/><path class="cls-2" d="M178.3,98.13h4.45l.41,3.34h.12a7,7,0,0,1,6.15-3.72,6.37,6.37,0,0,1,3,.63l-1.07,4.54a8.2,8.2,0,0,0-2.74-.44c-1.8,0-3.72.94-4.89,3.59v7.81H178.3Z"/><path class="cls-2" d="M196,119.49l1-4.1a3.76,3.76,0,0,0,1.13.19c1.67,0,2.52-.63,2.93-1.57l.25-.7-6.61-15.18H200l2.21,6.05c.54,1.51,1,3.08,1.42,4.79h.12c.38-1.61.89-3.22,1.36-4.79L207,98.13h5.1l-5.92,15.5c-1.67,4.25-3.53,6.18-7.66,6.18A9.84,9.84,0,0,1,196,119.49Z"/><path class="cls-2" d="M214.85,101.59h14.87v3.78H214.85Z"/><path class="cls-2" d="M240.06,102.35h-6V98.13h11.41v15.75h-5.42Zm-.95-9.52a3.48,3.48,0,0,1,6.93,0,3.48,3.48,0,0,1-6.93,0Z"/><path class="cls-2" d="M251.46,98.13h4l.37,1.89H256a3.43,3.43,0,0,1,3.34-2.27c1.29,0,2.3.88,2.65,2.52a3.54,3.54,0,0,1,3.4-2.52c2.27,0,3.53,2,3.53,5.17v11h-5.11V103.29c0-.66-.12-.94-.53-.94s-.76.38-1,1.2v10.33h-4.1V103.29c0-.66-.22-.94-.63-.94s-.66.38-.94,1.2v10.33h-5.11Z"/><path class="cls-2" d="M271.25,109.41c0-3.53,2.77-5.36,10-5.74-.19-1.13-1.27-1.64-3-1.64a10.86,10.86,0,0,0-4.54,1.33l-1.89-3.53a15.23,15.23,0,0,1,7.5-2.08c4.48,0,7.37,2.2,7.37,7.37v8.76h-4.41l-.38-1.64h-.12a9.23,9.23,0,0,1-5.36,2A4.77,4.77,0,0,1,271.25,109.41Zm10-.51v-2c-3.85.12-4.79,1-4.79,2.08,0,.72.56,1.13,1.7,1.13A5.14,5.14,0,0,0,281.21,108.9Z"/><path class="cls-2" d="M289.84,116.47c0-1.3.82-2.27,2.39-3v-.13a3.06,3.06,0,0,1-1.57-2.71,3.92,3.92,0,0,1,1.89-3v-.12a4.75,4.75,0,0,1-2.15-4c0-3.9,3.31-5.73,7-5.73a8.81,8.81,0,0,1,2.68.38h6.36V102h-2.84a3.38,3.38,0,0,1,.45,1.64c0,3.72-2.9,5.23-6.65,5.23a9.64,9.64,0,0,1-2-.22,1,1,0,0,0-.5.92c0,.69.69.94,2.46.94H300c4.16,0,6.56,1.2,6.56,4.1,0,3.4-3.75,5.73-9.64,5.73C293,120.37,289.84,119.3,289.84,116.47Zm11.59-.89c0-.82-.88-.94-2.46-.94H297.4a10.64,10.64,0,0,1-2.4-.19c-.53.38-.78.69-.78,1.13,0,1,1.45,1.45,3.56,1.45S301.43,116.47,301.43,115.58Zm-2.14-12.1a1.9,1.9,0,0,0-1.92-2.14,1.88,1.88,0,0,0-1.89,2.14c0,1.52.85,2.21,1.89,2.21S299.29,105,299.29,103.48Z"/><path class="cls-2" d="M308.93,106a8.08,8.08,0,0,1,8.26-8.25c5,0,7.49,3.4,7.49,7.62a13.46,13.46,0,0,1-.22,2.27H313v-3.53h7.68l-.75,1c0-2.08-.82-3.22-2.59-3.22-2.08,0-3.21,1.33-3.21,4.16s1.45,4.16,4.35,4.16a8.8,8.8,0,0,0,3.78-.94l1.76,3.21a12.45,12.45,0,0,1-6.3,1.83C312.77,114.26,308.93,111.23,308.93,106Z"/><rect class="cls-3" x="91.96" y="677.79" width="292.44" height="52.38"/><path class="cls-1" d="M380.4,677.79h-2v1h2v-1Zm-4,0h-2v1h2v-1Zm-4,0h-2v1h2v-1Zm-4,0h-2v1h2v-1Zm-4,0h-2v1h2v-1Zm-4,0h-2v1h2v-1Zm-4,0h-2v1h2v-1Zm-4,0h-2v1h2v-1Zm-4,0h-2v1h2v-1Zm-4,0h-2v1h2v-1Zm-4,0h-2v1h2v-1Zm-4,0h-2v1h2v-1Zm-4,0h-2v1h2v-1Zm-4,0h-2v1h2v-1Zm-4,0h-2v1h2v-1Zm-4,0h-2v1h2v-1Zm-4,0h-2v1h2v-1Zm-4,0h-2v1h2v-1Zm-4,0h-2v1h2v-1Zm-4,0h-2v1h2v-1Zm-4,0h-2v1h2v-1Zm-4,0h-2v1h2v-1Zm-4,0h-2v1h2v-1Zm-4,0h-2v1h2v-1Zm-4,0h-2v1h2v-1Zm-4,0h-2v1h2v-1Zm-4,0h-2v1h2v-1Zm-4,0h-2v1h2v-1Zm-4,0h-2v1h2v-1Zm-4,0h-2v1h2v-1Zm-4,0h-2v1h2v-1Zm-4,0h-2v1h2v-1Zm-4,0h-2v1h2v-1Zm-4,0h-2v1h2v-1Zm-4,0h-2v1h2v-1Zm-4,0h-2v1h2v-1Zm-4,0h-2v1h2v-1Zm-4,0h-2v1h2v-1Zm-4,0h-2v1h2v-1Zm-4,0h-2v1h2v-1Zm-4,0h-2v1h2v-1Zm-4,0h-2v1h2v-1Zm-4,0h-2v1h2v-1Zm-4,0h-2v1h2v-1Zm-4,0h-2v1h2v-1Zm-4,0h-2v1h2v-1Zm-4,0h-2v1h2v-1Zm-4,0h-2v1h2v-1Zm-4,0h-2v1h2v-1Zm-4,0h-2v1h2v-1Zm-4,0h-2v1h2v-1Zm-4,0h-2v1h2v-1Zm-4,0h-2v1h2v-1Zm-4,0h-2v1h2v-1Zm-4,0h-2v1h2v-1Zm-4,0h-2v1h2v-1Zm-4,0h-2v1h2v-1Zm-4,0h-2v1h2v-1Zm-4,0h-2v1h2v-1Zm-4,0h-2v1h2v-1Zm-4,0h-2v1h2v-1Zm-4,0h-2v1h2v-1Zm-4,0h-2v1h2v-1Zm-4,0h-2v1h2v-1Zm-4,0h-2v1h2v-1Zm-4,0h-2v1h2v-1Zm-4,0h-2v1h2v-1Zm-4,0h-2v1h2v-1Zm-4,0h-2v1h2v-1Zm-4,0h-2v1h2v-1Zm-4,0h-2v1h2v-1Zm-4,0h-2v1h2v-1Zm-3.44,0H92v1h0v.56h1v-1.56Zm0,3.56H92v2h1v-2Zm0,4H92v2h1v-2Zm0,4H92v2h1v-2Zm0,4H92v2h1v-2Zm0,4H92v2h1v-2Zm0,4H92v2h1v-2Zm0,4H92v2h1v-2Zm0,4H92v2h1v-2Zm0,4H92v2h1v-2Zm0,4H92v2h1v-2Zm0,4H92v2h1v-2Zm0,4H92v2h1v-2Zm.18,3.82H92v.18h0v0h0v.82h1.18v-1Zm4,0h-2v1h2v-1Zm4,0h-2v1h2v-1Zm4,0h-2v1h2v-1Zm4,0h-2v1h2v-1Zm4,0h-2v1h2v-1Zm4,0h-2v1h2v-1Zm4,0h-2v1h2v-1Zm4,0h-2v1h2v-1Zm4,0h-2v1h2v-1Zm4,0h-2v1h2v-1Zm4,0h-2v1h2v-1Zm4,0h-2v1h2v-1Zm4,0h-2v1h2v-1Zm4,0h-2v1h2v-1Zm4,0h-2v1h2v-1Zm4,0h-2v1h2v-1Zm4,0h-2v1h2v-1Zm4,0h-2v1h2v-1Zm4,0h-2v1h2v-1Zm4,0h-2v1h2v-1Zm4,0h-2v1h2v-1Zm4,0h-2v1h2v-1Zm4,0h-2v1h2v-1Zm4,0h-2v1h2v-1Zm4,0h-2v1h2v-1Zm4,0h-2v1h2v-1Zm4,0h-2v1h2v-1Zm4,0h-2v1h2v-1Zm4,0h-2v1h2v-1Zm4,0h-2v1h2v-1Zm4,0h-2v1h2v-1Zm4,0h-2v1h2v-1Zm4,0h-2v1h2v-1Zm4,0h-2v1h2v-1Zm4,0h-2v1h2v-1Zm4,0h-2v1h2v-1Zm4,0h-2v1h2v-1Zm4,0h-2v1h2v-1Zm4,0h-2v1h2v-1Zm4,0h-2v1h2v-1Zm4,0h-2v1h2v-1Zm4,0h-2v1h2v-1Zm4,0h-2v1h2v-1Zm4,0h-2v1h2v-1Zm4,0h-2v1h2v-1Zm4,0h-2v1h2v-1Zm4,0h-2v1h2v-1Zm4,0h-2v1h2v-1Zm4,0h-2v1h2v-1Zm4,0h-2v1h2v-1Zm4,0h-2v1h2v-1Zm4,0h-2v1h2v-1Zm4,0h-2v1h2v-1Zm4,0h-2v1h2v-1Zm4,0h-2v1h2v-1Zm4,0h-2v1h2v-1Zm4,0h-2v1h2v-1Zm4,0h-2v1h2v-1Zm4,0h-2v1h2v-1Zm4,0h-2v1h2v-1Zm4,0h-2v1h2v-1Zm4,0h-2v1h2v-1Zm4,0h-2v1h2v-1Zm4,0h-2v1h2v-1Zm4,0h-2v1h2v-1Zm4,0h-2v1h2v-1Zm4,0h-2v1h2v-1Zm4,0h-2v1h2v-1Zm4,0h-2v1h2v-1Zm4,0h-2v1h2v-1Zm4,0h-2v1h2v-1Zm4,0h-2v1h2v-1Zm3.26,0h-1.26v1h1.26v-1Zm0-3.74h-1v2h1v-2Zm0-4h-1v2h1v-2Zm0-4h-1v2h1v-2Zm0-4h-1v2h1v-2Zm0-4h-1v2h1v-2Zm0-4h-1v2h1v-2Zm0-4h-1v2h1v-2Zm0-4h-1v2h1v-2Zm0-4h-1v2h1v-2Zm0-4h-1v2h1v-2Zm0-4h-1v2h1v-2Zm0-4h-1v2h1v-2Zm0-3.64h-2v1h1v.64h1v-1.64Z"/><path class="cls-2" d="M119.89,704.79a8.08,8.08,0,0,1,8.26-8.25c5,0,7.5,3.4,7.5,7.62a14.62,14.62,0,0,1-.22,2.27H124V702.9h7.69l-.76,1c0-2.08-.82-3.21-2.58-3.21-2.08,0-3.22,1.32-3.22,4.15s1.45,4.16,4.35,4.16a8.8,8.8,0,0,0,3.78-.94l1.77,3.21a12.49,12.49,0,0,1-6.31,1.83C123.74,713.05,119.89,710,119.89,704.79Z"/><path class="cls-2" d="M139.24,696.92h4.41l.38,1.89h.12a7.48,7.48,0,0,1,5.26-2.27c3.5,0,5,2.52,5,6.43v9.7H149v-9c0-1.76-.44-2.52-1.82-2.52a3.52,3.52,0,0,0-2.52,1.2v10.33h-5.42Z"/><path class="cls-2" d="M161.23,706v-4.85h-3.78v-4l4-.19.69-4.73h4.48v4.73h6.24v4.22h-6.24v4.76c0,2.23,1,2.93,3,2.93a8.74,8.74,0,0,0,2.87-.51l1,3.91a18.92,18.92,0,0,1-5.23.82C163.12,713.05,161.23,710.21,161.23,706Z"/><path class="cls-2" d="M178.3,696.92h4.45l.41,3.34h.12a7,7,0,0,1,6.15-3.72,6.37,6.37,0,0,1,3,.63l-1.07,4.54a8.2,8.2,0,0,0-2.74-.44c-1.8,0-3.72.94-4.89,3.59v7.81H178.3Z"/><path class="cls-2" d="M196,718.28l1-4.1a3.76,3.76,0,0,0,1.13.19c1.67,0,2.52-.63,2.93-1.57l.25-.7-6.61-15.18H200l2.21,6.05c.54,1.51,1,3.08,1.42,4.79h.12c.38-1.61.89-3.22,1.36-4.79l1.89-6.05h5.1l-5.92,15.5c-1.67,4.25-3.53,6.18-7.66,6.18A9.84,9.84,0,0,1,196,718.28Z"/><path class="cls-2" d="M214.85,700.38h14.87v3.78H214.85Z"/><path class="cls-2" d="M233.69,704.79c0-5.23,4.35-8.25,9.23-8.25a8.73,8.73,0,0,1,6,2.08L246.42,702a5.45,5.45,0,0,0-3.18-1.07,3.73,3.73,0,0,0-4,3.9,3.66,3.66,0,0,0,3.81,3.91,7.38,7.38,0,0,0,3.88-1.32l2.14,3.4a10.54,10.54,0,0,1-6.55,2.27C237.54,713.05,233.69,710,233.69,704.79Z"/><path class="cls-2" d="M252,704.79a8.13,8.13,0,1,1,8.13,8.26A8,8,0,0,1,252,704.79Zm10.71,0c0-2.39-.76-3.9-2.58-3.9s-2.59,1.51-2.59,3.9.76,3.91,2.59,3.91S262.68,707.19,262.68,704.79Z"/><path class="cls-2" d="M271.56,696.92H276l.38,1.89h.13a7.48,7.48,0,0,1,5.26-2.27c3.5,0,5,2.52,5,6.43v9.7h-5.42v-9c0-1.76-.44-2.52-1.83-2.52a3.54,3.54,0,0,0-2.52,1.2v10.33h-5.42Z"/><path class="cls-2" d="M293.55,706v-4.85h-3.78v-4l4-.19.69-4.73H299v4.73h6.24v4.22H299v4.76c0,2.23,1,2.93,3.06,2.93a8.79,8.79,0,0,0,2.87-.51l.94,3.91a18.79,18.79,0,0,1-5.23.82C295.45,713.05,293.55,710.21,293.55,706Z"/><path class="cls-2" d="M308.93,704.79a8.08,8.08,0,0,1,8.26-8.25c5,0,7.49,3.4,7.49,7.62a13.46,13.46,0,0,1-.22,2.27H313V702.9h7.68l-.75,1c0-2.08-.82-3.21-2.59-3.21-2.08,0-3.21,1.32-3.21,4.15s1.45,4.16,4.35,4.16a8.8,8.8,0,0,0,3.78-.94l1.76,3.21a12.45,12.45,0,0,1-6.3,1.83C312.77,713.05,308.93,710,308.93,704.79Z"/><path class="cls-2" d="M328.27,696.92h4.42l.37,1.89h.13a7.48,7.48,0,0,1,5.26-2.27c3.5,0,5,2.52,5,6.43v9.7H338v-9c0-1.76-.44-2.52-1.83-2.52a3.54,3.54,0,0,0-2.52,1.2v10.33h-5.42Z"/><path class="cls-2" d="M350.27,706v-4.85h-3.79v-4l4-.19.69-4.73h4.48v4.73h6.23v4.22h-6.23v4.76c0,2.23,1,2.93,3.05,2.93a8.79,8.79,0,0,0,2.87-.51l.94,3.91a18.79,18.79,0,0,1-5.23.82C352.16,713.05,350.27,710.21,350.27,706Z"/><rect class="cls-3" x="91.96" y="458.3" width="292.44" height="52.38"/><path class="cls-1" d="M380.4,458.3h-2v1h2v-1Zm-4,0h-2v1h2v-1Zm-4,0h-2v1h2v-1Zm-4,0h-2v1h2v-1Zm-4,0h-2v1h2v-1Zm-4,0h-2v1h2v-1Zm-4,0h-2v1h2v-1Zm-4,0h-2v1h2v-1Zm-4,0h-2v1h2v-1Zm-4,0h-2v1h2v-1Zm-4,0h-2v1h2v-1Zm-4,0h-2v1h2v-1Zm-4,0h-2v1h2v-1Zm-4,0h-2v1h2v-1Zm-4,0h-2v1h2v-1Zm-4,0h-2v1h2v-1Zm-4,0h-2v1h2v-1Zm-4,0h-2v1h2v-1Zm-4,0h-2v1h2v-1Zm-4,0h-2v1h2v-1Zm-4,0h-2v1h2v-1Zm-4,0h-2v1h2v-1Zm-4,0h-2v1h2v-1Zm-4,0h-2v1h2v-1Zm-4,0h-2v1h2v-1Zm-4,0h-2v1h2v-1Zm-4,0h-2v1h2v-1Zm-4,0h-2v1h2v-1Zm-4,0h-2v1h2v-1Zm-4,0h-2v1h2v-1Zm-4,0h-2v1h2v-1Zm-4,0h-2v1h2v-1Zm-4,0h-2v1h2v-1Zm-4,0h-2v1h2v-1Zm-4,0h-2v1h2v-1Zm-4,0h-2v1h2v-1Zm-4,0h-2v1h2v-1Zm-4,0h-2v1h2v-1Zm-4,0h-2v1h2v-1Zm-4,0h-2v1h2v-1Zm-4,0h-2v1h2v-1Zm-4,0h-2v1h2v-1Zm-4,0h-2v1h2v-1Zm-4,0h-2v1h2v-1Zm-4,0h-2v1h2v-1Zm-4,0h-2v1h2v-1Zm-4,0h-2v1h2v-1Zm-4,0h-2v1h2v-1Zm-4,0h-2v1h2v-1Zm-4,0h-2v1h2v-1Zm-4,0h-2v1h2v-1Zm-4,0h-2v1h2v-1Zm-4,0h-2v1h2v-1Zm-4,0h-2v1h2v-1Zm-4,0h-2v1h2v-1Zm-4,0h-2v1h2v-1Zm-4,0h-2v1h2v-1Zm-4,0h-2v1h2v-1Zm-4,0h-2v1h2v-1Zm-4,0h-2v1h2v-1Zm-4,0h-2v1h2v-1Zm-4,0h-2v1h2v-1Zm-4,0h-2v1h2v-1Zm-4,0h-2v1h2v-1Zm-4,0h-2v1h2v-1Zm-4,0h-2v1h2v-1Zm-4,0h-2v1h2v-1Zm-4,0h-2v1h2v-1Zm-4,0h-2v1h2v-1Zm-4,0h-2v1h2v-1Zm-4,0h-2v1h2v-1Zm-4,0h-2v1h2v-1Zm-3.44,0H92v1h0v.56h1V458.3Zm0,3.56H92v2h1v-2Zm0,4H92v2h1v-2Zm0,4H92v2h1v-2Zm0,4H92v2h1v-2Zm0,4H92v2h1v-2Zm0,4H92v2h1v-2Zm0,4H92v2h1v-2Zm0,4H92v2h1v-2Zm0,4H92v2h1v-2Zm0,4H92v2h1v-2Zm0,4H92v2h1v-2Zm0,4H92v2h1v-2Zm.18,3.82H92v.18h0v0h0v.82h1.18v-1Zm4,0h-2v1h2v-1Zm4,0h-2v1h2v-1Zm4,0h-2v1h2v-1Zm4,0h-2v1h2v-1Zm4,0h-2v1h2v-1Zm4,0h-2v1h2v-1Zm4,0h-2v1h2v-1Zm4,0h-2v1h2v-1Zm4,0h-2v1h2v-1Zm4,0h-2v1h2v-1Zm4,0h-2v1h2v-1Zm4,0h-2v1h2v-1Zm4,0h-2v1h2v-1Zm4,0h-2v1h2v-1Zm4,0h-2v1h2v-1Zm4,0h-2v1h2v-1Zm4,0h-2v1h2v-1Zm4,0h-2v1h2v-1Zm4,0h-2v1h2v-1Zm4,0h-2v1h2v-1Zm4,0h-2v1h2v-1Zm4,0h-2v1h2v-1Zm4,0h-2v1h2v-1Zm4,0h-2v1h2v-1Zm4,0h-2v1h2v-1Zm4,0h-2v1h2v-1Zm4,0h-2v1h2v-1Zm4,0h-2v1h2v-1Zm4,0h-2v1h2v-1Zm4,0h-2v1h2v-1Zm4,0h-2v1h2v-1Zm4,0h-2v1h2v-1Zm4,0h-2v1h2v-1Zm4,0h-2v1h2v-1Zm4,0h-2v1h2v-1Zm4,0h-2v1h2v-1Zm4,0h-2v1h2v-1Zm4,0h-2v1h2v-1Zm4,0h-2v1h2v-1Zm4,0h-2v1h2v-1Zm4,0h-2v1h2v-1Zm4,0h-2v1h2v-1Zm4,0h-2v1h2v-1Zm4,0h-2v1h2v-1Zm4,0h-2v1h2v-1Zm4,0h-2v1h2v-1Zm4,0h-2v1h2v-1Zm4,0h-2v1h2v-1Zm4,0h-2v1h2v-1Zm4,0h-2v1h2v-1Zm4,0h-2v1h2v-1Zm4,0h-2v1h2v-1Zm4,0h-2v1h2v-1Zm4,0h-2v1h2v-1Zm4,0h-2v1h2v-1Zm4,0h-2v1h2v-1Zm4,0h-2v1h2v-1Zm4,0h-2v1h2v-1Zm4,0h-2v1h2v-1Zm4,0h-2v1h2v-1Zm4,0h-2v1h2v-1Zm4,0h-2v1h2v-1Zm4,0h-2v1h2v-1Zm4,0h-2v1h2v-1Zm4,0h-2v1h2v-1Zm4,0h-2v1h2v-1Zm4,0h-2v1h2v-1Zm4,0h-2v1h2v-1Zm4,0h-2v1h2v-1Zm4,0h-2v1h2v-1Zm4,0h-2v1h2v-1Zm4,0h-2v1h2v-1Zm3.26,0h-1.26v1h1.26v-1Zm0-3.74h-1v2h1v-2Zm0-4h-1v2h1v-2Zm0-4h-1v2h1v-2Zm0-4h-1v2h1v-2Zm0-4h-1v2h1v-2Zm0-4h-1v2h1v-2Zm0-4h-1v2h1v-2Zm0-4h-1v2h1v-2Zm0-4h-1v2h1v-2Zm0-4h-1v2h1v-2Zm0-4h-1v2h1v-2Zm0-4h-1v2h1v-2Zm0-3.64h-2v1h1v.64h1V458.3Z"/><path class="cls-2" d="M119.89,485.3a8.08,8.08,0,0,1,8.26-8.25c5,0,7.5,3.4,7.5,7.62a14.62,14.62,0,0,1-.22,2.27H124v-3.53h7.69l-.76.95c0-2.08-.82-3.22-2.58-3.22-2.08,0-3.22,1.33-3.22,4.16s1.45,4.16,4.35,4.16a8.8,8.8,0,0,0,3.78-.94l1.77,3.21a12.49,12.49,0,0,1-6.31,1.83C123.74,493.56,119.89,490.53,119.89,485.3Z"/><path class="cls-2" d="M139.24,477.43h4.41l.38,1.89h.12a7.48,7.48,0,0,1,5.26-2.27c3.5,0,5,2.52,5,6.43v9.7H149v-9c0-1.77-.44-2.52-1.82-2.52a3.52,3.52,0,0,0-2.52,1.2v10.33h-5.42Z"/><path class="cls-2" d="M161.23,486.5v-4.85h-3.78v-4l4-.18.69-4.73h4.48v4.73h6.24v4.22h-6.24v4.76c0,2.23,1,2.93,3,2.93a8.74,8.74,0,0,0,2.87-.51l1,3.91a18.92,18.92,0,0,1-5.23.82C163.12,493.56,161.23,490.72,161.23,486.5Z"/><path class="cls-2" d="M178.3,477.43h4.45l.41,3.34h.12a7,7,0,0,1,6.15-3.72,6.37,6.37,0,0,1,3,.63l-1.07,4.53a8.46,8.46,0,0,0-2.74-.44c-1.8,0-3.72,1-4.89,3.6v7.81H178.3Z"/><path class="cls-2" d="M196,498.79l1-4.1a3.76,3.76,0,0,0,1.13.19c1.67,0,2.52-.63,2.93-1.57l.25-.7-6.61-15.18H200l2.21,6.05c.54,1.51,1,3.08,1.42,4.78h.12c.38-1.6.89-3.21,1.36-4.78l1.89-6.05h5.1l-5.92,15.5c-1.67,4.25-3.53,6.17-7.66,6.17A9.86,9.86,0,0,1,196,498.79Z"/><path class="cls-2" d="M214.85,480.89h14.87v3.78H214.85Z"/><path class="cls-2" d="M233.76,471.25h5.41v5.1l-.31,2.78H239a6.88,6.88,0,0,1,5-2.08c3.47,0,5,2.52,5,6.43v9.7h-5.42v-9c0-1.77-.44-2.52-1.82-2.52a3.54,3.54,0,0,0-2.53,1.2v10.33h-5.41Z"/><path class="cls-2" d="M252.22,485.3a8.08,8.08,0,0,1,8.25-8.25c5,0,7.5,3.4,7.5,7.62a13.46,13.46,0,0,1-.22,2.27H256.31v-3.53H264l-.75.95c0-2.08-.82-3.22-2.59-3.22-2.08,0-3.21,1.33-3.21,4.16s1.45,4.16,4.35,4.16a8.8,8.8,0,0,0,3.78-.94l1.76,3.21a12.48,12.48,0,0,1-6.3,1.83C256.06,493.56,252.22,490.53,252.22,485.3Z"/><path class="cls-2" d="M271.25,488.71c0-3.53,2.77-5.36,10-5.74-.19-1.13-1.27-1.64-3-1.64a10.71,10.71,0,0,0-4.54,1.33l-1.89-3.53a15.23,15.23,0,0,1,7.5-2.08c4.48,0,7.37,2.2,7.37,7.37v8.76h-4.41l-.38-1.64h-.12a9.23,9.23,0,0,1-5.36,2A4.77,4.77,0,0,1,271.25,488.71Zm10-.51v-2c-3.85.12-4.79,1-4.79,2.07,0,.73.56,1.14,1.7,1.14A5.14,5.14,0,0,0,281.21,488.2Z"/><path class="cls-2" d="M289.77,485.3c0-5.16,3.28-8.25,6.59-8.25a4.64,4.64,0,0,1,3.69,1.57h.12l-.25-2.27v-5.1h5.42v21.93h-4.41l-.38-1.45h-.13a6.18,6.18,0,0,1-4.06,1.83C292.36,493.56,289.77,490.41,289.77,485.3ZM299.92,488v-5.8a3,3,0,0,0-2.08-.75c-1.32,0-2.52,1-2.52,3.78s.91,3.91,2.46,3.91A2.3,2.3,0,0,0,299.92,488Z"/><path class="cls-2" d="M308.93,485.3a8.08,8.08,0,0,1,8.26-8.25c5,0,7.49,3.4,7.49,7.62a13.46,13.46,0,0,1-.22,2.27H313v-3.53h7.68l-.75.95c0-2.08-.82-3.22-2.59-3.22-2.08,0-3.21,1.33-3.21,4.16s1.45,4.16,4.35,4.16a8.8,8.8,0,0,0,3.78-.94l1.76,3.21a12.45,12.45,0,0,1-6.3,1.83C312.77,493.56,308.93,490.53,308.93,485.3Z"/><path class="cls-2" d="M329.53,477.43H334l.41,3.34h.12a7,7,0,0,1,6.15-3.72,6.37,6.37,0,0,1,3,.63l-1.07,4.53a8.46,8.46,0,0,0-2.74-.44c-1.8,0-3.72,1-4.89,3.6v7.81h-5.42Z"/><rect class="cls-3" x="128.54" y="544.94" width="292.44" height="52.38"/><path class="cls-1" d="M417,544.94h-2v1h2v-1Zm-4,0h-2v1h2v-1Zm-4,0h-2v1h2v-1Zm-4,0h-2v1h2v-1Zm-4,0h-2v1h2v-1Zm-4,0h-2v1h2v-1Zm-4,0h-2v1h2v-1Zm-4,0h-2v1h2v-1Zm-4,0h-2v1h2v-1Zm-4,0h-2v1h2v-1Zm-4,0h-2v1h2v-1Zm-4,0h-2v1h2v-1Zm-4,0h-2v1h2v-1Zm-4,0h-2v1h2v-1Zm-4,0h-2v1h2v-1Zm-4,0h-2v1h2v-1Zm-4,0h-2v1h2v-1Zm-4,0h-2v1h2v-1Zm-4,0h-2v1h2v-1Zm-4,0h-2v1h2v-1Zm-4,0h-2v1h2v-1Zm-4,0h-2v1h2v-1Zm-4,0h-2v1h2v-1Zm-4,0h-2v1h2v-1Zm-4,0h-2v1h2v-1Zm-4,0h-2v1h2v-1Zm-4,0h-2v1h2v-1Zm-4,0h-2v1h2v-1Zm-4,0h-2v1h2v-1Zm-4,0h-2v1h2v-1Zm-4,0h-2v1h2v-1Zm-4,0h-2v1h2v-1Zm-4,0h-2v1h2v-1Zm-4,0h-2v1h2v-1Zm-4,0h-2v1h2v-1Zm-4,0h-2v1h2v-1Zm-4,0h-2v1h2v-1Zm-4,0h-2v1h2v-1Zm-4,0h-2v1h2v-1Zm-4,0h-2v1h2v-1Zm-4,0h-2v1h2v-1Zm-4,0h-2v1h2v-1Zm-4,0h-2v1h2v-1Zm-4,0h-2v1h2v-1Zm-4,0h-2v1h2v-1Zm-4,0h-2v1h2v-1Zm-4,0h-2v1h2v-1Zm-4,0h-2v1h2v-1Zm-4,0h-2v1h2v-1Zm-4,0h-2v1h2v-1Zm-4,0h-2v1h2v-1Zm-4,0h-2v1h2v-1Zm-4,0h-2v1h2v-1Zm-4,0h-2v1h2v-1Zm-4,0h-2v1h2v-1Zm-4,0h-2v1h2v-1Zm-4,0h-2v1h2v-1Zm-4,0h-2v1h2v-1Zm-4,0h-2v1h2v-1Zm-4,0h-2v1h2v-1Zm-4,0h-2v1h2v-1Zm-4,0h-2v1h2v-1Zm-4,0h-2v1h2v-1Zm-4,0h-2v1h2v-1Zm-4,0h-2v1h2v-1Zm-4,0h-2v1h2v-1Zm-4,0h-2v1h2v-1Zm-4,0h-2v1h2v-1Zm-4,0h-2v1h2v-1Zm-4,0h-2v1h2v-1Zm-4,0h-2v1h2v-1Zm-4,0h-2v1h2v-1Zm-3.45,0h-1v1h0v.56h1v-1.56Zm0,3.56h-1v2h1v-2Zm0,4h-1v2h1v-2Zm0,4h-1v2h1v-2Zm0,4h-1v2h1v-2Zm0,4h-1v2h1v-2Zm0,4h-1v2h1v-2Zm0,4h-1v2h1v-2Zm0,4h-1v2h1v-2Zm0,4h-1v2h1v-2Zm0,4h-1v2h1v-2Zm0,4h-1v2h1v-2Zm0,4h-1v2h1v-2Zm.18,3.82h-1.18v.18h0v0h0v.82h1.18v-1Zm4,0h-2v1h2v-1Zm4,0h-2v1h2v-1Zm4,0h-2v1h2v-1Zm4,0h-2v1h2v-1Zm4,0h-2v1h2v-1Zm4,0h-2v1h2v-1Zm4,0h-2v1h2v-1Zm4,0h-2v1h2v-1Zm4,0h-2v1h2v-1Zm4,0h-2v1h2v-1Zm4,0h-2v1h2v-1Zm4,0h-2v1h2v-1Zm4,0h-2v1h2v-1Zm4,0h-2v1h2v-1Zm4,0h-2v1h2v-1Zm4,0h-2v1h2v-1Zm4,0h-2v1h2v-1Zm4,0h-2v1h2v-1Zm4,0h-2v1h2v-1Zm4,0h-2v1h2v-1Zm4,0h-2v1h2v-1Zm4,0h-2v1h2v-1Zm4,0h-2v1h2v-1Zm4,0h-2v1h2v-1Zm4,0h-2v1h2v-1Zm4,0h-2v1h2v-1Zm4,0h-2v1h2v-1Zm4,0h-2v1h2v-1Zm4,0h-2v1h2v-1Zm4,0h-2v1h2v-1Zm4,0h-2v1h2v-1Zm4,0h-2v1h2v-1Zm4,0h-2v1h2v-1Zm4,0h-2v1h2v-1Zm4,0h-2v1h2v-1Zm4,0h-2v1h2v-1Zm4,0h-2v1h2v-1Zm4,0h-2v1h2v-1Zm4,0h-2v1h2v-1Zm4,0h-2v1h2v-1Zm4,0h-2v1h2v-1Zm4,0h-2v1h2v-1Zm4,0h-2v1h2v-1Zm4,0h-2v1h2v-1Zm4,0h-2v1h2v-1Zm4,0h-2v1h2v-1Zm4,0h-2v1h2v-1Zm4,0h-2v1h2v-1Zm4,0h-2v1h2v-1Zm4,0h-2v1h2v-1Zm4,0h-2v1h2v-1Zm4,0h-2v1h2v-1Zm4,0h-2v1h2v-1Zm4,0h-2v1h2v-1Zm4,0h-2v1h2v-1Zm4,0h-2v1h2v-1Zm4,0h-2v1h2v-1Zm4,0h-2v1h2v-1Zm4,0h-2v1h2v-1Zm4,0h-2v1h2v-1Zm4,0h-2v1h2v-1Zm4,0h-2v1h2v-1Zm4,0h-2v1h2v-1Zm4,0h-2v1h2v-1Zm4,0h-2v1h2v-1Zm4,0h-2v1h2v-1Zm4,0h-2v1h2v-1Zm4,0h-2v1h2v-1Zm4,0h-2v1h2v-1Zm4,0h-2v1h2v-1Zm4,0h-2v1h2v-1Zm4,0h-2v1h2v-1Zm3.27,0h-1.27v1H421v-1Zm0-3.74h-1v2h1v-2Zm0-4h-1v2h1v-2Zm0-4h-1v2h1v-2Zm0-4h-1v2h1v-2Zm0-4h-1v2h1v-2Zm0-4h-1v2h1v-2Zm0-4h-1v2h1v-2Zm0-4h-1v2h1v-2Zm0-4h-1v2h1v-2Zm0-4h-1v2h1v-2Zm0-4h-1v2h1v-2Zm0-4h-1v2h1v-2Zm0-3.64h-2v1h1v.64h1v-1.64Z"/><path class="cls-2" d="M156.47,572a8.09,8.09,0,0,1,8.26-8.26c5,0,7.5,3.4,7.5,7.62a14.48,14.48,0,0,1-.22,2.27H160.57v-3.53h7.69l-.76,1c0-2.08-.82-3.21-2.58-3.21-2.08,0-3.22,1.32-3.22,4.16s1.45,4.15,4.35,4.15a8.77,8.77,0,0,0,3.78-.94l1.77,3.21a12.48,12.48,0,0,1-6.3,1.83C160.32,580.2,156.47,577.18,156.47,572Z"/><path class="cls-2" d="M175.82,564.07h4.41l.38,1.89h.12a7.51,7.51,0,0,1,5.27-2.27c3.49,0,5,2.52,5,6.43v9.7h-5.42v-9c0-1.76-.44-2.52-1.83-2.52a3.52,3.52,0,0,0-2.52,1.2v10.33h-5.42Z"/><path class="cls-2" d="M197.81,573.14v-4.85H194v-4l4-.19.7-4.73h4.47v4.73h6.24v4.22h-6.24v4.76c0,2.24,1,2.93,3.06,2.93a8.72,8.72,0,0,0,2.86-.51l.95,3.91a18.92,18.92,0,0,1-5.23.82C199.7,580.2,197.81,577.36,197.81,573.14Z"/><path class="cls-2" d="M214.89,564.07h4.44l.41,3.34h.12a7,7,0,0,1,6.15-3.72,6.37,6.37,0,0,1,3,.63l-1.07,4.54a8.16,8.16,0,0,0-2.74-.44c-1.8,0-3.72.94-4.88,3.59v7.81h-5.42Z"/><path class="cls-2" d="M232.62,585.43l.95-4.1a3.76,3.76,0,0,0,1.13.19c1.67,0,2.52-.63,2.93-1.57l.26-.7-6.62-15.18h5.36l2.2,6c.54,1.51,1,3.09,1.42,4.79h.13c.37-1.61.88-3.22,1.35-4.79l1.89-6h5.11l-5.93,15.5c-1.67,4.25-3.53,6.18-7.65,6.18A9.86,9.86,0,0,1,232.62,585.43Z"/><path class="cls-2" d="M251.43,567.53h14.88v3.78H251.43Z"/><path class="cls-2" d="M273.43,573.14v-4.85h-3.79v-4l4-.19.69-4.73h4.47v4.73h6.24v4.22h-6.24v4.76c0,2.24,1,2.93,3.06,2.93a8.79,8.79,0,0,0,2.87-.51l.94,3.91a18.79,18.79,0,0,1-5.23.82C275.32,580.2,273.43,577.36,273.43,573.14Z"/><path class="cls-2" d="M295.54,568.29h-6v-4.22H301v15.75h-5.42Zm-.94-9.52a3.48,3.48,0,0,1,6.93,0,3.48,3.48,0,0,1-6.93,0Z"/><path class="cls-2" d="M311.23,573.14v-4.85h-3.78v-4l4-.19.7-4.73h4.47v4.73h6.24v4.22h-6.24v4.76c0,2.24,1,2.93,3.06,2.93a8.79,8.79,0,0,0,2.87-.51l.94,3.91a18.86,18.86,0,0,1-5.23.82C313.12,580.2,311.23,577.36,311.23,573.14Z"/><path class="cls-2" d="M331,573.33V562.11h-4.73v-4.22h10.15v15.63a2.14,2.14,0,0,0,2.36,2.33,6.67,6.67,0,0,0,2.27-.44l1.17,4a14.74,14.74,0,0,1-4.89.82C333.16,580.2,331,577.43,331,573.33Z"/><path class="cls-2" d="M345.51,572a8.08,8.08,0,0,1,8.26-8.26c5,0,7.5,3.4,7.5,7.62a14.48,14.48,0,0,1-.22,2.27H349.61v-3.53h7.69l-.76,1c0-2.08-.82-3.21-2.58-3.21-2.08,0-3.22,1.32-3.22,4.16s1.45,4.15,4.35,4.15a8.8,8.8,0,0,0,3.78-.94l1.77,3.21a12.49,12.49,0,0,1-6.31,1.83C349.36,580.2,345.51,577.18,345.51,572Z"/><path class="cls-4" d="M104.85,252.75h4.47l-10.4,27.41H94.45Z"/><path class="cls-4" d="M123.75,252.75h4.47l-10.39,27.41h-4.48Z"/><path class="cls-4" d="M154.25,268.44v-4.85h-3.78v-4l4-.19.69-4.72h4.48v4.72h6.24v4.23h-6.24v4.76c0,2.23,1,2.93,3.05,2.93a9.06,9.06,0,0,0,2.87-.51l.95,3.91a18.92,18.92,0,0,1-5.23.82C156.14,275.5,154.25,272.66,154.25,268.44Z"/><path class="cls-4" d="M170.06,253.19h5.42v5.1l-.31,2.78h.12a6.93,6.93,0,0,1,5-2.08c3.47,0,5,2.52,5,6.42v9.71h-5.42v-9c0-1.77-.44-2.52-1.83-2.52a3.56,3.56,0,0,0-2.52,1.19v10.34h-5.42Z"/><path class="cls-4" d="M188.72,269.07v-9.71h5.41v9c0,1.76.38,2.52,1.8,2.52a2.59,2.59,0,0,0,2.36-1.39V259.36h5.42v15.76H199.3l-.38-2.08h-.12a6.48,6.48,0,0,1-5.11,2.46C190.16,275.5,188.72,273,188.72,269.07Z"/><path class="cls-4" d="M206.67,259.36h4l.37,1.9h.13a3.44,3.44,0,0,1,3.34-2.27c1.29,0,2.3.88,2.65,2.52a3.52,3.52,0,0,1,3.4-2.52c2.27,0,3.53,2,3.53,5.16v11H219V264.53c0-.66-.13-.94-.54-.94s-.76.38-1,1.19v10.34h-4.1V264.53c0-.66-.22-.94-.63-.94s-.66.38-.94,1.19v10.34h-5.11Z"/><path class="cls-4" d="M231.56,273.42h-.12l-.44,1.7h-4.23V253.19h5.42v5.1l-.18,2.27h.12a5.82,5.82,0,0,1,3.94-1.57c3.81,0,6.27,3.15,6.27,8,0,5.45-3.28,8.54-6.71,8.54A5.51,5.51,0,0,1,231.56,273.42Zm5.23-6.37c0-2.58-.78-3.65-2.33-3.65a2.9,2.9,0,0,0-2.27,1.13v5.8a3.21,3.21,0,0,0,2.15.76C235.66,271.09,236.79,270.08,236.79,267.05Z"/><path class="cls-4" d="M245.68,259.36h4.41l.38,1.9h.12a7.51,7.51,0,0,1,5.27-2.27c3.49,0,5,2.52,5,6.42v9.71h-5.42v-9c0-1.77-.44-2.52-1.83-2.52a3.55,3.55,0,0,0-2.52,1.19v10.34h-5.42Z"/><path class="cls-4" d="M264.27,270.65c0-3.53,2.77-5.36,10-5.74-.18-1.13-1.26-1.64-3-1.64a10.71,10.71,0,0,0-4.54,1.33l-1.89-3.53a15.23,15.23,0,0,1,7.5-2.08c4.48,0,7.37,2.2,7.37,7.37v8.76h-4.41l-.38-1.64h-.12a9.26,9.26,0,0,1-5.36,2A4.76,4.76,0,0,1,264.27,270.65Zm10-.51v-2c-3.84.13-4.78,1-4.78,2.08,0,.73.56,1.14,1.7,1.14A5.08,5.08,0,0,0,274.22,270.14Z"/><path class="cls-4" d="M289.79,263.59h-6v-4.23h11.41v15.76h-5.42Zm-1-9.52a3.48,3.48,0,0,1,6.93,0,3.48,3.48,0,0,1-6.93,0Z"/><path class="cls-4" d="M306.36,268.63V257.41h-4.73v-4.22h10.15v15.63a2.14,2.14,0,0,0,2.36,2.33,6.92,6.92,0,0,0,2.27-.44l1.17,4a15,15,0,0,1-4.89.82C308.5,275.5,306.36,272.73,306.36,268.63Z"/><path class="cls-4" d="M497.85,568.75h4.47l-10.4,27.41h-4.47Z"/><path class="cls-4" d="M516.75,568.75h4.47l-10.39,27.41h-4.48Z"/><path class="cls-4" d="M547.25,584.44v-4.85h-3.78v-4l4-.18.69-4.73h4.48v4.73h6.24v4.22h-6.24v4.76c0,2.23,1,2.93,3.05,2.93a9.06,9.06,0,0,0,2.87-.51l.95,3.91a18.92,18.92,0,0,1-5.23.82C549.14,591.5,547.25,588.66,547.25,584.44Z"/><path class="cls-4" d="M569.37,579.59h-6v-4.22h11.41v15.75h-5.42Zm-1-9.52a3.48,3.48,0,0,1,6.93,0,3.48,3.48,0,0,1-6.93,0Z"/><path class="cls-4" d="M585.05,584.44v-4.85h-3.78v-4l4-.18.69-4.73h4.47v4.73h6.24v4.22h-6.24v4.76c0,2.23,1,2.93,3.06,2.93a9.06,9.06,0,0,0,2.87-.51l.94,3.91a18.79,18.79,0,0,1-5.23.82C587,591.5,585.05,588.66,585.05,584.44Z"/><path class="cls-4" d="M604.84,584.63V573.41h-4.72v-4.22h10.14v15.63a2.14,2.14,0,0,0,2.36,2.33,6.88,6.88,0,0,0,2.27-.44l1.17,4a15,15,0,0,1-4.89.82C607,591.5,604.84,588.72,604.84,584.63Z"/><path class="cls-4" d="M619.33,583.24a8.08,8.08,0,0,1,8.26-8.25c5,0,7.5,3.4,7.5,7.62a14.62,14.62,0,0,1-.22,2.27H623.43v-3.53h7.69l-.76.95c0-2.08-.82-3.22-2.58-3.22-2.08,0-3.22,1.33-3.22,4.16s1.45,4.16,4.35,4.16a8.77,8.77,0,0,0,3.78-.94l1.77,3.21a12.48,12.48,0,0,1-6.3,1.83C623.18,591.5,619.33,588.47,619.33,583.24Z"/><path class="cls-4" d="M104.85,795.75h4.47l-10.4,27.41H94.45Z"/><path class="cls-4" d="M123.75,795.75h4.47l-10.39,27.41h-4.48Z"/><path class="cls-4" d="M151.1,810.24c0-5.23,4.34-8.25,9.23-8.25a8.7,8.7,0,0,1,5.95,2.08l-2.45,3.34a5.51,5.51,0,0,0-3.19-1.08,3.73,3.73,0,0,0-4,3.91,3.67,3.67,0,0,0,3.82,3.91,7.31,7.31,0,0,0,3.87-1.32l2.14,3.4a10.52,10.52,0,0,1-6.55,2.27C154.94,818.5,151.1,815.47,151.1,810.24Z"/><path class="cls-4" d="M169.37,810.24a8.13,8.13,0,1,1,8.13,8.26A8,8,0,0,1,169.37,810.24Zm10.71,0c0-2.39-.75-3.91-2.58-3.91s-2.58,1.52-2.58,3.91.75,3.91,2.58,3.91S180.08,812.64,180.08,810.24Z"/><path class="cls-4" d="M189,802.37h4.41l.38,1.89h.12a7.49,7.49,0,0,1,5.27-2.27c3.49,0,5,2.52,5,6.42v9.71h-5.41v-9c0-1.77-.45-2.52-1.83-2.52a3.52,3.52,0,0,0-2.52,1.2v10.33H189Z"/><path class="cls-4" d="M211,811.44v-4.85h-3.78v-4l4-.18.69-4.73h4.48v4.73h6.24v4.22h-6.24v4.76c0,2.23,1,2.93,3.06,2.93a9,9,0,0,0,2.86-.51l.95,3.91a18.92,18.92,0,0,1-5.23.82C212.85,818.5,211,815.66,211,811.44Z"/><path class="cls-4" d="M226.33,810.24a8.08,8.08,0,0,1,8.26-8.25c5,0,7.5,3.4,7.5,7.62a14.62,14.62,0,0,1-.22,2.27H230.43v-3.53h7.69l-.76.95c0-2.08-.82-3.22-2.58-3.22-2.08,0-3.22,1.33-3.22,4.16s1.45,4.16,4.35,4.16a8.77,8.77,0,0,0,3.78-.94l1.77,3.21a12.48,12.48,0,0,1-6.3,1.83C230.18,818.5,226.33,815.47,226.33,810.24Z"/><path class="cls-4" d="M245.68,802.37h4.41l.38,1.89h.12a7.51,7.51,0,0,1,5.27-2.27c3.49,0,5,2.52,5,6.42v9.71h-5.42v-9c0-1.77-.44-2.52-1.83-2.52a3.52,3.52,0,0,0-2.52,1.2v10.33h-5.42Z"/><path class="cls-4" d="M267.67,811.44v-4.85h-3.78v-4l4-.18.7-4.73h4.47v4.73h6.24v4.22h-6.24v4.76c0,2.23,1,2.93,3.06,2.93a9,9,0,0,0,2.86-.51l.95,3.91a18.92,18.92,0,0,1-5.23.82C269.56,818.5,267.67,815.66,267.67,811.44Z"/><path class="cls-5" d="M51.81,21.45H62.06c5.88,0,10.92,2.18,10.92,9.07,0,6.68-5.21,9.58-10.92,9.58H59v8.65H51.81Zm9.92,12.94c2.85,0,4.2-1.43,4.2-3.87s-1.52-3.36-4.2-3.36H59v7.23Z"/><path class="cls-5" d="M76.09,38.25a10.84,10.84,0,1,1,21.67,0,10.84,10.84,0,1,1-21.67,0Zm14.28,0c0-3.19-1-5.21-3.45-5.21s-3.44,2-3.44,5.21,1,5.21,3.44,5.21S90.37,41.44,90.37,38.25Z"/><path class="cls-5" d="M101.45,46.06l3-4.45A16.43,16.43,0,0,0,112.71,44c1.85,0,2.61-.5,2.61-1.26,0-1-1.09-1.17-4.62-1.93-5.8-1.26-7.9-3.44-7.9-6.72,0-4.12,3.91-6.81,10-6.81a17.53,17.53,0,0,1,9.32,2.94l-3.19,4.29a14,14,0,0,0-6.81-1.93c-1.34,0-2.18.42-2.18,1.17,0,.93,1.09,1,4.37,1.77,6.3,1.43,8.15,3.32,8.15,6.8,0,3.95-3.74,7-10.76,7A19.93,19.93,0,0,1,101.45,46.06Z"/><path class="cls-5" d="M131.53,39.85V33.38h-5V28l5.37-.25.93-6.3h6v6.3h8.32v5.63h-8.32v6.34c0,3,1.39,3.91,4.08,3.91a12.1,12.1,0,0,0,3.82-.67l1.26,5.2a25.05,25.05,0,0,1-7,1.1C134.05,49.26,131.53,45.48,131.53,39.85Z"/><path class="cls-5" d="M177.05,46.06l3-4.45A16.4,16.4,0,0,0,188.31,44c1.85,0,2.61-.5,2.61-1.26,0-1-1.1-1.17-4.63-1.93-5.79-1.26-7.89-3.44-7.89-6.72,0-4.12,3.9-6.81,10-6.81a17.59,17.59,0,0,1,9.32,2.94l-3.19,4.29a14,14,0,0,0-6.81-1.93c-1.34,0-2.18.42-2.18,1.17,0,.93,1.09,1,4.37,1.77,6.3,1.43,8.15,3.32,8.15,6.8,0,3.95-3.74,7-10.76,7A19.93,19.93,0,0,1,177.05,46.06Z"/><path class="cls-5" d="M211.41,33.38h-8V27.75h15.21v21h-7.23Zm-1.26-12.69a4.63,4.63,0,0,1,9.24,0c0,2.52-1.93,4.2-4.62,4.2S210.15,23.21,210.15,20.69Z"/><path class="cls-5" d="M228.21,27.75h5.88l.5,2.52h.17a10,10,0,0,1,7-3c4.66,0,6.68,3.36,6.68,8.57V48.75h-7.23v-12c0-2.35-.59-3.36-2.44-3.36A4.72,4.72,0,0,0,235.43,35V48.75h-7.22Z"/><path class="cls-5" d="M252.57,52.2c0-1.73,1.09-3,3.19-4V48a4.1,4.1,0,0,1-2.1-3.62,5.26,5.26,0,0,1,2.52-4v-.16a6.31,6.31,0,0,1-2.86-5.38c0-5.21,4.41-7.65,9.29-7.65a11.89,11.89,0,0,1,3.57.51h8.48V33h-3.78a4.53,4.53,0,0,1,.59,2.18c0,5-3.86,7-8.86,7a13.09,13.09,0,0,1-2.65-.3,1.3,1.3,0,0,0-.67,1.22c0,.92.92,1.26,3.28,1.26h3.57c5.54,0,8.73,1.6,8.73,5.46,0,4.54-5,7.65-12.85,7.65C256.81,57.41,252.57,56,252.57,52.2ZM268,51c0-1.09-1.18-1.26-3.28-1.26h-2.1a13.5,13.5,0,0,1-3.19-.25c-.72.5-1,.92-1,1.51,0,1.34,1.93,1.93,4.74,1.93S268,52.2,268,51Zm-2.86-16.13A2.54,2.54,0,0,0,262.61,32c-1.39,0-2.52.93-2.52,2.86s1.13,2.94,2.52,2.94S265.17,36.91,265.17,34.89Z"/><path class="cls-5" d="M283.9,40.1v-15h-6.3V19.51h13.53V40.35a2.86,2.86,0,0,0,3.15,3.11,9.07,9.07,0,0,0,3-.59l1.56,5.29a19.62,19.62,0,0,1-6.52,1.1C286.76,49.26,283.9,45.56,283.9,40.1Z"/><path class="cls-5" d="M303.22,38.25a10.78,10.78,0,0,1,11-11c6.63,0,10,4.54,10,10.17a19.49,19.49,0,0,1-.29,3H308.68v-4.7h10.25l-1,1.26c0-2.77-1.09-4.28-3.44-4.28-2.77,0-4.29,1.76-4.29,5.54,0,4,1.94,5.54,5.8,5.54a11.72,11.72,0,0,0,5-1.25l2.35,4.28a16.61,16.61,0,0,1-8.4,2.44C308.34,49.26,303.22,45.22,303.22,38.25Z"/><path class="cls-5" d="M365.48,35.75h4.16l3.92,13h-3.64l-1.46-6.32c-.28-1.24-.66-2.8-.94-4.12h-.08c-.28,1.32-.62,2.88-.9,4.12l-1.46,6.32h-3.52Zm-1.1,7.58h6.32V46h-6.32Z"/><path class="cls-5" d="M374.4,43.75c0-3.28,2.08-5.24,4.18-5.24a2.94,2.94,0,0,1,2.34,1H381l-.16-1.44V34.83h3.44V48.75h-2.8l-.24-.92h-.08A3.93,3.93,0,0,1,378.58,49C376,49,374.4,47,374.4,43.75Zm6.44,1.72V41.79a1.87,1.87,0,0,0-1.32-.48c-.84,0-1.6.64-1.6,2.4s.58,2.48,1.56,2.48A1.47,1.47,0,0,0,380.84,45.47Z"/><path class="cls-5" d="M386.08,38.75h2.56l.24,1.2H389a2.19,2.19,0,0,1,2.12-1.44,1.75,1.75,0,0,1,1.68,1.6,2.25,2.25,0,0,1,2.16-1.6c1.44,0,2.24,1.28,2.24,3.28v7h-3.24V42c0-.42-.08-.6-.34-.6s-.48.24-.66.76v6.56h-2.6V42c0-.42-.14-.6-.4-.6s-.42.24-.6.76v6.56h-3.24Z"/><path class="cls-5" d="M402.84,41.43H399V38.75h7.24v10h-3.44Zm-.6-6a2.21,2.21,0,0,1,4.4,0,2.21,2.21,0,0,1-4.4,0Z"/><path class="cls-5" d="M410.84,38.75h2.8l.24,1.2H414a4.76,4.76,0,0,1,3.34-1.44c2.22,0,3.18,1.6,3.18,4.08v6.16H417V43c0-1.12-.28-1.6-1.16-1.6a2.24,2.24,0,0,0-1.6.76v6.56h-3.44Z"/><path class="cls-5" d="M426.84,41.43H423V38.75h7.24v10h-3.44Zm-.6-6a2.21,2.21,0,0,1,4.4,0,2.21,2.21,0,0,1-4.4,0Z"/><path class="cls-5" d="M434.48,47.47l1.44-2.12a7.85,7.85,0,0,0,3.92,1.12c.88,0,1.24-.24,1.24-.6s-.52-.56-2.2-.92c-2.76-.6-3.76-1.64-3.76-3.2,0-2,1.86-3.24,4.76-3.24a8.34,8.34,0,0,1,4.44,1.4l-1.52,2a6.65,6.65,0,0,0-3.24-.92c-.64,0-1,.2-1,.56s.52.48,2.08.84c3,.68,3.88,1.58,3.88,3.24,0,1.88-1.78,3.32-5.12,3.32A9.5,9.5,0,0,1,434.48,47.47Z"/><path class="cls-5" d="M448.8,44.51V41.43h-2.4V38.87l2.56-.12.44-3h2.84v3h4v2.68h-4v3c0,1.42.66,1.86,1.94,1.86A5.68,5.68,0,0,0,456,46l.6,2.48a12,12,0,0,1-3.32.52C450,49,448.8,47.19,448.8,44.51Z"/><path class="cls-5" d="M459.64,38.75h2.82l.26,2.12h.08a4.42,4.42,0,0,1,3.9-2.36,4.07,4.07,0,0,1,1.9.4l-.68,2.88a5.29,5.29,0,0,0-1.74-.28,3.36,3.36,0,0,0-3.1,2.28v5h-3.44Z"/><path class="cls-5" d="M470.64,45.91c0-2.24,1.76-3.4,6.32-3.64-.12-.72-.8-1-1.92-1a6.84,6.84,0,0,0-2.88.84L471,39.83a9.7,9.7,0,0,1,4.76-1.32c2.84,0,4.68,1.4,4.68,4.68v5.56h-2.8l-.24-1h-.08a5.89,5.89,0,0,1-3.4,1.28A3,3,0,0,1,470.64,45.91Zm6.32-.32V44.31c-2.44.08-3,.64-3,1.32,0,.46.36.72,1.08.72A3.24,3.24,0,0,0,477,45.59Z"/><path class="cls-5" d="M484.8,44.51V41.43h-2.4V38.87l2.56-.12.44-3h2.84v3h4v2.68h-4v3c0,1.42.66,1.86,1.94,1.86A5.68,5.68,0,0,0,492,46l.6,2.48a12,12,0,0,1-3.32.52C486,49,484.8,47.19,484.8,44.51Z"/><path class="cls-5" d="M494.4,43.75A5.16,5.16,0,1,1,499.56,49,5.06,5.06,0,0,1,494.4,43.75Zm6.8,0c0-1.52-.48-2.48-1.64-2.48s-1.64,1-1.64,2.48.48,2.48,1.64,2.48S501.2,45.27,501.2,43.75Z"/><path class="cls-5" d="M507.64,38.75h2.82l.26,2.12h.08a4.42,4.42,0,0,1,3.9-2.36,4.07,4.07,0,0,1,1.9.4l-.68,2.88a5.29,5.29,0,0,0-1.74-.28,3.36,3.36,0,0,0-3.1,2.28v5h-3.44Z"/><path class="cls-5" d="M530.62,46.67l5.62-8h-5.08V35.75h9.34v2.08l-5.62,8h5.68v2.88h-9.94Z"/></svg>