<?xml version="1.0" encoding="utf-8"?>
<!-- Generator: Adobe Illustrator 25.0.0, SVG Export Plug-In . SVG Version: 6.00 Build 0)  -->
<svg version="1.1" id="Layer_1" xmlns="http://www.w3.org/2000/svg" xmlns:xlink="http://www.w3.org/1999/xlink" x="0px" y="0px"
	 viewBox="0 0 128.2 128.2" style="enable-background:new 0 0 128.2 128.2;" xml:space="preserve">
<style type="text/css">
	.st0{fill:#A50064;}
	.st1{fill:#FFFFFF;}
</style>
<ellipse class="st0" cx="91.7" cy="40.2" rx="8.7" ry="8.3"/>
<path class="st0" d="M112.2,0H16C7.2,0,0,7.2,0,16v96.2c0,8.8,7.2,16,16,16h96.2c8.8,0,16-7.2,16-16V16C128.2,7.2,121.1,0,112.2,0z
	 M65.3,107.3H53.5V82.7c0-1.8-1.5-3.3-3.5-3.3c-1.9,0-3.5,1.5-3.5,3.3v24.6H34.8V82.7c0-1.8-1.5-3.3-3.5-3.3c-1.9,0-3.5,1.5-3.5,3.3
	v24.6H16.1V82.8c0-8.1,6.9-14.7,15.4-14.7c3.5,0,6.6,1.1,9.2,2.9c2.6-1.8,5.7-2.9,9.2-2.9c8.5,0,15.4,6.6,15.4,14.7V107.3z
	 M65.3,59.7H53.5V35.2c0-1.8-1.5-3.3-3.5-3.3c-1.9,0-3.5,1.5-3.5,3.3v24.6H34.8V35.2c0-1.8-1.5-3.3-3.5-3.3c-1.9,0-3.5,1.5-3.5,3.3
	v24.6H16.1V35.3c0-8.1,6.9-14.7,15.4-14.7c3.5,0,6.6,1.1,9.2,2.9c2.6-1.8,5.8-2.9,9.2-2.9c8.5,0,15.4,6.6,15.4,14.7V59.7z
	 M91.7,107.2c-11.3,0-20.5-8.7-20.5-19.5c0-10.8,9.2-19.5,20.5-19.5s20.5,8.7,20.5,19.5C112.1,98.5,103,107.2,91.7,107.2z
	 M91.7,59.7c-11.3,0-20.5-8.7-20.5-19.5c0-10.8,9.2-19.5,20.5-19.5s20.5,8.7,20.5,19.5C112.1,51,103,59.7,91.7,59.7z"/>
<ellipse class="st0" cx="91.7" cy="87.7" rx="8.7" ry="8.3"/>
<path class="st1" d="M49.9,68.2c-3.5,0-6.6,1.1-9.2,2.9c-2.6-1.8-5.7-2.9-9.2-2.9c-8.5,0-15.4,6.6-15.4,14.7v24.4h11.7V82.7
	c0-1.8,1.5-3.3,3.5-3.3c1.9,0,3.5,1.5,3.5,3.3v24.6h11.8V82.7c0-1.8,1.5-3.3,3.5-3.3c1.9,0,3.5,1.5,3.5,3.3v24.6h11.8V82.8
	C65.3,74.7,58.4,68.2,49.9,68.2z"/>
<path class="st1" d="M49.9,20.6c-3.4,0-6.6,1.1-9.2,2.9c-2.6-1.8-5.7-2.9-9.2-2.9c-8.5,0-15.4,6.6-15.4,14.7v24.4h11.7V35.2
	c0-1.8,1.5-3.3,3.5-3.3c1.9,0,3.5,1.5,3.5,3.3v24.6h11.8V35.2c0-1.8,1.5-3.3,3.5-3.3c1.9,0,3.5,1.5,3.5,3.3v24.6h11.8V35.3
	C65.3,27.2,58.4,20.6,49.9,20.6z"/>
<path class="st1" d="M91.7,20.6c-11.3,0-20.5,8.7-20.5,19.5c0,10.8,9.2,19.5,20.5,19.5s20.5-8.7,20.5-19.5
	C112.1,29.4,103,20.6,91.7,20.6z M91.7,48.5c-4.8,0-8.7-3.7-8.7-8.3c0-4.6,3.9-8.3,8.7-8.3c4.8,0,8.7,3.7,8.7,8.3
	C100.3,44.8,96.4,48.5,91.7,48.5z"/>
<path class="st1" d="M91.7,68.2c-11.3,0-20.5,8.7-20.5,19.5c0,10.8,9.2,19.5,20.5,19.5s20.5-8.7,20.5-19.5
	C112.1,76.9,103,68.2,91.7,68.2z M91.7,96c-4.8,0-8.7-3.7-8.7-8.3s3.9-8.3,8.7-8.3c4.8,0,8.7,3.7,8.7,8.3S96.4,96,91.7,96z"/>
</svg>
