<svg xmlns="http://www.w3.org/2000/svg" xmlns:xlink="http://www.w3.org/1999/xlink" height="120px" viewBox="0 0 311.81 191.19"><defs><style>.cls-1{fill:#115e67;}.cls-2{fill:#4f868e;}.cls-3{fill:url(#New_Gradient_Swatch_2);}.cls-4{fill:url(#linear-gradient);}.cls-5{fill:url(#New_Gradient_Swatch_3);}.cls-6{fill:url(#linear-gradient-2);}.cls-7{fill:url(#linear-gradient-3);}.cls-8{fill:url(#linear-gradient-4);}</style><linearGradient id="New_Gradient_Swatch_2" x1="253.69" y1="44.49" x2="194.43" y2="71.74" gradientUnits="userSpaceOnUse"><stop offset="0" stop-color="#408f8c"></stop><stop offset="0.1" stop-color="#408f8c"></stop><stop offset="0.2" stop-color="#549c99"></stop><stop offset="0.46" stop-color="#86bbb8"></stop><stop offset="0.69" stop-color="#abd3d0"></stop><stop offset="0.88" stop-color="#c1e1de"></stop><stop offset="1" stop-color="#c9e6e3"></stop></linearGradient><linearGradient id="linear-gradient" x1="254.32" y1="48.88" x2="249.1" y2="101.36" gradientUnits="userSpaceOnUse"><stop offset="0" stop-color="#034245"></stop><stop offset="0.15" stop-color="#095f66"></stop><stop offset="0.42" stop-color="#30757c"></stop><stop offset="0.81" stop-color="#64939a"></stop><stop offset="1" stop-color="#789fa5"></stop></linearGradient><linearGradient id="New_Gradient_Swatch_3" x1="184.88" y1="81.57" x2="190.76" y2="46.09" gradientUnits="userSpaceOnUse"><stop offset="0" stop-color="#00383c"></stop><stop offset="0.46" stop-color="#345e65"></stop><stop offset="1" stop-color="#69888f"></stop></linearGradient><linearGradient id="linear-gradient-2" x1="153.44" y1="71.9" x2="195.13" y2="5.07" gradientUnits="userSpaceOnUse"><stop offset="0.15" stop-color="#ec4836"></stop><stop offset="0.34" stop-color="#ff6a13"></stop><stop offset="1" stop-color="#f9ad2a"></stop></linearGradient><linearGradient id="linear-gradient-3" x1="157.79" y1="70.98" x2="172.08" y2="42.09" gradientUnits="userSpaceOnUse"><stop offset="0.09" stop-color="#201812"></stop><stop offset="0.42" stop-color="#522913"></stop><stop offset="0.97" stop-color="#78430e"></stop></linearGradient><linearGradient id="linear-gradient-4" x1="265.71" y1="41.44" x2="64.32" y2="134.06" gradientUnits="userSpaceOnUse"><stop offset="0" stop-color="#408e8b"></stop><stop offset="0.1" stop-color="#408e8b"></stop><stop offset="0.19" stop-color="#539a97"></stop><stop offset="0.46" stop-color="#85bab7"></stop><stop offset="0.69" stop-color="#aad1ce"></stop><stop offset="0.88" stop-color="#c0dfdc"></stop><stop offset="1" stop-color="#c8e4e1"></stop></linearGradient></defs><title>Sentius_strategy&amp;amp;services_RGB</title><g id="Layer_2" data-name="Layer 2"><g id="Art"><path class="cls-1" d="M297.26,124.34c-8-2.92-11.16-5.83-11.16-10.08,0-5,4.85-7.16,9-7.16a26.37,26.37,0,0,1,10.68,1.83v-4.37a16.57,16.57,0,0,0-12.37-5.83c-9.59,0-16,6.8-16,16,0,9,5.46,13.11,15.05,17,7.15,2.92,10.42,5.7,10.42,10.44,0,5.57-3.52,9.82-11.88,9.82-3.88,0-8.38-1.82-12.62-4.37v5a18,18,0,0,0,15.05,8c10.44,0,18.43-6.92,18.43-18C311.81,132.46,305,127.13,297.26,124.34Z"></path><path class="cls-1" d="M19.91,124.34c-8-2.92-11.17-5.83-11.17-10.08,0-5,4.85-7.16,9-7.16a26.45,26.45,0,0,1,10.69,1.83v-4.37A16.61,16.61,0,0,0,16,98.73c-9.58,0-16,6.8-16,16,0,9,5.46,13.11,15,17,7.16,2.92,10.44,5.7,10.44,10.44,0,5.57-3.53,9.82-11.89,9.82-3.88,0-8.37-1.82-12.62-4.37v5a18,18,0,0,0,15,8c10.45,0,18.45-6.92,18.45-18C34.46,132.46,27.66,127.13,19.91,124.34Z"></path><path class="cls-1" d="M127.49,100.07c-9.6,0-15.55,7.15-18.09,14V99.7l-9.94,2.18v58.59h9.94V124.7a15.37,15.37,0,0,1,15.06-15.42c7.4,0,10.78,4.14,10.78,10.93v40.26h10.08V117.9A17.78,17.78,0,0,0,127.49,100.07Z"></path><path class="cls-1" d="M171.91,94l-10,2.17v5.7h-3.6l-3.13,8.6h6.73V150.8c0,5.72,3.52,9.67,8.62,9.67h8.6v-.23S172,158.5,172,150.8V110.42h8.3l3.08-8.6H172Z"></path><path class="cls-1" d="M255.76,135.56a15.06,15.06,0,0,1-15,14.8c-7.42,0-10.8-4-10.8-10.49V111.74l-10.08-12.2v42.55c0,9.44,7.9,17.12,17.84,17.12,9.59,0,15.53-6.86,18.09-13.39v14.65h10.06V99.57l-10.06,12.1Z"></path><polygon class="cls-1" points="194.94 160.47 205.27 160.47 205.27 99.64 194.94 101.88 194.94 160.47"></polygon><path class="cls-1" d="M89.07,129.55v0h0c.19-18.34-7.28-30.3-21.85-30.3-15.17,0-24.51,15.17-24.51,30.34s7.76,30.58,24.51,30.58c6.68,0,11.53-2.92,15.3-7.77v-4.61c-4.26,2.43-7.9,4.25-13.6,4.25-10.55,0-17.54-14.15-16.45-22.45Zm-21.31-21.3c7.63,0,11.88,8,12.37,13.91H53.69C54.62,115.45,59.67,108.25,67.76,108.25Z"></path><path class="cls-2" d="M105.07,172.28a4.63,4.63,0,0,1,4.7,3.2l-1.86.52a2.74,2.74,0,0,0-2.84-1.93c-1.65,0-2.87.84-2.87,2,0,.91.73,1.69,2.28,2.07l2,.49c2.46.6,3.48,2,3.48,3.58,0,2-1.79,4-5.12,4a5.26,5.26,0,0,1-5.37-3.4l1.89-.7a3.39,3.39,0,0,0,3.44,2.28c1.93,0,3-1,3-2.11,0-.88-.56-1.54-1.9-1.86l-2.24-.56c-2.42-.6-3.55-2.07-3.55-3.68C100.12,174,102.23,172.28,105.07,172.28Z"></path><path class="cls-2" d="M118.32,174.39h-2.88v7.68c0,2,1.34,2,2.11,2a5.4,5.4,0,0,0,.8-.07v1.89a3.94,3.94,0,0,1-5-3.26v-8.24H111.2v-1.93h2.17v-4.67h2.07v4.67h2.88Z"></path><path class="cls-2" d="M127.33,174.46a6.28,6.28,0,0,0-1.09-.07,3.81,3.81,0,0,0-3.61,3.82v7.72h-2.07V172.46h2.07v2.31h.14a3.94,3.94,0,0,1,3.54-2.52,5,5,0,0,1,1,.07Z"></path><path class="cls-2" d="M137.33,184.11h-.11a4.25,4.25,0,0,1-4,2.14c-2.56,0-4.59-1.51-4.59-4,0-4.28,5.78-4.49,8.06-4.73l.64-.07v-.18a3,3,0,0,0-3.27-3.12,3.38,3.38,0,0,0-3.33,2.21l-1.93-.74a5.22,5.22,0,0,1,5.23-3.3c2.73,0,5.37,1.37,5.37,5.34v8.31h-2.07Zm-.42-4.85c-1.37.11-6.21.15-6.21,3a2.31,2.31,0,0,0,2.56,2.18c2.7,0,4.07-1.65,4.07-3.34v-1.82Z"></path><path class="cls-2" d="M148.17,174.39H145.3v7.68c0,2,1.33,2,2.1,2a5.54,5.54,0,0,0,.81-.07v1.89a3.94,3.94,0,0,1-5-3.26v-8.24h-2.18v-1.93h2.18v-4.67h2.07v4.67h2.87Z"></path><path class="cls-2" d="M149.61,179.23c0-4,2.21-6.95,6.07-6.95,3.08,0,6.07,1.9,6.07,6.84V180h-10c.26,2.9,1.92,4.35,4.07,4.35a4.17,4.17,0,0,0,3.79-2.14l1.86.81c-.81,1.93-2.88,3.19-5.58,3.19C151.75,186.21,149.61,183.23,149.61,179.23Zm2.12-1h8a3.84,3.84,0,0,0-4-4.07C153.49,174.14,152,175.63,151.73,178.21Z"></path><path class="cls-2" d="M175.54,172.53v13.68c0,3-2.63,4.77-5.89,4.77a5.94,5.94,0,0,1-5.19-2.42l1.54-1.23a4.32,4.32,0,0,0,3.65,1.79c2.24,0,3.79-1,3.82-3.37v-1.61h-.24a4.22,4.22,0,0,1-3.65,1.79c-3.62,0-6.07-2.63-6.07-6.88,0-4.07,2.42-6.77,6.07-6.77a4.21,4.21,0,0,1,3.7,1.76h.19v-1.51Zm-6,11.51a3.92,3.92,0,0,0,3.79-2.85,9.18,9.18,0,0,0,.24-2.17,8.07,8.07,0,0,0-.28-2.11,3.9,3.9,0,0,0-3.72-2.77c-2.35,0-4,1.9-4,4.91C165.58,182.25,167.33,184,169.58,184Z"></path><path class="cls-2" d="M182.31,185.93l-4.76-13.47h2.25l3.57,10.4,3.62-10.4h2.24l-5.47,15.47a4.52,4.52,0,0,1-4.32,3.26,10.2,10.2,0,0,1-1.57-.17v-1.93a4.67,4.67,0,0,0,1,.07,2.8,2.8,0,0,0,3-2Z"></path><path class="cls-2" d="M221.11,172.28a4.63,4.63,0,0,1,4.7,3.2L224,176a2.74,2.74,0,0,0-2.84-1.93c-1.65,0-2.87.84-2.87,2,0,.91.73,1.69,2.28,2.07l2,.49c2.45.6,3.47,2,3.47,3.58,0,2-1.79,4-5.12,4a5.27,5.27,0,0,1-5.37-3.4l1.89-.7a3.39,3.39,0,0,0,3.44,2.28c1.93,0,3-1,3-2.11,0-.88-.56-1.54-1.9-1.86l-2.24-.56c-2.42-.6-3.54-2.07-3.54-3.68C216.17,174,218.27,172.28,221.11,172.28Z"></path><path class="cls-2" d="M227.64,179.23c0-4,2.21-6.95,6.07-6.95,3.09,0,6.07,1.9,6.07,6.84V180h-10c.26,2.9,1.92,4.35,4.07,4.35a4.17,4.17,0,0,0,3.79-2.14l1.86.81c-.81,1.93-2.88,3.19-5.58,3.19C229.78,186.21,227.64,183.23,227.64,179.23Zm2.12-1h8a3.84,3.84,0,0,0-4-4.07C231.53,174.14,230.05,175.63,229.76,178.21Z"></path><path class="cls-2" d="M248.78,174.46a6.23,6.23,0,0,0-1.08-.07,3.81,3.81,0,0,0-3.62,3.82v7.72H242V172.46h2.07v2.31h.14a4,4,0,0,1,3.54-2.52,5,5,0,0,1,1,.07Z"></path><path class="cls-2" d="M256.62,185.93h-2l-4.84-13.47h2.1l3.65,10.28h.14l3.65-10.28h2.1Z"></path><path class="cls-2" d="M263,169.13a1.48,1.48,0,0,1,2.95,0,1.48,1.48,0,0,1-2.95,0Zm2.53,16.8h-2.07V172.46h2.07Z"></path><path class="cls-2" d="M277.28,176.49a3.22,3.22,0,0,0-3.33-2.35c-2.35,0-3.93,2.11-3.93,5.05,0,3.09,1.65,5.16,3.89,5.16a3.2,3.2,0,0,0,3.37-2.35h2.07c-.35,2.39-2.32,4.21-5.44,4.21-3.61,0-6-2.88-6-7s2.31-6.91,6-6.91c2.84,0,5.09,1.69,5.44,4.21Z"></path><path class="cls-2" d="M281,179.23c0-4,2.21-6.95,6.07-6.95,3.09,0,6.07,1.9,6.07,6.84V180h-10c.25,2.9,1.91,4.35,4.06,4.35a4.17,4.17,0,0,0,3.79-2.14l1.86.81c-.8,1.93-2.87,3.19-5.58,3.19C283.18,186.21,281,183.23,281,179.23Zm2.12-1h8a3.83,3.83,0,0,0-4-4.07C284.93,174.14,283.45,175.63,283.16,178.21Z"></path><path class="cls-2" d="M300.17,172.28a4.63,4.63,0,0,1,4.7,3.2L303,176a2.75,2.75,0,0,0-2.84-1.93c-1.65,0-2.88.84-2.88,2,0,.91.74,1.69,2.28,2.07l2,.49c2.46.6,3.47,2,3.47,3.58,0,2-1.79,4-5.12,4a5.24,5.24,0,0,1-5.36-3.4l1.89-.7a3.39,3.39,0,0,0,3.44,2.28c1.93,0,3-1,3-2.11,0-.88-.56-1.54-1.89-1.86l-2.25-.56c-2.42-.6-3.54-2.07-3.54-3.68C295.22,174,297.33,172.28,300.17,172.28Z"></path><path class="cls-2" d="M205.33,184.42a6.83,6.83,0,0,1-4.67,1.76c-3.55,0-5.72-2.11-5.72-5,0-2.18,1.44-3.53,3.54-5-1.22-1.48-2.1-2.74-2.1-4.08,0-2.77,1.72-4.32,4.42-4.32s4.28,1.76,4.28,3.76c0,1.72-.92,2.91-2.39,4l-1.32,1,3.91,4.76a7,7,0,0,0,.74-3.22h2a7.55,7.55,0,0,1-1.44,4.82l2.5,3h-2.5Zm-4.67-.07a5.07,5.07,0,0,0,3.42-1.45l-4.3-5.18-.67.49c-1.68,1.23-2.07,2.46-2.07,2.95A3.32,3.32,0,0,0,200.66,184.35ZM200.1,175l1.19-.87a2.94,2.94,0,0,0,1.68-2.56,2.14,2.14,0,0,0-2.17-2,2.37,2.37,0,0,0-2.32,2.46C198.48,172.9,199.23,173.91,200.1,175Z"></path><polygon class="cls-3" points="243.33 35.89 184.89 47.33 205.71 95.35 244.47 66.74 243.33 35.89"></polygon><polygon class="cls-4" points="243.33 106.19 246.75 102.44 250.1 98.77 253.25 95.27 263.04 53.03 243.33 67.58 243.33 106.19"></polygon><polygon class="cls-5" points="205.71 95.35 184.89 47.33 163.13 73.31 205.71 95.35"></polygon><polygon class="cls-6" points="159.54 36.28 184.89 47.33 200.01 0 159.54 36.28"></polygon><polygon class="cls-7" points="163.13 73.31 184.89 47.33 159.54 36.28 163.13 73.31"></polygon><polygon class="cls-8" points="243.33 35.89 243.33 67.58 263.04 53.03 243.33 35.89"></polygon></g></g></svg>